<svg width="15" height="16" viewBox="0 0 15 16" fill="none" xmlns="http://www.w3.org/2000/svg">
<path d="M1.22093 0.37085L0.351562 1.31085L3.05831 4.23752L4.42093 7.34418L3.58856 8.97752C3.48991 9.16418 3.43441 9.38418 3.43441 9.61752C3.43441 10.3509 3.98933 10.9508 4.66755 10.9508H9.26717L10.118 11.8708C9.80975 12.1109 9.60628 12.5042 9.60628 12.9509C9.60628 13.6842 10.155 14.2842 10.8333 14.2842C11.2464 14.2842 11.6101 14.0642 11.8321 13.7242L13.5832 15.6175L14.4525 14.6775L1.22093 0.37085ZM4.66755 9.61752L5.34578 8.28418H6.80089L8.03403 9.61752H4.66755ZM12.683 2.28418H4.74154L5.97468 3.61752H11.641L9.93923 6.95085H9.05137L10.2475 8.24418C10.5805 8.15085 10.8579 7.91752 11.0182 7.59752L13.2255 3.27085C13.4537 2.83085 13.1516 2.28418 12.683 2.28418ZM4.66755 11.6175C3.98933 11.6175 3.44058 12.2175 3.44058 12.9509C3.44058 13.6842 3.98933 14.2842 4.66755 14.2842C5.34578 14.2842 5.9007 13.6842 5.9007 12.9509C5.9007 12.2175 5.34578 11.6175 4.66755 11.6175Z" fill="#7F8E9D"/>
</svg>
