<svg width="14" height="15" viewBox="0 0 14 15" fill="none" xmlns="http://www.w3.org/2000/svg">
<path d="M11.9336 3.3667L11.5204 10.0513C11.4149 11.7592 11.3621 12.6131 10.9341 13.227C10.7225 13.5306 10.45 13.7868 10.1341 13.9793C9.495 14.3687 8.63959 14.3687 6.92876 14.3687C5.21567 14.3687 4.35913 14.3687 3.71963 13.9785C3.40346 13.7857 3.13092 13.529 2.91938 13.225C2.49151 12.6101 2.4399 11.7549 2.33667 10.0447L1.93359 3.3667" stroke="#FF0000" stroke-linecap="round"/>
<path d="M12.9336 3.3667H0.933594" stroke="#FF0000" stroke-linecap="round"/>
<path d="M9.63598 3.36671L9.18087 2.42769C8.87855 1.80393 8.72739 1.49206 8.46664 1.29754C8.4088 1.2544 8.34756 1.21602 8.28351 1.18279C7.99477 1.03296 7.64824 1.03296 6.95518 1.03296C6.24472 1.03296 5.88949 1.03296 5.59595 1.18907C5.5309 1.22366 5.46882 1.2636 5.41036 1.30845C5.14659 1.51084 4.99925 1.83414 4.70457 2.48072L4.30078 3.36671" stroke="#FF0000" stroke-linecap="round"/>
<path d="M5.26953 10.7014L5.26953 6.7007" stroke="#FF0000" stroke-linecap="round"/>
<path d="M8.60156 10.7014L8.60156 6.70068" stroke="#FF0000" stroke-linecap="round"/>
</svg>
