<svg width="22" height="22" viewBox="0 0 22 22" fill="none" xmlns="http://www.w3.org/2000/svg">
<path d="M6.89706 17.1161C5.72427 17.1161 4.77537 18.0408 4.77537 19.1709C4.77537 20.301 5.72427 21.2256 6.89706 21.2256C8.06985 21.2256 9.02941 20.301 9.02941 19.1709C9.02941 18.0408 8.06985 17.1161 6.89706 17.1161ZM0.5 0.678223V2.73296H2.63235L6.47059 10.5307L5.03125 13.0477C4.86066 13.3354 4.76471 13.6744 4.76471 14.034C4.76471 15.1641 5.72427 16.0888 6.89706 16.0888H19.6912V14.034H7.34485C7.19559 14.034 7.07831 13.921 7.07831 13.7772L7.11029 13.6539L8.06985 11.9793H16.0129C16.8125 11.9793 17.5162 11.5581 17.8787 10.9211L21.6956 4.25347C21.7809 4.10963 21.8235 3.93498 21.8235 3.76033C21.8235 3.19528 21.3438 2.73296 20.7574 2.73296H4.9886L3.9864 0.678223H0.5ZM17.5588 17.1161C16.386 17.1161 15.4371 18.0408 15.4371 19.1709C15.4371 20.301 16.386 21.2256 17.5588 21.2256C18.7316 21.2256 19.6912 20.301 19.6912 19.1709C19.6912 18.0408 18.7316 17.1161 17.5588 17.1161Z" fill="#601AB9"/>
</svg>
