<svg width="30" height="30" viewBox="0 0 30 30" fill="none" xmlns="http://www.w3.org/2000/svg">
<path d="M25.041 11.9414H5.08919C4.71123 11.9414 4.34874 12.0916 4.08147 12.3588C3.81421 12.6261 3.66406 12.9886 3.66406 13.3665V26.1927C3.66406 26.9487 3.96436 27.6736 4.49889 28.2082C5.03341 28.7427 5.75839 29.043 6.51433 29.043H23.6159C24.3718 29.043 25.0968 28.7427 25.6313 28.2082C26.1659 27.6736 26.4662 26.9487 26.4662 26.1927V13.3665C26.4662 12.9886 26.316 12.6261 26.0488 12.3588C25.7815 12.0916 25.419 11.9414 25.041 11.9414Z" fill="white"/>
<path d="M28.4779 10.6536L28.4779 10.6536L28.4797 10.6598C28.7069 11.4217 28.8199 12.213 28.8152 13.0079L28.8152 13.0125C28.8169 13.5553 28.7112 14.0931 28.5042 14.595C28.2972 15.0968 27.9931 15.5528 27.6092 15.9367C27.2254 16.3205 26.7694 16.6247 26.2676 16.8316C25.7657 17.0386 25.2279 17.1443 24.685 17.1426L24.6825 17.1426C23.6158 17.1448 22.5905 16.7301 21.8253 15.987L21.478 15.6498L21.1297 15.986C20.3622 16.7267 19.3371 17.1407 18.2704 17.1407C17.2037 17.1407 16.1786 16.7267 15.4111 15.986L15.0619 15.6489L14.7146 15.9879C13.9529 16.7314 12.9299 17.146 11.8657 17.1426C10.8159 17.1108 9.81791 16.679 9.07594 15.9355L8.73396 15.5928L8.38043 15.9236C7.59385 16.6595 6.55698 17.0689 5.47985 17.0689C4.40374 17.0689 3.36783 16.6603 2.58153 15.9257C2.18757 15.5473 1.87255 15.0945 1.65473 14.5935C1.43685 14.0923 1.32054 13.553 1.31253 13.0066C1.31039 12.2118 1.42352 11.4208 1.6484 10.6584L1.64842 10.6584L1.64965 10.6541L3.90136 2.75884L3.90136 2.75884L3.90196 2.75671C4.04008 2.26414 4.33514 1.8301 4.74234 1.52045C5.14936 1.21095 5.64621 1.04263 6.15753 1.04102H23.9709C24.4795 1.04102 24.9743 1.20595 25.3811 1.51107C25.7875 1.81585 26.0842 2.24409 26.2267 2.73162C26.2269 2.73215 26.227 2.73268 26.2272 2.73321L28.4779 10.6536Z" fill="#7021D5" stroke="white"/>
<path d="M9.75877 25.531C9.75877 25.4071 9.73933 25.2977 9.70045 25.2029C9.664 25.1057 9.59839 25.0182 9.50361 24.9405C9.41127 24.8627 9.28248 24.7886 9.11723 24.7181C8.95441 24.6477 8.74786 24.576 8.49756 24.5031C8.23511 24.4253 7.99817 24.339 7.78675 24.2443C7.57534 24.1471 7.39429 24.0365 7.24363 23.9126C7.09296 23.7886 6.97753 23.6465 6.89734 23.4861C6.81715 23.3257 6.77705 23.1422 6.77705 22.9357C6.77705 22.7291 6.81958 22.5383 6.90463 22.3634C6.98968 22.1884 7.11119 22.0365 7.26914 21.9077C7.42953 21.7765 7.62029 21.6744 7.84143 21.6015C8.06257 21.5286 8.30922 21.4922 8.58139 21.4922C8.97993 21.4922 9.31771 21.5687 9.59474 21.7218C9.8742 21.8725 10.0868 22.0705 10.2326 22.316C10.3784 22.559 10.4513 22.819 10.4513 23.096H9.75148C9.75148 22.8968 9.70896 22.7206 9.6239 22.5675C9.53885 22.412 9.41006 22.2905 9.23752 22.203C9.06498 22.1131 8.84627 22.0681 8.58139 22.0681C8.33109 22.0681 8.12454 22.1058 7.96172 22.1811C7.7989 22.2565 7.6774 22.3585 7.59721 22.4873C7.51944 22.6161 7.48056 22.7631 7.48056 22.9284C7.48056 23.0402 7.50365 23.1422 7.54982 23.2346C7.59842 23.3245 7.67254 23.4083 7.77217 23.4861C7.87424 23.5638 8.00303 23.6355 8.15856 23.7011C8.31651 23.7668 8.50485 23.8299 8.72355 23.8907C9.02489 23.9757 9.28491 24.0705 9.50361 24.175C9.72232 24.2795 9.90215 24.3974 10.0431 24.5286C10.1865 24.6574 10.2922 24.8044 10.3602 24.9696C10.4307 25.1325 10.4659 25.3172 10.4659 25.5237C10.4659 25.74 10.4222 25.9356 10.3347 26.1106C10.2472 26.2855 10.1221 26.435 9.95926 26.5589C9.79644 26.6829 9.60082 26.7789 9.37239 26.8469C9.14639 26.9125 8.89366 26.9453 8.6142 26.9453C8.36876 26.9453 8.12697 26.9113 7.88882 26.8432C7.6531 26.7752 7.43804 26.6731 7.24363 26.5371C7.05165 26.401 6.89734 26.2333 6.7807 26.034C6.66648 25.8323 6.60938 25.599 6.60938 25.3342H7.30924C7.30924 25.5164 7.34448 25.6732 7.41495 25.8044C7.48542 25.9332 7.58141 26.0401 7.70292 26.1252C7.82685 26.2102 7.96658 26.2734 8.12211 26.3147C8.28006 26.3536 8.44409 26.373 8.6142 26.373C8.85964 26.373 9.06741 26.339 9.23752 26.271C9.40763 26.2029 9.53642 26.1057 9.6239 25.9794C9.71382 25.853 9.75877 25.7035 9.75877 25.531Z" fill="#601AB9"/>
<path d="M12.9118 22.9284V23.446H10.7794V22.9284H12.9118ZM11.5011 21.9697H12.1755V25.8955C12.1755 26.0292 12.1962 26.13 12.2375 26.1981C12.2788 26.2661 12.3322 26.3111 12.3979 26.3329C12.4635 26.3548 12.5339 26.3657 12.6093 26.3657C12.6652 26.3657 12.7235 26.3609 12.7842 26.3512C12.8474 26.339 12.8948 26.3293 12.9264 26.322L12.93 26.8724C12.8766 26.8894 12.8061 26.9052 12.7186 26.9198C12.6336 26.9368 12.5303 26.9453 12.4088 26.9453C12.2435 26.9453 12.0917 26.9125 11.9531 26.8469C11.8146 26.7813 11.7041 26.6719 11.6214 26.5188C11.5412 26.3633 11.5011 26.1543 11.5011 25.8919V21.9697Z" fill="#601AB9"/>
<path d="M13.4513 24.9441V24.8603C13.4513 24.576 13.4926 24.3123 13.5752 24.0693C13.6579 23.8239 13.7769 23.6112 13.9325 23.4314C14.088 23.2491 14.2763 23.1082 14.4975 23.0086C14.7186 22.9065 14.9665 22.8555 15.2411 22.8555C15.5181 22.8555 15.7672 22.9065 15.9883 23.0086C16.2119 23.1082 16.4014 23.2491 16.557 23.4314C16.7149 23.6112 16.8352 23.8239 16.9178 24.0693C17.0004 24.3123 17.0418 24.576 17.0418 24.8603V24.9441C17.0418 25.2285 17.0004 25.4921 16.9178 25.7351C16.8352 25.9781 16.7149 26.1908 16.557 26.373C16.4014 26.5529 16.2131 26.6938 15.992 26.7959C15.7732 26.8955 15.5254 26.9453 15.2483 26.9453C14.9713 26.9453 14.7222 26.8955 14.5011 26.7959C14.28 26.6938 14.0904 26.5529 13.9325 26.373C13.7769 26.1908 13.6579 25.9781 13.5752 25.7351C13.4926 25.4921 13.4513 25.2285 13.4513 24.9441ZM14.1256 24.8603V24.9441C14.1256 25.141 14.1487 25.3269 14.1949 25.5018C14.2411 25.6744 14.3103 25.8275 14.4027 25.9611C14.4975 26.0948 14.6153 26.2005 14.7563 26.2783C14.8972 26.3536 15.0612 26.3913 15.2483 26.3913C15.433 26.3913 15.5946 26.3536 15.7332 26.2783C15.8741 26.2005 15.9907 26.0948 16.0831 25.9611C16.1754 25.8275 16.2447 25.6744 16.2909 25.5018C16.3395 25.3269 16.3638 25.141 16.3638 24.9441V24.8603C16.3638 24.6659 16.3395 24.4824 16.2909 24.3099C16.2447 24.1349 16.1742 23.9806 16.0794 23.8469C15.9871 23.7109 15.8705 23.6039 15.7295 23.5262C15.591 23.4484 15.4282 23.4095 15.2411 23.4095C15.0564 23.4095 14.8936 23.4484 14.7526 23.5262C14.6141 23.6039 14.4975 23.7109 14.4027 23.8469C14.3103 23.9806 14.2411 24.1349 14.1949 24.3099C14.1487 24.4824 14.1256 24.6659 14.1256 24.8603Z" fill="#601AB9"/>
<path d="M18.5618 23.548V26.8724H17.8874V22.9284H18.5436L18.5618 23.548ZM19.7938 22.9065L19.7902 23.5335C19.7343 23.5213 19.6808 23.514 19.6298 23.5116C19.5812 23.5067 19.5253 23.5043 19.4621 23.5043C19.3066 23.5043 19.1693 23.5286 19.0502 23.5772C18.9312 23.6258 18.8303 23.6939 18.7477 23.7813C18.6651 23.8688 18.5994 23.9733 18.5508 24.0948C18.5047 24.2139 18.4743 24.3451 18.4597 24.4885L18.2702 24.5978C18.2702 24.3597 18.2933 24.1361 18.3394 23.9271C18.388 23.7182 18.4621 23.5335 18.5618 23.3731C18.6614 23.2103 18.7878 23.0839 18.9409 22.994C19.0964 22.9016 19.2811 22.8555 19.4949 22.8555C19.5435 22.8555 19.5994 22.8615 19.6626 22.8737C19.7258 22.8834 19.7695 22.8944 19.7938 22.9065Z" fill="#601AB9"/>
<path d="M21.9809 26.9453C21.7063 26.9453 21.4572 26.8991 21.2337 26.8068C21.0125 26.712 20.8218 26.5796 20.6614 26.4095C20.5034 26.2394 20.3819 26.0377 20.2969 25.8044C20.2118 25.5711 20.1693 25.3159 20.1693 25.0389V24.8858C20.1693 24.565 20.2167 24.2795 20.3114 24.0292C20.4062 23.7765 20.535 23.5626 20.6978 23.3877C20.8606 23.2127 21.0453 23.0803 21.2519 22.9903C21.4584 22.9004 21.6723 22.8555 21.8934 22.8555C22.1753 22.8555 22.4183 22.9041 22.6225 23.0013C22.829 23.0985 22.9979 23.2346 23.1291 23.4095C23.2604 23.5821 23.3576 23.7862 23.4207 24.0219C23.4839 24.2552 23.5155 24.5104 23.5155 24.7874V25.0899H20.5702V24.5395H22.8412V24.4885C22.8314 24.3135 22.795 24.1434 22.7318 23.9782C22.6711 23.8129 22.5739 23.6768 22.4402 23.5699C22.3066 23.463 22.1243 23.4095 21.8934 23.4095C21.7403 23.4095 21.5994 23.4423 21.4706 23.5079C21.3418 23.5711 21.2312 23.6659 21.1389 23.7923C21.0465 23.9186 20.9749 24.0729 20.9238 24.2552C20.8728 24.4375 20.8473 24.6477 20.8473 24.8858V25.0389C20.8473 25.226 20.8728 25.4022 20.9238 25.5675C20.9773 25.7303 21.0538 25.8736 21.1535 25.9976C21.2555 26.1215 21.3783 26.2187 21.5216 26.2892C21.6674 26.3597 21.8327 26.3949 22.0174 26.3949C22.2555 26.3949 22.4572 26.3463 22.6225 26.2491C22.7877 26.1519 22.9323 26.0219 23.0562 25.8591L23.4645 26.1835C23.3794 26.3123 23.2713 26.435 23.1401 26.5516C23.0088 26.6683 22.8472 26.7631 22.6553 26.836C22.4657 26.9089 22.2409 26.9453 21.9809 26.9453Z" fill="#601AB9"/>
</svg>
