<svg width="11" height="12" viewBox="0 0 11 12" fill="none" xmlns="http://www.w3.org/2000/svg">
<path d="M10.3099 2.9564L10.2955 2.6156L9.95613 2.58075C8.65273 2.44689 7.53222 1.96051 6.82172 1.57605C6.04354 1.15496 5.57183 0.759914 5.5675 0.756268L5.31276 0.541016L5.05784 0.755957C5.05316 0.759902 4.58145 1.15496 3.80328 1.57604C3.09278 1.96049 1.97228 2.44688 0.668883 2.58074L0.32955 2.61559L0.315062 2.95639C0.312468 3.0174 0.257959 4.47091 0.817827 6.23098C1.14819 7.26961 1.62529 8.2002 2.23587 8.99704C3.00258 9.99759 3.98051 10.7863 5.1425 11.3412L5.31249 11.4224L5.48249 11.3412C6.64448 10.7863 7.62242 9.99762 8.38912 8.99704C8.99971 8.20023 9.47681 7.2696 9.80717 6.23099C10.367 4.47094 10.3125 3.01743 10.3099 2.9564ZM5.31249 10.5455C4.3431 10.0529 3.52264 9.37539 2.8716 8.52955C2.31703 7.80904 1.88168 6.96363 1.57762 6.01685C1.206 4.85963 1.12266 3.82758 1.10579 3.32081C1.62859 3.24319 2.15712 3.11257 2.6817 2.93116C3.19452 2.75381 3.70492 2.52769 4.19872 2.2591C4.69977 1.98658 5.08103 1.72628 5.31248 1.55607C5.54393 1.72627 5.92521 1.98658 6.42625 2.2591C6.92005 2.5277 7.43046 2.75381 7.94328 2.93116C8.468 3.11263 8.99668 3.24325 9.51962 3.32087C9.50338 3.82267 9.42168 4.84018 9.05532 5.99187C8.75268 6.94332 8.31784 7.79297 7.76287 8.5172C7.11028 9.36883 6.2866 10.0505 5.31249 10.5455Z" fill="white"/>
<path d="M7.46554 4.1875L6.91513 4.7379L4.86385 6.7892L3.82424 5.74959L3.68287 5.60822L3.40394 5.88715V5.88716L3.125 6.16611L4.86385 7.90494L8.02341 4.74538L7.46554 4.1875Z" fill="white"/>
</svg>
