<svg width="15" height="13" viewBox="0 0 15 13" fill="none" xmlns="http://www.w3.org/2000/svg">
<path fill-rule="evenodd" clip-rule="evenodd" d="M4.51964 0.966797C3.50559 0.966797 2.58861 1.22024 1.92304 1.83827C1.25115 2.46217 0.90918 3.38867 0.90918 4.57726V8.97261C0.90918 10.1612 1.25115 11.0877 1.92304 11.7116C2.58861 12.3297 3.50559 12.5831 4.51964 12.5831H10.7987C11.8128 12.5831 12.7298 12.3297 13.3953 11.7116C14.0672 11.0877 14.4092 10.1612 14.4092 8.97261V4.57726C14.4092 3.38867 14.0672 2.46217 13.3953 1.83827C12.7298 1.22024 11.8128 0.966797 10.7987 0.966797H4.51964ZM12.198 4.4908C12.4038 4.33178 12.4417 4.03602 12.2826 3.83022C12.1237 3.62441 11.8279 3.58649 11.6221 3.74552L8.13903 6.43687C7.85641 6.65532 7.46189 6.65532 7.17921 6.43687L3.69621 3.74552C3.4904 3.58649 3.19465 3.62441 3.03562 3.83022C2.87659 4.03602 2.91451 4.33178 3.12032 4.4908L6.60335 7.1822C7.22523 7.66267 8.09306 7.66267 8.71494 7.1822L12.198 4.4908Z" fill="#EF4C4A"/>
</svg>
