<svg width="16" height="18" viewBox="0 0 16 18" fill="none" xmlns="http://www.w3.org/2000/svg">
<path d="M0.93044 10.9505C0.779344 12.0255 1.45486 12.7716 2.28196 13.1434C5.45286 14.5691 9.8655 14.5691 13.0364 13.1434C13.8635 12.7716 14.539 12.0255 14.3879 10.9505C14.2951 10.2899 13.8359 9.73976 13.4957 9.20258C13.0501 8.49033 13.0059 7.71347 13.0058 6.88696C13.0058 3.69285 10.612 1.10352 7.65918 1.10352C4.70632 1.10352 2.31256 3.69285 2.31256 6.88696C2.31249 7.71347 2.26822 8.49033 1.82264 9.20258C1.48246 9.73975 1.0233 10.2899 0.93044 10.9505Z" fill="#508A7B" stroke="#508A7B" stroke-width="1.5" stroke-linecap="round" stroke-linejoin="round"/>
<path d="M5.52637 16.1992C6.09204 16.6933 6.83904 16.9937 7.65795 16.9937C8.47685 16.9937 9.22385 16.6933 9.78952 16.1992" stroke="#508A7B" stroke-width="1.5" stroke-linecap="round" stroke-linejoin="round"/>
</svg>
