<svg width="15" height="14" viewBox="0 0 15 14" fill="none" xmlns="http://www.w3.org/2000/svg">
<path fill-rule="evenodd" clip-rule="evenodd" d="M7.65722 0.197266C3.93607 0.197266 0.90918 3.225 0.90918 6.94721C0.90918 8.42339 1.38524 9.7924 2.19449 10.9036L1.35344 13.4115L3.94793 12.5823C5.01504 13.2886 6.28849 13.6973 7.66114 13.6973C11.3823 13.6973 14.4092 10.6694 14.4092 6.94733C14.4092 3.22512 11.3823 0.197377 7.66114 0.197377L7.65722 0.197266ZM5.77279 3.62594C5.64191 3.31247 5.54271 3.3006 5.34443 3.29253C5.27692 3.28861 5.20168 3.2847 5.11827 3.2847C4.86031 3.2847 4.59059 3.36007 4.42791 3.52672C4.22963 3.72909 3.73766 4.20125 3.73766 5.16954C3.73766 6.13783 4.44381 7.07432 4.53898 7.20535C4.63817 7.33616 5.91565 9.35204 7.89916 10.1736C9.45028 10.8165 9.91056 10.7569 10.2636 10.6815C10.7793 10.5704 11.426 10.1893 11.5886 9.72912C11.7513 9.26872 11.7513 8.87584 11.7036 8.79252C11.656 8.7092 11.525 8.66171 11.3268 8.56238C11.1285 8.46315 10.1644 7.98695 9.98188 7.92345C9.8033 7.85603 9.63278 7.87989 9.49798 8.07039C9.30754 8.33626 9.12112 8.60617 8.97031 8.76878C8.8513 8.89578 8.65681 8.91168 8.49424 8.84415C8.27603 8.75299 7.66517 8.53852 6.91134 7.8679C6.32813 7.34814 5.93145 6.70138 5.81646 6.50696C5.70137 6.30862 5.80458 6.19338 5.89572 6.08632C5.99492 5.96323 6.0901 5.87599 6.18929 5.76086C6.28849 5.64584 6.34403 5.58627 6.40751 5.45131C6.47502 5.32039 6.42732 5.18544 6.37974 5.08622C6.33215 4.98699 5.93547 4.0187 5.77279 3.62594Z" fill="#67C15E"/>
</svg>
