<svg width="36" height="36" viewBox="0 0 36 36" fill="none" xmlns="http://www.w3.org/2000/svg">
<path d="M18.2711 35.0359C27.9326 35.0359 35.7649 27.1981 35.7649 17.5297C35.7649 7.86125 27.9326 0.0234375 18.2711 0.0234375C8.60956 0.0234375 0.777344 7.86125 0.777344 17.5297C0.777344 27.1981 8.60956 35.0359 18.2711 35.0359Z" fill="#66BD46"/>
<path fill-rule="evenodd" clip-rule="evenodd" d="M22.3972 25.0234C24.2605 25.0234 25.771 23.5124 25.771 21.6484C25.771 19.7845 24.2605 18.2734 22.3972 18.2734C20.5339 18.2734 19.0234 19.7845 19.0234 21.6484C19.0234 23.5124 20.5339 25.0234 22.3972 25.0234ZM23.1465 20.5234C23.1465 20.1092 22.8107 19.7734 22.3965 19.7734C21.9823 19.7734 21.6465 20.1092 21.6465 20.5234V21.9702C21.6465 22.2032 21.739 22.4267 21.9038 22.5914L22.6162 23.3038C22.909 23.5967 23.3839 23.5967 23.6768 23.3038C23.9697 23.0109 23.9697 22.536 23.6768 22.2431L23.1465 21.7128V20.5234Z" fill="white"/>
<path fill-rule="evenodd" clip-rule="evenodd" d="M10.7773 15.5766C10.7773 12.5097 13.2636 10.0234 16.3305 10.0234H20.2188C23.2857 10.0234 25.772 12.5097 25.772 15.5766C25.772 16.5635 25.5145 17.4903 25.0631 18.2935C24.3316 17.7112 23.4052 17.3633 22.3977 17.3633C20.0315 17.3633 18.1133 19.2822 18.1133 21.6492C18.1133 21.7281 18.1154 21.8066 18.1196 21.8844L14.8358 23.3821C14.7299 23.4304 14.6213 23.3206 14.6708 23.2153L15.5848 21.2699C15.6154 21.2047 15.5678 21.1298 15.4958 21.1298C12.8899 21.1298 10.7773 19.0173 10.7773 16.4114V15.5766ZM15.2754 16.7734C15.6896 16.7734 16.0254 16.4377 16.0254 16.0234C16.0254 15.6092 15.6896 15.2734 15.2754 15.2734C14.8612 15.2734 14.5254 15.6092 14.5254 16.0234C14.5254 16.4377 14.8612 16.7734 15.2754 16.7734ZM19.0254 16.0234C19.0254 16.4377 18.6896 16.7734 18.2754 16.7734C17.8612 16.7734 17.5254 16.4377 17.5254 16.0234C17.5254 15.6092 17.8612 15.2734 18.2754 15.2734C18.6896 15.2734 19.0254 15.6092 19.0254 16.0234ZM21.2734 16.7734C21.6877 16.7734 22.0234 16.4377 22.0234 16.0234C22.0234 15.6092 21.6877 15.2734 21.2734 15.2734C20.8592 15.2734 20.5234 15.6092 20.5234 16.0234C20.5234 16.4377 20.8592 16.7734 21.2734 16.7734Z" fill="white"/>
</svg>
