<svg width="36" height="36" viewBox="0 0 36 36" fill="none" xmlns="http://www.w3.org/2000/svg">
<path d="M18.2711 35.0242C27.9326 35.0242 35.7649 27.1864 35.7649 17.518C35.7649 7.84953 27.9326 0.0117188 18.2711 0.0117188C8.60956 0.0117188 0.777344 7.84953 0.777344 17.518C0.777344 27.1864 8.60956 35.0242 18.2711 35.0242Z" fill="#FF8E00"/>
<path fill-rule="evenodd" clip-rule="evenodd" d="M23.4242 11.0117C24.7206 11.0117 25.7715 12.0626 25.7715 13.3589V19.424C25.7715 20.3711 24.6351 20.8548 23.9524 20.1984L23.488 19.7517C23.2694 19.5415 22.9778 19.424 22.6745 19.424H22.0237V15.6089C22.0237 14.3126 20.9728 13.2617 19.6765 13.2617H15.2766C15.3276 12.0105 16.3581 11.0117 17.6219 11.0117H23.4242Z" fill="white"/>
<path fill-rule="evenodd" clip-rule="evenodd" d="M13.1246 14.0117C11.8282 14.0117 10.7773 15.0626 10.7773 16.3589V22.666C10.7773 23.6286 11.9387 24.1133 12.623 23.4363L13.0586 23.0054C13.2783 22.788 13.5749 22.666 13.884 22.666H18.9269C20.2233 22.666 21.2742 21.6151 21.2742 20.3188V16.3589C21.2742 15.0626 20.2233 14.0117 18.9269 14.0117H13.1246ZM14.1567 18.6147C13.7993 18.4052 13.3398 18.5251 13.1303 18.8824C12.9208 19.2397 13.0407 19.6992 13.398 19.9087C14.3167 20.4473 15.1592 20.7654 16.0489 20.7617C16.9384 20.7581 17.767 20.4333 18.6574 19.9075C19.014 19.6969 19.1324 19.237 18.9218 18.8803C18.7112 18.5237 18.2513 18.4053 17.8946 18.6159C17.1109 19.0787 16.5528 19.2597 16.0428 19.2617C15.5331 19.2638 14.9633 19.0876 14.1567 18.6147Z" fill="white"/>
</svg>
