<svg width="36" height="36" viewBox="0 0 36 36" fill="none" xmlns="http://www.w3.org/2000/svg">
<path d="M18.2711 35.0125C27.9326 35.0125 35.7649 27.1747 35.7649 17.5062C35.7649 7.83782 27.9326 0 18.2711 0C8.60956 0 0.777344 7.83782 0.777344 17.5062C0.777344 27.1747 8.60956 35.0125 18.2711 35.0125Z" fill="#ED2B2A"/>
<path d="M10.7773 17.375C10.7773 16.7537 11.281 16.25 11.9023 16.25H12.2773V18.5H11.9023C11.281 18.5 10.7773 17.9963 10.7773 17.375Z" fill="white"/>
<path d="M13.0273 16.9853C13.0273 15.7508 14.0281 14.75 15.2626 14.75H16.776V20H15.2626C14.0281 20 13.0273 18.9992 13.0273 17.7647V16.9853Z" fill="white"/>
<path d="M13.7773 20.75H16.0273V23.375C16.0273 23.9963 15.5237 24.5 14.9023 24.5C14.281 24.5 13.7773 23.9963 13.7773 23.375V20.75Z" fill="white"/>
<path d="M17.5254 15.6942C17.5254 14.7525 18.1156 13.9118 19.0012 13.5919L21.874 12.5541C21.9469 12.5278 22.0238 12.5817 22.0238 12.6592V22.0908C22.0238 22.1683 21.9469 22.2222 21.874 22.1959L19.0012 21.1581C18.1156 20.8382 17.5254 19.9975 17.5254 19.0558V15.6942Z" fill="white"/>
<rect x="22.7734" y="11" width="2.99893" height="12.75" rx="1.49946" fill="white"/>
</svg>
