<svg width="15" height="19" viewBox="0 0 15 19" fill="none" xmlns="http://www.w3.org/2000/svg">
<path d="M4.47545 7.65265V11.0363C4.47545 12.7083 5.74511 14.0637 7.31133 14.0637C8.87754 14.0637 10.1472 12.7083 10.1472 11.0363V6.76222C10.1472 5.87703 9.47503 5.15944 8.64586 5.15944C7.81669 5.15944 7.14451 5.87703 7.14451 6.76222V10.8582M2.66996 0.755859H11.9512C13.0903 0.755859 14.0137 1.74166 14.0137 2.95769L14.0134 16.1684C14.0134 17.3844 13.09 18.3702 11.951 18.3702L2.66987 18.3701C1.53081 18.3701 0.607415 17.3844 0.607422 16.1683L0.607502 2.95764C0.607509 1.74163 1.5309 0.755859 2.66996 0.755859Z" stroke="#601AB9" stroke-width="0.7" stroke-linecap="round"/>
</svg>
