<svg width="41" height="41" viewBox="0 0 41 41" fill="none" xmlns="http://www.w3.org/2000/svg">
<path d="M20.5723 40.3574C31.618 40.3574 40.5723 31.4031 40.5723 20.3574C40.5723 9.31173 31.618 0.357422 20.5723 0.357422C9.52657 0.357422 0.572266 9.31173 0.572266 20.3574C0.572266 31.4031 9.52657 40.3574 20.5723 40.3574Z" fill="#AE9676"/>
<path d="M28.1884 8.04688L12.4629 32.7981L20.0144 40.3492C20.2 40.3544 20.3861 40.3574 20.5729 40.3574C31.5942 40.3574 40.5325 31.4426 40.572 20.4304L28.1884 8.04688Z" fill="#897256"/>
<path d="M14.5363 33.691H26.6125C28.187 33.691 29.4633 32.4146 29.4633 30.8402V14.3195C29.4633 12.7451 28.187 11.4688 26.6125 11.4688H14.5363C12.9619 11.4688 11.6855 12.7451 11.6855 14.3195V30.8402C11.6855 32.4146 12.9619 33.691 14.5363 33.691Z" fill="#5E4534"/>
<path d="M26.6104 11.4688H20.4824V33.691H26.6104C28.1848 33.691 29.4611 32.4146 29.4611 30.8402V14.3195C29.4611 12.7451 28.1848 11.4688 26.6104 11.4688Z" fill="#503B2C"/>
<path d="M13.5685 11.6694H27.5739C28.0206 11.6694 28.3827 11.3072 28.3827 10.8606V8.57243C28.3827 8.12569 28.0205 7.76367 27.5739 7.76367H13.5685C13.1218 7.76367 12.7598 8.12583 12.7598 8.57243V10.8606C12.7598 11.3072 13.1219 11.6694 13.5685 11.6694Z" fill="#ECF0F1"/>
<path d="M26.2763 27.0238H14.8733C14.3403 27.0238 13.9082 26.5916 13.9082 26.0585V19.1C13.9082 18.567 14.3404 18.1348 14.8733 18.1348H26.2763C26.8093 18.1348 27.2415 18.567 27.2415 19.1V26.0585C27.2415 26.5916 26.8093 27.0238 26.2763 27.0238Z" fill="#ECF0F1"/>
<path d="M27.5748 7.76367H20.4824V11.6694H27.5748C28.0215 11.6694 28.3836 11.3072 28.3836 10.8606V8.57243C28.3836 8.12583 28.0214 7.76367 27.5748 7.76367Z" fill="#D6D8D8"/>
<path d="M26.2737 18.1348H20.4824V27.0237H26.2737C26.8067 27.0237 27.2389 26.5916 27.2389 26.0584V19.0999C27.2389 18.5668 26.8067 18.1348 26.2737 18.1348Z" fill="#D6D8D8"/>
<path d="M17.0921 24.802H24.0506C24.5837 24.802 25.0158 24.3698 25.0158 23.8367V21.3227C25.0158 20.7896 24.5837 20.3574 24.0506 20.3574H17.0921C16.559 20.3574 16.127 20.7896 16.127 21.3227V23.8367C16.127 24.3698 16.5591 24.802 17.0921 24.802Z" fill="#C63C22"/>
<path d="M24.0514 20.3574H20.4824V24.8019H24.0514C24.5845 24.8019 25.0167 24.3698 25.0167 23.8366V21.3225C25.0167 20.7895 24.5845 20.3574 24.0514 20.3574Z" fill="#AF3120"/>
</svg>
