<svg width="41" height="41" viewBox="0 0 41 41" fill="none" xmlns="http://www.w3.org/2000/svg">
<rect x="19.8342" y="8.57148" width="1.9" height="0.9" rx="0.45" stroke="#909090" stroke-width="0.1"/>
<path d="M20.1943 40.9023C31.24 40.9023 40.1943 31.948 40.1943 20.9023C40.1943 9.85665 31.24 0.902344 20.1943 0.902344C9.14864 0.902344 0.194336 9.85665 0.194336 20.9023C0.194336 31.948 9.14864 40.9023 20.1943 40.9023Z" fill="#CB6F3D"/>
<path d="M29.8026 13.5508L12.5107 34.6676L18.3427 40.8605C18.7592 40.8872 19.1786 40.9023 19.6014 40.9023C29.3604 40.9023 37.5346 33.6996 39.6686 24.0273L29.8026 13.5508Z" fill="#AD481C"/>
<path d="M13.4676 33.6914H24.6849C25.8353 33.6914 26.8057 32.7602 26.9483 31.5193L29.2393 11.5957H8.91309L11.204 31.5193C11.3468 32.7603 12.3172 33.6914 13.4676 33.6914Z" fill="#79302A"/>
<path d="M19.7846 29.6726C21.8042 29.6726 23.4413 28.5811 23.4413 27.2347C23.4413 25.8883 21.8042 24.7969 19.7846 24.7969C17.7651 24.7969 16.1279 25.8883 16.1279 27.2347C16.1279 28.5811 17.7651 29.6726 19.7846 29.6726Z" fill="#F4AF30"/>
</svg>
