<svg width="41" height="41" viewBox="0 0 41 41" fill="none" xmlns="http://www.w3.org/2000/svg">
<path d="M20.9297 40.3574C31.9754 40.3574 40.9297 31.4031 40.9297 20.3574C40.9297 9.31173 31.9754 0.357422 20.9297 0.357422C9.88399 0.357422 0.929688 9.31173 0.929688 20.3574C0.929688 31.4031 9.88399 40.3574 20.9297 40.3574Z" fill="#27AE60"/>
<path d="M29.4486 7.59766L15.8008 31.3243L22.6288 38.1585C32.6068 37.3181 40.4987 29.1532 40.9099 19.0589L29.4486 7.59766Z" fill="#1D8747"/>
<path d="M16.5583 31.564H25.3021C25.974 31.564 26.5367 31.0548 26.6035 30.3862L28.7079 9.3418H13.1523L15.2569 30.3862C15.3237 31.0548 15.8862 31.564 16.5583 31.564Z" fill="#D0D5D9"/>
<path d="M13.9258 7.208L24.69 5.05514C25.2574 4.94161 25.8438 5.11925 26.2529 5.52841L27.9325 7.208H13.9258Z" fill="#BFF796"/>
<path d="M20.9492 9.3418V31.564H25.2986C25.9705 31.564 26.5332 31.0548 26.6 30.3862L28.7045 9.3418H20.9492Z" fill="#C0C2C4"/>
<path d="M26.2505 5.52836C25.8413 5.1192 25.2548 4.94169 24.6875 5.05509L20.9492 5.8027V7.20782H27.9301L26.2505 5.52836Z" fill="#A4D37F"/>
<path d="M28.3842 11.5636H13.4796C12.6862 11.5636 12.043 10.9204 12.043 10.127V8.55564C12.043 7.76237 12.6862 7.11914 13.4796 7.11914H28.3842C29.1776 7.11914 29.8209 7.76237 29.8209 8.55564V10.127C29.8207 10.9204 29.1775 11.5636 28.3842 11.5636Z" fill="#345F41"/>
<path d="M28.3791 7.11914H20.9492V11.5636H28.3791C29.1725 11.5636 29.8158 10.9204 29.8158 10.127V8.55577C29.8156 7.76224 29.1724 7.11914 28.3791 7.11914Z" fill="#2A4F34"/>
<path d="M27.7185 19.2305H14.1406L14.3852 21.6771H27.474L27.7185 19.2305Z" fill="#859E78"/>
<path d="M27.7157 19.2305H20.9492V21.6771H27.4711L27.7157 19.2305Z" fill="#76896B"/>
<path d="M20.9317 23.4142C22.5681 23.4142 23.8947 22.0876 23.8947 20.4512C23.8947 18.8148 22.5681 17.4883 20.9317 17.4883C19.2953 17.4883 17.9688 18.8148 17.9688 20.4512C17.9688 22.0876 19.2953 23.4142 20.9317 23.4142Z" fill="#86C867"/>
<path d="M23.8897 20.4527C23.8897 18.8238 22.5752 17.5024 20.9492 17.4902V23.4151C22.5752 23.403 23.8897 22.0815 23.8897 20.4527Z" fill="#27AE60"/>
</svg>
