<svg width="41" height="41" viewBox="0 0 41 41" fill="none" xmlns="http://www.w3.org/2000/svg">
<path d="M39.4494 15.3867C37.2393 6.7458 29.4021 0.357422 20.0723 0.357422C9.02667 0.357422 0.0722656 9.31183 0.0722656 20.3575C0.0722656 29.6872 6.46065 37.5245 15.1015 39.7346L39.4494 15.3867Z" fill="#692811"/>
<path d="M40.0737 20.3571C40.0737 18.6411 39.8573 16.9757 39.4507 15.3863L33.1171 9.05273L5.29102 29.9224L15.1028 39.7342C16.6921 40.1408 18.3576 40.3572 20.0736 40.3572C31.1193 40.3572 40.0737 31.4028 40.0737 20.3571Z" fill="#3A160A"/>
<path d="M33.1167 9.05273H20.0731L18.334 27.3137H33.1167V9.05273Z" fill="#FFD23E"/>
<path d="M7.0293 9.05273V14.7049C8.47008 14.7049 9.63798 15.8729 9.63798 17.3136C9.63798 18.7543 8.47008 19.9223 7.0293 19.9223V27.3137H20.0729V9.05273H7.0293Z" fill="#FFE376"/>
<path d="M10.5067 22.0977H8.76758V23.8368H10.5067V22.0977Z" fill="#FFD23E"/>
<path d="M31.3817 14.2695H29.6426V16.0087H31.3817V14.2695Z" fill="#FFC207"/>
<path d="M28.7708 23.8345C30.2115 23.8345 31.3795 22.6666 31.3795 21.2259C31.3795 19.7851 30.2115 18.6172 28.7708 18.6172C27.3301 18.6172 26.1621 19.7851 26.1621 21.2259C26.1621 22.6666 27.3301 23.8345 28.7708 23.8345Z" fill="#FFC207"/>
<path d="M24.4231 16.0084C25.8639 16.0084 27.0318 14.8404 27.0318 13.3997C27.0318 11.959 25.8639 10.791 24.4231 10.791C22.9824 10.791 21.8145 11.959 21.8145 13.3997C21.8145 14.8404 22.9824 16.0084 24.4231 16.0084Z" fill="#FFC207"/>
<path d="M15.0714 19.2698C16.8723 19.2698 18.3323 17.8098 18.3323 16.0089C18.3323 14.208 16.8723 12.748 15.0714 12.748C13.2705 12.748 11.8105 14.208 11.8105 16.0089C11.8105 17.8098 13.2705 19.2698 15.0714 19.2698Z" fill="#FFD23E"/>
<path d="M23.9862 25.5752C23.9862 23.4141 22.2343 21.6621 20.0731 21.6621L18.334 27.3143H23.5785C23.839 26.7903 23.9862 26.2001 23.9862 25.5752Z" fill="#FFC207"/>
<path d="M16.1582 25.5752C16.1582 26.2001 16.3054 26.7903 16.5659 27.3143H20.0713V21.6621C17.9102 21.6621 16.1582 23.4141 16.1582 25.5752Z" fill="#FFD23E"/>
<path d="M20.0731 25.5742L18.334 28.6177L34.8558 28.1829V25.5742H20.0731Z" fill="#B78456"/>
<path d="M5.28711 25.5762V27.3152L20.0697 28.6196V25.5762H5.28711Z" fill="#C9A06C"/>
<path d="M20.0707 27.75L19.2012 28.6195L20.0707 29.9239H34.8533V28.1848C25.5055 28.1848 23.8751 27.9673 20.0707 27.75Z" fill="#C9A06C"/>
<path d="M5.29102 29.9231H20.0736V27.7492C16.2693 27.5318 12.0301 27.3145 5.29102 27.3145V29.9231Z" fill="#DBBC82"/>
</svg>
