<svg width="13" height="15" viewBox="0 0 13 15" fill="none" xmlns="http://www.w3.org/2000/svg">
<path d="M6.86523 3.23397C6.86523 3.06158 6.9284 2.89626 7.04084 2.77436C7.15329 2.65246 7.30579 2.58398 7.4648 2.58398H12.2614C12.4204 2.58398 12.5729 2.65246 12.6853 2.77436C12.7978 2.89626 12.8609 3.06158 12.8609 3.23397C12.8609 3.40635 12.7978 3.57168 12.6853 3.69358C12.5729 3.81547 12.4204 3.88395 12.2614 3.88395H7.4648C7.30579 3.88395 7.15329 3.81547 7.04084 3.69358C6.9284 3.57168 6.86523 3.40635 6.86523 3.23397Z" fill="white"/>
<path d="M6.86523 7.7828C6.86523 7.61041 6.9284 7.44508 7.04084 7.32319C7.15329 7.20129 7.30579 7.13281 7.4648 7.13281H12.2614C12.4204 7.13281 12.5729 7.20129 12.6853 7.32319C12.7978 7.44508 12.8609 7.61041 12.8609 7.7828C12.8609 7.95518 12.7978 8.12051 12.6853 8.2424C12.5729 8.3643 12.4204 8.43278 12.2614 8.43278H7.4648C7.30579 8.43278 7.15329 8.3643 7.04084 8.2424C6.9284 8.12051 6.86523 7.95518 6.86523 7.7828Z" fill="white"/>
<path d="M6.86523 12.3336C6.86523 12.1612 6.9284 11.9959 7.04084 11.874C7.15329 11.7521 7.30579 11.6836 7.4648 11.6836H12.2614C12.4204 11.6836 12.5729 11.7521 12.6853 11.874C12.7978 11.9959 12.8609 12.1612 12.8609 12.3336C12.8609 12.506 12.7978 12.6713 12.6853 12.7932C12.5729 12.9151 12.4204 12.9836 12.2614 12.9836H7.4648C7.30579 12.9836 7.15329 12.9151 7.04084 12.7932C6.9284 12.6713 6.86523 12.506 6.86523 12.3336Z" fill="white"/>
<path d="M3.26107 14.2851C3.36407 14.2803 3.46441 14.2482 3.55327 14.1915C3.64213 14.1348 3.7168 14.0554 3.7707 13.9601L5.59939 10.7102C5.64453 10.6088 5.66797 10.4977 5.66797 10.3852C5.66797 10.2726 5.64453 10.1616 5.59939 10.0602C5.55001 9.96065 5.47638 9.87771 5.38652 9.8204C5.29665 9.7631 5.194 9.73363 5.08975 9.73521L1.46236 9.73521C1.35936 9.74 1.25902 9.77214 1.17016 9.82881C1.0813 9.88548 1.00664 9.96493 0.95273 10.0602C0.89344 10.1564 0.861794 10.2695 0.861794 10.3852C0.861794 10.5009 0.89344 10.614 0.95273 10.7102L2.75144 13.9601C2.80081 14.0597 2.87444 14.1426 2.96431 14.1999C3.05417 14.2572 3.15682 14.2867 3.26107 14.2851Z" fill="white"/>
<path d="M3.25989 5.18408C3.61564 5.18408 3.9634 5.29844 4.25919 5.51271C4.55499 5.72697 4.78553 6.03151 4.92167 6.38782C5.05781 6.74412 5.09343 7.13619 5.02403 7.51445C4.95463 7.8927 4.78332 8.24015 4.53176 8.51286C4.28021 8.78556 3.95971 8.97128 3.6108 9.04652C3.26188 9.12175 2.90022 9.08314 2.57155 8.93555C2.24288 8.78796 1.96196 8.53803 1.76432 8.21737C1.56667 7.8967 1.46118 7.5197 1.46118 7.13403C1.46118 6.61687 1.65069 6.12089 1.98801 5.75521C2.32533 5.38952 2.78284 5.18408 3.25989 5.18408Z" fill="white"/>
<path d="M2.06075 0.6333L4.45903 0.6333C4.61804 0.6333 4.77054 0.70178 4.88298 0.823676C4.99543 0.945571 5.05859 1.1109 5.05859 1.28328L5.05859 3.88322C5.05859 4.05561 4.99543 4.22093 4.88298 4.34283C4.77054 4.46472 4.61804 4.5332 4.45902 4.5332L2.06075 4.5332C1.90173 4.5332 1.74923 4.46472 1.63679 4.34283C1.52435 4.22093 1.46118 4.05561 1.46118 3.88322L1.46118 1.28328C1.46118 1.1109 1.52435 0.945571 1.63679 0.823675C1.74923 0.70178 1.90173 0.6333 2.06075 0.6333Z" fill="white"/>
</svg>
