<svg width="12" height="12" viewBox="0 0 12 12" fill="none" xmlns="http://www.w3.org/2000/svg">
<path d="M9.60569 1.03369C10.2193 1.03369 10.7168 1.52098 10.7168 2.12208L10.7168 3.98001C10.7168 4.5811 10.2193 5.06839 9.60569 5.06839H7.93902C7.32537 5.06839 6.82791 4.5811 6.82791 3.98001L6.82791 2.12208C6.82791 1.52098 7.32537 1.03369 7.93902 1.03369L9.60569 1.03369Z" fill="white"/>
<path d="M1.82791 1.03369C1.21426 1.03369 0.716796 1.52098 0.716796 2.12208L0.716802 3.98001C0.716802 4.5811 1.21426 5.06839 1.82791 5.06839H3.49458C4.10823 5.06839 4.60569 4.5811 4.60569 3.98001L4.60568 2.12208C4.60568 1.52098 4.10822 1.03369 3.49457 1.03369L1.82791 1.03369Z" fill="white"/>
<path d="M9.60569 6.93055C10.2193 6.93055 10.7168 7.41784 10.7168 8.01893V9.87684C10.7168 10.4779 10.2193 10.9652 9.60569 10.9652H7.93902C7.32537 10.9652 6.82791 10.4779 6.82791 9.87684L6.82791 8.01893C6.82791 7.41784 7.32537 6.93055 7.93902 6.93055H9.60569Z" fill="white"/>
<path d="M1.82791 6.93055C1.21426 6.93055 0.716801 7.41784 0.716801 8.01893L0.716803 9.87684C0.716803 10.4779 1.21426 10.9652 1.82791 10.9652H3.49458C4.10823 10.9652 4.60569 10.4779 4.60569 9.87684L4.60569 8.01893C4.60569 7.41784 4.10823 6.93055 3.49458 6.93055H1.82791Z" fill="white"/>
<path d="M9.60569 1.03369C10.2193 1.03369 10.7168 1.52098 10.7168 2.12208L10.7168 3.98001C10.7168 4.5811 10.2193 5.06839 9.60569 5.06839H7.93902C7.32537 5.06839 6.82791 4.5811 6.82791 3.98001L6.82791 2.12208C6.82791 1.52098 7.32537 1.03369 7.93902 1.03369L9.60569 1.03369Z" stroke="black" stroke-linecap="round" stroke-linejoin="round"/>
<path d="M1.82791 1.03369C1.21426 1.03369 0.716796 1.52098 0.716796 2.12208L0.716802 3.98001C0.716802 4.5811 1.21426 5.06839 1.82791 5.06839H3.49458C4.10823 5.06839 4.60569 4.5811 4.60569 3.98001L4.60568 2.12208C4.60568 1.52098 4.10822 1.03369 3.49457 1.03369L1.82791 1.03369Z" stroke="black" stroke-linecap="round" stroke-linejoin="round"/>
<path d="M9.60569 6.93055C10.2193 6.93055 10.7168 7.41784 10.7168 8.01893V9.87684C10.7168 10.4779 10.2193 10.9652 9.60569 10.9652H7.93902C7.32537 10.9652 6.82791 10.4779 6.82791 9.87684L6.82791 8.01893C6.82791 7.41784 7.32537 6.93055 7.93902 6.93055H9.60569Z" stroke="black" stroke-linecap="round" stroke-linejoin="round"/>
<path d="M1.82791 6.93055C1.21426 6.93055 0.716801 7.41784 0.716801 8.01893L0.716803 9.87684C0.716803 10.4779 1.21426 10.9652 1.82791 10.9652H3.49458C4.10823 10.9652 4.60569 10.4779 4.60569 9.87684L4.60569 8.01893C4.60569 7.41784 4.10823 6.93055 3.49458 6.93055H1.82791Z" stroke="black" stroke-linecap="round" stroke-linejoin="round"/>
</svg>
