<svg width="11" height="12" viewBox="0 0 11 12" fill="none" xmlns="http://www.w3.org/2000/svg">
<path d="M9.97141 8.54596C10.2527 7.88099 10.4089 7.14531 10.4089 6.37149C10.4089 3.39856 8.10324 0.988525 5.25912 0.988525C2.41499 0.988525 0.109375 3.39856 0.109375 6.37149C0.109375 9.34442 2.41499 11.7545 5.25912 11.7545C6.17481 11.7545 7.03468 11.5046 7.77975 11.0667L10.4098 11.7539L9.97141 8.54596Z" fill="#66BD46"/>
<path d="M5.3862 4.30479L3.79491 8.88419H3.14453L4.97682 3.85962H5.3961L5.3862 4.30479ZM6.71998 8.88419L5.12539 4.30479L5.11548 3.85962H5.53476L7.37366 8.88419H6.71998ZM6.63744 7.02413V7.56938H3.93687V7.02413H6.63744Z" fill="white"/>
</svg>
