<svg width="16" height="15" viewBox="0 0 16 15" fill="none" xmlns="http://www.w3.org/2000/svg">
<path d="M8.25383 14.9999C4.12887 14.9999 0.753906 11.6249 0.753906 7.49993C0.753906 3.37497 4.12887 0 8.25383 0C12.3788 0 15.7538 3.37497 15.7538 7.49993C15.7538 11.6249 12.3788 14.9999 8.25383 14.9999ZM8.25383 0.500005C4.40388 0.500005 1.25391 3.64997 1.25391 7.49993C1.25391 11.3499 4.40388 14.4999 8.25383 14.4999C12.1038 14.4999 15.2538 11.3499 15.2538 7.49993C15.2538 3.64997 12.1038 0.500005 8.25383 0.500005Z" fill="#FFE600"/>
<path d="M8.2539 13.7499C4.80393 13.7499 2.00397 10.9499 2.00397 7.49993C2.00397 4.04996 4.80393 1.25 8.2539 1.25C11.7039 1.25 14.5038 4.04996 14.5038 7.49993C14.5038 10.9499 11.7039 13.7499 8.2539 13.7499ZM8.2539 1.74998C5.07894 1.74998 2.50394 4.32497 2.50394 7.49993C2.50394 10.6749 5.07894 13.2499 8.2539 13.2499C11.4289 13.2499 14.0039 10.6749 14.0039 7.49993C14.0039 4.32497 11.4289 1.74998 8.2539 1.74998Z" fill="#FFE600"/>
<path d="M8.25524 1.74997C8.10524 1.74997 8.00525 1.64998 8.00525 1.49999V0.249988C8.00525 0.0999893 8.10524 0 8.25524 0C8.40524 0 8.50522 0.0999893 8.50522 0.249988V1.49999C8.50522 1.64998 8.40524 1.74997 8.25524 1.74997Z" fill="#FFE600"/>
<path d="M8.25524 15C8.10524 15 8.00525 14.9 8.00525 14.75V13.5C8.00525 13.35 8.10524 13.25 8.25524 13.25C8.40524 13.25 8.50522 13.35 8.50522 13.5V14.75C8.50522 14.9 8.40524 15 8.25524 15Z" fill="#FFE600"/>
<path d="M15.5041 7.75144H14.2541C14.1041 7.75144 14.0041 7.65145 14.0041 7.50145C14.0041 7.35145 14.1041 7.25146 14.2541 7.25146H15.5041C15.6541 7.25146 15.7541 7.35145 15.7541 7.50145C15.7541 7.65145 15.6541 7.75144 15.5041 7.75144Z" fill="#FFE600"/>
<path d="M2.25389 7.75144H1.00389C0.853896 7.75144 0.753906 7.65145 0.753906 7.50145C0.753906 7.35145 0.853896 7.25146 1.00389 7.25146H2.25389C2.40389 7.25146 2.50388 7.35145 2.50388 7.50145C2.50388 7.65145 2.40389 7.75144 2.25389 7.75144Z" fill="#FFE600"/>
<path d="M4.00498 3.50098C3.92998 3.50098 3.87997 3.47599 3.82999 3.42598L3.08 2.67599C2.98001 2.576 2.98001 2.426 3.08 2.32598C3.17999 2.22596 3.32998 2.22599 3.43 2.32598L4.18 3.07597C4.27999 3.17596 4.27999 3.32596 4.18 3.42598C4.12999 3.47596 4.07998 3.50098 4.00498 3.50098Z" fill="#FFE600"/>
<path d="M13.2535 12.7495C13.1785 12.7495 13.1284 12.7245 13.0785 12.6745L12.3285 11.9245C12.2285 11.8245 12.2285 11.6745 12.3285 11.5745C12.4285 11.4745 12.5785 11.4745 12.6785 11.5745L13.4285 12.3245C13.5285 12.4245 13.5285 12.5745 13.4285 12.6745C13.3784 12.7245 13.3285 12.7495 13.2535 12.7495Z" fill="#FFE600"/>
<path d="M12.5035 3.50097C12.4285 3.50097 12.3785 3.47598 12.3285 3.42597C12.2285 3.32598 12.2285 3.17598 12.3285 3.07596L13.0785 2.32597C13.1785 2.22598 13.3285 2.22598 13.4285 2.32597C13.5285 2.42596 13.5285 2.57596 13.4285 2.67597L12.6785 3.42597C12.6284 3.47595 12.5785 3.50097 12.5035 3.50097Z" fill="#FFE600"/>
<path d="M3.25499 12.7495C3.17999 12.7495 3.12998 12.7245 3.08 12.6745C2.98001 12.5745 2.98001 12.4245 3.08 12.3245L3.82999 11.5745C3.92998 11.4745 4.07998 11.4745 4.18 11.5745C4.27999 11.6745 4.27999 11.8245 4.18 11.9245L3.43 12.6745C3.37999 12.7245 3.32998 12.7495 3.25499 12.7495Z" fill="#FFE600"/>
<path d="M6.24962 8.11334C7.82329 9.06727 9.68384 7.58221 9.68384 7.58221C7.95929 10.7051 6.24962 8.11334 6.24962 8.11334ZM11.5553 6.6653L10.5316 6.47341C9.83274 6.34252 9.24344 5.87583 8.95425 5.22754L8.53304 4.27498C8.4652 4.12558 8.25675 4.11667 8.17866 4.26127L7.68002 5.17477C7.33855 5.79771 6.71319 6.21437 6.00543 6.2877L4.96911 6.39529C4.80731 6.41174 4.73353 6.60841 4.84669 6.72766L5.56172 7.48284C6.0501 7.99958 6.25293 8.72325 6.10437 9.41814L5.88598 10.4358C5.8519 10.5962 6.01635 10.7257 6.16392 10.6558L7.10462 10.2096C7.74785 9.9047 8.49829 9.93554 9.11472 10.2919L10.0151 10.8134C10.157 10.8957 10.3304 10.7798 10.3105 10.6181L10.1762 9.58536C10.0849 8.88085 10.3463 8.17637 10.8757 7.70146L11.6513 7.00658C11.772 6.89693 11.7164 6.69613 11.5553 6.6653Z" fill="#FFE600"/>
</svg>
