<svg width="11" height="8" viewBox="0 0 11 8" fill="none" xmlns="http://www.w3.org/2000/svg">
<path d="M10.5144 2.20312V6.25888C10.5144 7.19218 8.24461 7.94877 5.4447 7.94877C2.64478 7.94877 0.375 7.19218 0.375 6.25888V2.20312" fill="#FFDB2D"/>
<path d="M5.44531 2.20312V7.94877C8.24523 7.94877 10.515 7.19218 10.515 6.25888V2.20312H5.44531Z" fill="#FFAF33"/>
<path d="M5.4447 3.89346C8.24461 3.89346 10.5144 3.13687 10.5144 2.20356C10.5144 1.27026 8.24461 0.513672 5.4447 0.513672C2.64478 0.513672 0.375 1.27026 0.375 2.20356C0.375 3.13687 2.64478 3.89346 5.4447 3.89346Z" fill="#FFEA8A"/>
<path d="M5.44531 0.513672V3.89348C8.24523 3.89348 10.515 3.13688 10.515 2.20358C10.515 1.27028 8.24523 0.513672 5.44531 0.513672Z" fill="#FFDB2D"/>
<path d="M5.4447 5.4145C2.64478 5.4145 0.375 4.65791 0.375 3.72461V5.34198C0.673775 5.53659 1.05497 5.72001 1.53925 5.88147C2.59747 6.23419 3.98443 6.42846 5.4447 6.42846C6.90497 6.42846 8.29194 6.23419 9.35014 5.88147C9.83444 5.72005 10.2156 5.53659 10.5144 5.34198V3.72461C10.5144 4.65791 8.24461 5.4145 5.4447 5.4145Z" fill="#FFAF33"/>
<path d="M5.44531 5.4145V6.42844C6.90558 6.42844 8.29256 6.23417 9.35076 5.88145C9.83506 5.72003 10.2163 5.53657 10.515 5.34196V3.72461C10.515 4.65791 8.24523 5.4145 5.44531 5.4145Z" fill="#FF9408"/>
</svg>
