<svg width="13" height="12" viewBox="0 0 13 12" fill="none" xmlns="http://www.w3.org/2000/svg">
<path fill-rule="evenodd" clip-rule="evenodd" d="M6.51935 11.5348C5.7363 11.5348 4.99595 11.3844 4.29886 11.0835C3.60177 10.7827 2.99293 10.3721 2.47233 9.85152C1.95174 9.33092 1.54116 8.72208 1.24032 8.02499C0.939482 7.3279 0.789062 6.58755 0.789062 5.8045C0.789062 5.01172 0.939482 4.26678 1.24032 3.56969C1.54116 2.8726 1.95174 2.26605 2.47233 1.75033C2.99293 1.2346 3.60177 0.826319 4.29886 0.525479C4.99595 0.224639 5.7363 0.0742188 6.51935 0.0742188C7.31213 0.0742188 8.05707 0.224639 8.75416 0.525479C9.45125 0.826319 10.0578 1.2346 10.5735 1.75033C11.0893 2.26605 11.4975 2.8726 11.7984 3.56969C12.0992 4.26678 12.2496 5.01172 12.2496 5.8045C12.2496 6.58755 12.0992 7.3279 11.7984 8.02499C11.4975 8.72208 11.0893 9.33092 10.5735 9.85152C10.0578 10.3721 9.45125 10.7827 8.75416 11.0835C8.05707 11.3844 7.31213 11.5348 6.51935 11.5348ZM6.51935 10.6752C7.87542 10.6752 9.02635 10.2002 9.97185 9.24984C10.9173 8.29947 11.3901 7.15112 11.3901 5.8045C11.3901 4.44843 10.9173 3.2975 9.97185 2.35201C9.02635 1.40651 7.87542 0.933762 6.51935 0.933762C5.17273 0.933762 4.02438 1.40651 3.07401 2.35201C2.12365 3.2975 1.64861 4.44843 1.64861 5.8045C1.64861 7.15112 2.12365 8.29947 3.07401 9.24984C4.02438 10.2002 5.17273 10.6752 6.51935 10.6752Z" fill="#FF0000"/>
<path d="M8.57539 8.02028H7.68836L6.5019 6.41463L5.30795 8.02028H4.48828L6.12013 5.93555L4.50325 3.8396H5.39029L6.56927 5.41905L7.75198 3.8396H8.57539L6.93231 5.89813L8.57539 8.02028Z" fill="#FF0000"/>
</svg>
