<svg width="16" height="17" viewBox="0 0 16 17" fill="none" xmlns="http://www.w3.org/2000/svg">
<path fill-rule="evenodd" clip-rule="evenodd" d="M2.01562 5.11133H13.6823V14.778C13.6823 15.8826 12.7869 16.778 11.6823 16.778H4.01563C2.91106 16.778 2.01562 15.8826 2.01562 14.778V5.11133ZM6.18229 6.86133C6.59651 6.86133 6.93229 7.19711 6.93229 7.61133V12.6113C6.93229 13.0255 6.59651 13.3613 6.18229 13.3613C5.76808 13.3613 5.43229 13.0255 5.43229 12.6113V7.61133C5.43229 7.19711 5.76808 6.86133 6.18229 6.86133ZM10.2656 7.61133C10.2656 7.19711 9.92984 6.86133 9.51562 6.86133C9.10141 6.86133 8.76562 7.19711 8.76562 7.61133V12.6113C8.76562 13.0255 9.10141 13.3613 9.51562 13.3613C9.92984 13.3613 10.2656 13.0255 10.2656 12.6113V7.61133Z" fill="white"/>
<path d="M5.34375 1.11133C5.34375 0.559043 5.79147 0.111328 6.34375 0.111328H9.34375C9.89604 0.111328 10.3438 0.559043 10.3438 1.11133V1.77799H5.34375V1.11133Z" fill="white"/>
<path d="M0.34375 3.44466C0.34375 2.98442 0.716846 2.61133 1.17708 2.61133H14.5104C14.9707 2.61133 15.3438 2.98442 15.3438 3.44466C15.3438 3.9049 14.9707 4.27799 14.5104 4.27799H1.17708C0.716846 4.27799 0.34375 3.9049 0.34375 3.44466Z" fill="white"/>
</svg>
