<svg width="20" height="24" viewBox="0 0 20 24" fill="none" xmlns="http://www.w3.org/2000/svg">
<path d="M0.951341 5.63191H5.11094V4.78471C5.13612 3.53828 5.64954 2.35138 6.54099 1.47879C7.43244 0.606185 8.63087 0.117432 9.87905 0.117432C11.1272 0.117432 12.3257 0.606185 13.2171 1.47879C14.1086 2.35138 14.622 3.53828 14.6472 4.78471V5.63191H18.8398C18.9598 5.63183 19.0787 5.65542 19.1896 5.70133C19.3005 5.74724 19.4013 5.81457 19.4861 5.89945C19.6562 6.07078 19.7524 6.30182 19.754 6.5431V20.5734C19.7514 21.4405 19.4054 22.2714 18.7915 22.8846C18.1776 23.4978 17.3457 23.8434 16.4775 23.8459H3.3155C2.44732 23.8434 1.61543 23.4978 1.00154 22.8846C0.38764 22.2714 0.0416228 21.4405 0.0390625 20.5734L0.0390625 6.5431C0.0395753 6.30159 0.135855 6.07013 0.306829 5.89936C0.477803 5.72859 0.709547 5.63243 0.951341 5.63191ZM3.99291 12.4057H5.81941C5.88224 12.4067 5.94217 12.4322 5.98642 12.4768C6.03067 12.5213 6.05572 12.5814 6.05622 12.6442V14.4685C6.05622 14.5317 6.03106 14.5924 5.98629 14.6371C5.94152 14.6818 5.88079 14.7069 5.81747 14.7069H3.99291C3.9296 14.7069 3.86887 14.6818 3.8241 14.6371C3.77932 14.5924 3.75417 14.5317 3.75417 14.4685V12.6442C3.75468 12.5811 3.77999 12.5207 3.82466 12.4761C3.86932 12.4315 3.92975 12.4062 3.99291 12.4057ZM8.65136 14.2824C8.31362 14.2824 8.04188 13.9586 8.04188 13.5573C8.04188 13.156 8.31362 12.8303 8.65136 12.8303H15.8331C16.1709 12.8303 16.4445 13.156 16.4445 13.5573C16.4586 13.7342 16.4023 13.9094 16.2878 14.0452C16.1734 14.1809 16.01 14.2661 15.8331 14.2824H8.65136ZM3.66294 18.8674C3.62819 18.8261 3.60244 18.778 3.58734 18.7262C3.57224 18.6745 3.56812 18.6201 3.57525 18.5667C3.58237 18.5132 3.60058 18.4618 3.62872 18.4158C3.65685 18.3697 3.69429 18.3301 3.73864 18.2993C3.81918 18.2209 3.9262 18.1754 4.03864 18.1718C4.15108 18.1682 4.26079 18.2068 4.34618 18.2799L4.77126 18.7161L5.83494 17.6285C5.8753 17.5927 5.92271 17.5657 5.97413 17.5492C6.02555 17.5327 6.07985 17.5271 6.13356 17.5327C6.18726 17.5384 6.2392 17.5552 6.28604 17.582C6.33289 17.6089 6.3736 17.6452 6.4056 17.6886C6.48653 17.7668 6.53536 17.8723 6.54254 17.9845C6.54971 18.0968 6.51473 18.2076 6.44442 18.2954L5.03524 19.7398C4.99488 19.7756 4.94747 19.8026 4.89605 19.8191C4.84463 19.8356 4.79033 19.8412 4.73663 19.8356C4.68292 19.8299 4.63098 19.8131 4.58414 19.7863C4.5373 19.7594 4.49657 19.7231 4.46458 19.6797L4.43158 19.6409C4.40856 19.6256 4.3871 19.6081 4.36753 19.5886L3.66294 18.8674ZM8.60089 19.4102C8.26509 19.4102 7.99723 19.0845 7.99723 18.6851C7.99723 18.2858 8.27092 17.9581 8.60671 17.9581H15.7885C16.1243 17.9581 16.398 18.2838 16.398 18.6851C16.398 19.0864 16.1243 19.4102 15.7885 19.4102H8.60089ZM6.27167 5.63191H13.4845V4.78471C13.4626 3.8441 13.0732 2.94936 12.3994 2.29183C11.7256 1.6343 10.821 1.26618 9.87905 1.26618C8.93706 1.26618 8.03245 1.6343 7.35868 2.29183C6.68491 2.94936 6.29546 3.8441 6.27361 4.78471V5.63191H6.27167ZM5.10706 7.88273V6.79125H1.20367V20.5734C1.20572 21.1327 1.42908 21.6685 1.82504 22.064C2.22101 22.4595 2.75746 22.6826 3.31744 22.6846H16.4775C17.0364 22.6791 17.5708 22.4549 17.966 22.0601C18.3613 21.6654 18.5857 21.1316 18.5913 20.5734V6.79125H14.6472V7.89437C14.9147 8.03035 15.1282 8.25286 15.2528 8.52561C15.3774 8.79835 15.4058 9.10523 15.3334 9.39618C15.261 9.68712 15.092 9.94497 14.8539 10.1276C14.6159 10.3103 14.323 10.4071 14.0228 10.4021C13.7227 10.3971 13.4331 10.2906 13.2014 10.1001C12.9696 9.90964 12.8093 9.64631 12.7466 9.35312C12.6839 9.05992 12.7225 8.75416 12.8562 8.48571C12.9899 8.21727 13.2106 8.00198 13.4825 7.87498V6.79125H6.27361V7.88661C6.54337 8.01811 6.76056 8.23703 6.88973 8.50766C7.01891 8.7783 7.05246 9.08467 6.9849 9.37679C6.91733 9.66891 6.75266 9.92954 6.51772 10.1162C6.28279 10.3028 5.99148 10.4044 5.69131 10.4044C5.39113 10.4044 5.09982 10.3028 4.86488 10.1162C4.62995 9.92954 4.46528 9.66891 4.39771 9.37679C4.33015 9.08467 4.3637 8.7783 4.49287 8.50766C4.62205 8.23703 4.83924 8.01811 5.109 7.88661L5.10706 7.88273Z" fill="white"/>
</svg>
