<svg width="15" height="10" viewBox="0 0 15 10" fill="none" xmlns="http://www.w3.org/2000/svg">
<path fill-rule="evenodd" clip-rule="evenodd" d="M0.682942 5.21635C1.61075 6.47692 3.94546 9.01867 7.68708 9.01867C11.4287 9.01867 13.7634 6.47691 14.6912 5.21635C14.9976 4.80004 14.9976 4.24867 14.6912 3.83235C13.7634 2.57179 11.4287 0.0300293 7.68708 0.0300293C3.94546 0.0300293 1.61075 2.57179 0.682941 3.83235C0.376519 4.24867 0.37652 4.80004 0.682942 5.21635ZM6.0079 4.52435C6.0079 3.59355 6.75969 2.83898 7.68708 2.83898C8.61447 2.83898 9.36626 3.59355 9.36626 4.52435C9.36626 5.45516 8.61447 6.20972 7.68708 6.20972C6.75969 6.20972 6.0079 5.45516 6.0079 4.52435ZM7.68708 1.7154C6.14143 1.7154 4.88844 2.97301 4.88844 4.52435C4.88844 6.07569 6.14143 7.3333 7.68708 7.3333C9.23272 7.3333 10.4857 6.07569 10.4857 4.52435C10.4857 2.97301 9.23272 1.7154 7.68708 1.7154Z" fill="white"/>
</svg>
