<svg width="16" height="19" viewBox="0 0 16 19" fill="none" xmlns="http://www.w3.org/2000/svg">
<path d="M3.65542 14.7334C2.11337 15.0808 1.12598 15.6145 1.12598 16.213C1.12598 17.2598 4.1459 18.1084 7.87116 18.1084C11.5964 18.1084 14.6163 17.2598 14.6163 16.213C14.6163 15.6145 13.629 15.0808 12.0869 14.7334" stroke="#2A353D" stroke-linecap="round"/>
<path d="M9.97892 7.13965C9.97892 8.30462 9.0352 9.24902 7.87105 9.24902C6.70691 9.24902 5.76318 8.30462 5.76318 7.13965C5.76318 5.97467 6.70691 5.03027 7.87105 5.03027C9.0352 5.03027 9.97892 5.97467 9.97892 7.13965Z" stroke="#2A353D"/>
<path d="M8.93145 14.3061C8.64707 14.5802 8.26698 14.7334 7.8714 14.7334C7.47583 14.7334 7.09573 14.5802 6.81135 14.3061C4.20721 11.7809 0.717324 8.96007 2.41923 4.86467C3.33944 2.65033 5.54835 1.2334 7.8714 1.2334C10.1945 1.2334 12.4034 2.65033 13.3236 4.86467C15.0233 8.95491 11.542 11.7896 8.93145 14.3061Z" stroke="#2A353D"/>
</svg>
