<svg width="17" height="20" viewBox="0 0 17 20" fill="none" xmlns="http://www.w3.org/2000/svg">
<path d="M13.7017 0.898926V3.39893H16.2V5.06559H13.7017V7.56559H12.0363V5.06559H9.53806V3.39893H12.0363V0.898926H13.7017ZM7.03984 10.8989C6.12383 10.8989 5.37436 10.1489 5.37436 9.23226C5.37436 8.31559 6.12383 7.56559 7.03984 7.56559C7.95585 7.56559 8.70532 8.31559 8.70532 9.23226C8.70532 10.1489 7.95585 10.8989 7.03984 10.8989ZM7.87258 2.61559V4.29893C7.59712 4.25537 7.31872 4.23308 7.03984 4.23226C4.25016 4.23226 2.04341 6.37393 2.04341 9.39892C2.04341 11.3489 3.66725 13.9323 7.03984 17.0156C10.4124 13.9323 12.0363 11.3573 12.0363 9.39892V9.23226H13.7017V9.39892C13.7017 12.1656 11.4783 15.4406 7.03984 19.2323C2.60134 15.4406 0.37793 12.1656 0.37793 9.39892C0.37793 5.24893 3.54234 2.56559 7.03984 2.56559C7.32297 2.56559 7.59777 2.58226 7.87258 2.61559Z" fill="white"/>
</svg>
