<svg width="21" height="13" viewBox="0 0 21 13" fill="none" xmlns="http://www.w3.org/2000/svg">
<path fill-rule="evenodd" clip-rule="evenodd" d="M0.435316 5.42085C1.23613 4.32847 2.8229 2.50659 5.19564 1.30024L7.29809 3.4027C6.54885 4.15716 6.08594 5.19633 6.08594 6.34362C6.08594 8.64868 7.95456 10.5173 10.2596 10.5173C11.4069 10.5173 12.4461 10.0544 13.2006 9.30515L15.2961 11.4007C13.891 12.1111 12.2115 12.6051 10.2576 12.6051C4.98605 12.6051 1.71195 9.00965 0.435316 7.2682C0.0267698 6.71091 0.0267694 5.97814 0.435316 5.42085ZM14.0688 8.05206L16.6308 10.6141C18.2872 9.49267 19.4369 8.14529 20.0799 7.2682C20.4884 6.71091 20.4884 5.97814 20.0799 5.42085C18.8032 3.6794 15.5291 0.0839844 10.2576 0.0839844C8.94316 0.0839844 7.7529 0.307525 6.68684 0.670124L8.55119 2.53447C9.07265 2.30023 9.65092 2.16992 10.2596 2.16992C12.5647 2.16992 14.4333 4.03855 14.4333 6.34362C14.4333 6.95232 14.303 7.53059 14.0688 8.05206Z" fill="#909090"/>
</svg>
