<svg width="34" height="35" viewBox="0 0 34 35" fill="none" xmlns="http://www.w3.org/2000/svg">
<path d="M20.8972 12.1479L13.4297 22.3053M22.1418 21.0356C22.1418 21.7369 21.5845 22.3053 20.8972 22.3053C20.2098 22.3053 19.6526 21.7369 19.6526 21.0356C19.6526 20.3344 20.2098 19.766 20.8972 19.766C21.5845 19.766 22.1418 20.3344 22.1418 21.0356ZM14.6743 13.4175C14.6743 14.1187 14.1171 14.6872 13.4297 14.6872C12.7424 14.6872 12.1852 14.1187 12.1852 13.4175C12.1852 12.7163 12.7424 12.1479 13.4297 12.1479C14.1171 12.1479 14.6743 12.7163 14.6743 13.4175ZM33.3429 17.2266C33.3429 19.2581 30.6049 20.7817 29.8581 22.5593C29.1114 24.4638 29.9826 27.511 28.6135 28.9077C27.2445 30.3043 24.2575 29.4156 22.3907 30.1774C20.6483 30.9392 19.1548 33.7325 17.1635 33.7325C15.1721 33.7325 13.6787 30.9392 11.9363 30.1774C10.0694 29.4156 7.08242 30.3043 5.71339 28.9077C4.34436 27.511 5.21556 24.4638 4.46881 22.5593C3.72207 20.7817 0.984009 19.2581 0.984009 17.2266C0.984009 15.1951 3.72207 13.6715 4.46881 11.8939C5.21556 9.9894 4.34436 6.94215 5.71339 5.5455C7.08242 4.14885 10.0694 5.03763 11.9363 4.27582C13.6787 3.51401 15.1721 0.720703 17.1635 0.720703C19.1548 0.720703 20.6483 3.51401 22.3907 4.27582C24.2575 5.03763 27.2445 4.14885 28.6135 5.5455C29.9826 6.94215 29.1114 9.9894 29.8581 11.8939C30.6049 13.6715 33.3429 15.1951 33.3429 17.2266Z" stroke="#601AB9" stroke-linecap="round" stroke-linejoin="round"/>
</svg>
