<svg width="11" height="12" viewBox="0 0 11 12" fill="none" xmlns="http://www.w3.org/2000/svg">
<path d="M0.548123 8.07697C0.266875 7.412 0.11067 6.67631 0.11067 5.9025C0.11067 2.92957 2.41629 0.519531 5.26041 0.519531C8.10454 0.519531 10.4102 2.92957 10.4102 5.9025C10.4102 8.87543 8.10454 11.2855 5.26041 11.2855C4.34472 11.2855 3.48485 11.0356 2.73978 10.5977L0.109694 11.285L0.548123 8.07697Z" fill="#530CAD"/>
<path d="M5.94354 7.37494L7.10651 8.33759L6.6979 8.73185L5.55379 7.78234L5.94354 7.37494ZM7.09079 5.38064V5.68291C7.09079 6.04212 7.04783 6.3641 6.96192 6.64884C6.87601 6.93359 6.75238 7.17562 6.59103 7.37494C6.42968 7.57426 6.23585 7.72649 6.00954 7.83163C5.78533 7.93676 5.53388 7.98933 5.25519 7.98933C4.98488 7.98933 4.73657 7.93676 4.51026 7.83163C4.28605 7.72649 4.09117 7.57426 3.92563 7.37494C3.76219 7.17562 3.63542 6.93359 3.54531 6.64884C3.45521 6.3641 3.41016 6.04212 3.41016 5.68291V5.38064C3.41016 5.02143 3.45416 4.70054 3.54217 4.41799C3.63227 4.13325 3.75905 3.89121 3.92249 3.69189C4.08593 3.49038 4.27976 3.33706 4.50397 3.23192C4.73028 3.12679 4.97859 3.07422 5.2489 3.07422C5.52759 3.07422 5.78009 3.12679 6.0064 3.23192C6.23271 3.33706 6.42654 3.49038 6.58788 3.69189C6.74923 3.89121 6.87286 4.13325 6.95878 4.41799C7.04679 4.70054 7.09079 5.02143 7.09079 5.38064ZM6.49045 5.68291V5.37407C6.49045 5.08933 6.46216 4.83744 6.40558 4.6184C6.3511 4.39937 6.27043 4.21538 6.16356 4.06644C6.05669 3.9175 5.92677 3.8047 5.77381 3.72803C5.62084 3.65137 5.44587 3.61304 5.2489 3.61304C5.06241 3.61304 4.89268 3.65137 4.73971 3.72803C4.58884 3.8047 4.45892 3.9175 4.34996 4.06644C4.241 4.21538 4.15718 4.39937 4.09851 4.6184C4.03983 4.83744 4.0105 5.08933 4.0105 5.37407V5.68291C4.0105 5.96984 4.03983 6.22392 4.09851 6.44514C4.15718 6.66418 4.241 6.84926 4.34996 7.00039C4.46102 7.14934 4.59303 7.26214 4.746 7.3388C4.89896 7.41546 5.06869 7.45379 5.25519 7.45379C5.45216 7.45379 5.62713 7.41546 5.78009 7.3388C5.93306 7.26214 6.06193 7.14934 6.1667 7.00039C6.27357 6.84926 6.35424 6.66418 6.40873 6.44514C6.46321 6.22392 6.49045 5.96984 6.49045 5.68291Z" fill="white"/>
</svg>
