<svg width="10" height="9" viewBox="0 0 10 9" fill="none" xmlns="http://www.w3.org/2000/svg">
<path fill-rule="evenodd" clip-rule="evenodd" d="M6.25038 3.09434C6.17505 3.09504 6.10139 3.07376 6.03977 3.03349C5.97814 2.99322 5.93165 2.936 5.90685 2.86988L5.11005 0.64159C5.08471 0.575906 5.03816 0.519103 4.97677 0.478946C4.91538 0.438788 4.84214 0.417236 4.76708 0.417236C4.69201 0.417236 4.61878 0.438788 4.55739 0.478946C4.496 0.519103 4.44945 0.575906 4.4241 0.64159L3.62291 2.8658C3.59811 2.93192 3.55163 2.98914 3.49 3.02941C3.42837 3.06968 3.35471 3.09096 3.27939 3.09026H0.683748C0.609069 3.08861 0.535759 3.10907 0.474406 3.14868C0.413052 3.18829 0.366832 3.24501 0.342419 3.31064C0.31854 3.37609 0.318148 3.44698 0.341303 3.51266C0.364457 3.57834 0.409907 3.63526 0.470828 3.67488L2.57807 5.06144C2.63832 5.1004 2.68346 5.15638 2.70679 5.22107C2.73012 5.28576 2.7304 5.35572 2.70758 5.42057L1.90419 7.66111C1.88715 7.71034 1.88314 7.76266 1.89251 7.81364C1.90187 7.86462 1.92433 7.91274 1.95797 7.95393C1.99204 7.99537 2.03611 8.02878 2.08664 8.05147C2.13716 8.07415 2.19271 8.08548 2.24881 8.08452C2.32492 8.08425 2.39901 8.06177 2.46063 8.02024L4.55251 6.64389C4.61507 6.60315 4.6896 6.5813 4.76598 6.5813C4.84236 6.5813 4.91689 6.60315 4.97945 6.64389L7.07132 8.02024C7.13295 8.06177 7.20704 8.08425 7.28315 8.08452C7.33924 8.08548 7.3948 8.07415 7.44532 8.05147C7.49585 8.02878 7.53992 7.99537 7.57399 7.95393C7.60764 7.91274 7.63009 7.86462 7.63945 7.81364C7.64882 7.76266 7.64481 7.71034 7.62777 7.66111L6.82438 5.42261C6.80156 5.35776 6.80184 5.2878 6.82517 5.22311C6.8485 5.15842 6.89364 5.10244 6.95389 5.06348L9.06223 3.68202C9.12315 3.6424 9.1686 3.58548 9.19176 3.5198C9.21491 3.45412 9.21452 3.38323 9.19064 3.31778C9.16623 3.25215 9.12 3.19543 9.05865 3.15582C8.9973 3.11621 8.92399 3.09575 8.84931 3.0974L6.25038 3.09434Z" fill="#66BD46"/>
</svg>
