<svg width="11" height="14" viewBox="0 0 11 14" fill="none" xmlns="http://www.w3.org/2000/svg">
<path d="M7.02989 1.29941L6.68279 1.25447L7.02989 1.29941ZM3.91738 1.29941L4.26448 1.25447L3.91738 1.29941ZM4.26113 1.20217C4.26113 0.981243 4.44023 0.802148 4.66115 0.802148V0.102148C4.05363 0.102148 3.56113 0.594643 3.56113 1.20217H4.26113ZM4.26448 1.25447C4.26229 1.2375 4.26113 1.22006 4.26113 1.20217H3.56113C3.56113 1.25018 3.56423 1.29765 3.57028 1.34434L4.26448 1.25447ZM3.09865 1.8019H3.79666V1.1019H3.09865V1.8019ZM2.69863 2.20192C2.69863 1.981 2.87773 1.8019 3.09865 1.8019V1.1019C2.49113 1.1019 1.99863 1.5944 1.99863 2.20192H2.69863ZM3.09865 2.60194C2.87773 2.60194 2.69863 2.42285 2.69863 2.20192H1.99863C1.99863 2.80945 2.49113 3.30194 3.09865 3.30194V2.60194ZM7.84862 2.60194H3.09865V3.30194H7.84862V2.60194ZM8.24864 2.20192C8.24864 2.42285 8.06955 2.60194 7.84862 2.60194V3.30194C8.45615 3.30194 8.94864 2.80945 8.94864 2.20192H8.24864ZM7.84862 1.8019C8.06955 1.8019 8.24864 1.981 8.24864 2.20192H8.94864C8.94864 1.5944 8.45615 1.1019 7.84862 1.1019V1.8019ZM7.15061 1.8019H7.84862V1.1019H7.15061V1.8019ZM6.68614 1.20217C6.68614 1.22006 6.68498 1.2375 6.68279 1.25447L7.37699 1.34434C7.38304 1.29765 7.38614 1.25018 7.38614 1.20217H6.68614ZM6.28612 0.802148C6.50704 0.802148 6.68614 0.981242 6.68614 1.20217H7.38614C7.38614 0.594644 6.89364 0.102148 6.28612 0.102148V0.802148ZM4.66115 0.802148H6.28612V0.102148H4.66115V0.802148ZM7.15061 1.1019C7.23661 1.1019 7.3015 1.14654 7.33611 1.19192C7.36878 1.23476 7.38421 1.28862 7.37699 1.34434L6.68279 1.25447C6.65233 1.48974 6.81523 1.8019 7.15061 1.8019V1.1019ZM3.57028 1.34434C3.56306 1.28862 3.57849 1.23476 3.61116 1.19192C3.64577 1.14654 3.71066 1.1019 3.79666 1.1019V1.8019C4.13204 1.8019 4.29494 1.48974 4.26448 1.25447L3.57028 1.34434Z" fill="white"/>
<path d="M2.36361 2.35181L2.70663 2.28223L2.64054 1.95638L2.31172 2.00567L2.36361 2.35181ZM8.58366 2.35181L8.63555 2.00568L8.30674 1.95638L8.24065 2.28223L8.58366 2.35181ZM2.0206 2.42138C2.12249 2.92371 2.56601 3.30193 3.09865 3.30193V2.60193C2.90551 2.60193 2.74364 2.4647 2.70663 2.28223L2.0206 2.42138ZM3.09865 3.30193H7.84862V2.60193H3.09865V3.30193ZM7.84862 3.30193C8.38127 3.30193 8.82478 2.92371 8.92668 2.42139L8.24065 2.28223C8.20363 2.4647 8.04176 2.60193 7.84862 2.60193V3.30193ZM8.53177 2.69794C9.43268 2.833 10.1236 3.6108 10.1236 4.54936H10.8236C10.8236 3.25914 9.87404 2.19135 8.63555 2.00568L8.53177 2.69794ZM10.1236 4.54936V10.7299H10.8236V4.54936H10.1236ZM10.1236 10.7299C10.1236 11.7639 9.28541 12.6021 8.25141 12.6021V13.3021C9.67201 13.3021 10.8236 12.1505 10.8236 10.7299H10.1236ZM8.25141 12.6021H2.69585V13.3021H8.25141V12.6021ZM2.69585 12.6021C1.66186 12.6021 0.823633 11.7639 0.823633 10.7299H0.123633C0.123633 12.1505 1.27526 13.3021 2.69585 13.3021V12.6021ZM0.823633 10.7299V4.54936H0.123633V10.7299H0.823633ZM0.823633 4.54936C0.823633 3.6108 1.51459 2.833 2.4155 2.69794L2.31172 2.00567C1.07323 2.19134 0.123633 3.25914 0.123633 4.54936H0.823633Z" fill="white"/>
<path d="M4.84863 6.07715L8.59863 6.07715" stroke="white" stroke-width="0.7" stroke-linecap="round"/>
<path d="M2.34863 6.07715H2.97363" stroke="white" stroke-width="0.7" stroke-linecap="round"/>
<path d="M4.84863 7.95215L8.59863 7.95215" stroke="white" stroke-width="0.7" stroke-linecap="round"/>
<path d="M2.34863 7.95215H2.97363" stroke="white" stroke-width="0.7" stroke-linecap="round"/>
<path d="M4.84863 9.82715L8.59863 9.82715" stroke="white" stroke-width="0.7" stroke-linecap="round"/>
<path d="M2.34863 9.82715H2.97363" stroke="white" stroke-width="0.7" stroke-linecap="round"/>
</svg>
