<svg width="12" height="17" viewBox="0 0 12 17" fill="none" xmlns="http://www.w3.org/2000/svg">
<path d="M11.8739 4.43205L11.3412 6.20665H0.59375L1.12649 4.43205H11.8739ZM7.05612 16.7868L0.929608 9.8457L0.918027 8.45298H3.74387C4.56228 8.45298 5.23786 8.32194 5.7706 8.05987C6.31106 7.79031 6.7164 7.42716 6.98663 6.9704C7.25686 6.51365 7.39198 6.00074 7.39198 5.43167C7.39198 4.79521 7.26458 4.23737 7.0098 3.75816C6.75501 3.27145 6.35352 2.89332 5.80534 2.62376C5.26488 2.34671 4.55456 2.20819 3.67438 2.20819H0.616913L1.16123 0.433594H3.67438C5.01781 0.433594 6.12576 0.632019 6.99821 1.02887C7.87839 1.41823 8.53467 1.9873 8.96704 2.73608C9.39941 3.48485 9.61559 4.39087 9.61559 5.45413C9.61559 6.36764 9.43415 7.18755 9.07127 7.91386C8.71611 8.63268 8.12546 9.19801 7.29933 9.60984C6.48092 10.0217 5.37683 10.2276 3.98707 10.2276L9.68508 16.6521V16.7868H7.05612ZM11.8739 0.433594L11.3412 2.20819H2.67839L3.21113 0.433594H11.8739Z" fill="white"/>
</svg>
