<svg width="16" height="16" viewBox="0 0 16 16" fill="none" xmlns="http://www.w3.org/2000/svg">
<path d="M12.6758 11.0619L15.8341 14.3025L14.7906 15.3734L11.6331 12.132C10.4582 13.0986 8.99688 13.6243 7.4911 13.6222C3.82769 13.6222 0.854492 10.5708 0.854492 6.81108C0.854492 3.05136 3.82769 0 7.4911 0C11.1545 0 14.1277 3.05136 14.1277 6.81108C14.1299 8.35643 13.6176 9.85618 12.6758 11.0619ZM11.1965 10.5004C12.1324 9.51271 12.655 8.18875 12.6529 6.81108C12.6529 3.88383 10.3426 1.51357 7.4911 1.51357C4.63884 1.51357 2.32929 3.88383 2.32929 6.81108C2.32929 9.73757 4.63884 12.1086 7.4911 12.1086C8.83349 12.1107 10.1235 11.5744 11.0859 10.6139L11.1965 10.5004Z" fill="white"/>
</svg>
