<svg width="12" height="13" viewBox="0 0 12 13" fill="none" xmlns="http://www.w3.org/2000/svg">
<path d="M10.5233 1.57631L10.3335 1.0071V1.0071L10.5233 1.57631ZM1.15635 4.69861L1.34609 5.26782L1.34609 5.26782L1.15635 4.69861ZM11.3182 2.37127L11.8874 2.56101V2.56101L11.3182 2.37127ZM8.19592 11.7382L8.76513 11.9279V11.9279L8.19592 11.7382ZM7.03757 11.8205L6.50092 12.0888V12.0888L7.03757 11.8205ZM5.40328 8.55191L4.97901 8.12765L4.67322 8.43344L4.86662 8.82024L5.40328 8.55191ZM7.81939 6.1358L8.24366 6.56006L8.24366 6.56006L7.81939 6.1358ZM7.81939 5.07514L8.24366 4.65087L8.24366 4.65087L7.81939 5.07514ZM6.75873 5.07514L6.33447 4.65087V4.65087L6.75873 5.07514ZM4.34262 7.49125L4.07429 8.02791L4.46109 8.22131L4.76688 7.91552L4.34262 7.49125ZM1.07403 5.85696L1.34236 5.3203L1.34236 5.3203L1.07403 5.85696ZM10.3335 1.0071L0.966614 4.1294L1.34609 5.26782L10.713 2.14552L10.3335 1.0071ZM11.8874 2.56101C12.2076 1.60064 11.2939 0.686973 10.3335 1.0071L10.713 2.14552C10.7198 2.14324 10.7235 2.14301 10.7247 2.14298C10.726 2.14294 10.7269 2.14305 10.7279 2.14332C10.7304 2.14396 10.736 2.14631 10.7421 2.1524C10.7482 2.15848 10.7506 2.16414 10.7512 2.16663C10.7515 2.16765 10.7516 2.16857 10.7516 2.16985C10.7515 2.17098 10.7513 2.1747 10.749 2.18154L11.8874 2.56101ZM8.76513 11.9279L11.8874 2.56101L10.749 2.18154L7.62671 11.5484L8.76513 11.9279ZM6.50092 12.0888C6.99037 13.0677 8.41903 12.9662 8.76513 11.9279L7.62671 11.5484C7.62388 11.557 7.62138 11.5604 7.62091 11.5611C7.62034 11.5619 7.61998 11.5622 7.61945 11.5626C7.61788 11.5637 7.61195 11.5671 7.60172 11.5678C7.59148 11.5686 7.58513 11.5661 7.58342 11.5651C7.58284 11.5648 7.58244 11.5646 7.58176 11.5639C7.5812 11.5633 7.57824 11.5602 7.57423 11.5522L6.50092 12.0888ZM4.86662 8.82024L6.50092 12.0888L7.57423 11.5522L5.93994 8.28358L4.86662 8.82024ZM7.39513 5.71153L4.97901 8.12765L5.82754 8.97618L8.24366 6.56006L7.39513 5.71153ZM7.39513 5.4994C7.45371 5.55798 7.45371 5.65296 7.39513 5.71153L8.24366 6.56006C8.77086 6.03285 8.77086 5.17808 8.24366 4.65087L7.39513 5.4994ZM7.183 5.4994C7.24158 5.44082 7.33655 5.44082 7.39513 5.4994L8.24366 4.65087C7.71645 4.12367 6.86168 4.12367 6.33447 4.65087L7.183 5.4994ZM4.76688 7.91552L7.183 5.4994L6.33447 4.65087L3.91835 7.06699L4.76688 7.91552ZM0.8057 6.39361L4.07429 8.02791L4.61095 6.9546L1.34236 5.3203L0.8057 6.39361ZM0.966614 4.1294C-0.0716739 4.4755 -0.173212 5.90416 0.8057 6.39361L1.34236 5.3203C1.33434 5.31629 1.33124 5.31333 1.33067 5.31277C1.32997 5.31209 1.3297 5.31169 1.32939 5.31112C1.32847 5.3094 1.32596 5.30305 1.32669 5.29281C1.32742 5.28258 1.33079 5.27665 1.33195 5.27508C1.33234 5.27455 1.33266 5.27419 1.33345 5.27362C1.3341 5.27315 1.33758 5.27066 1.34609 5.26782L0.966614 4.1294Z" fill="#298E03"/>
</svg>
