<svg width="17" height="18" viewBox="0 0 17 18" fill="none" xmlns="http://www.w3.org/2000/svg">
<path d="M14.6577 9.64707C14.691 9.3804 14.716 9.11374 14.716 8.8304C14.716 8.54707 14.691 8.2804 14.6577 8.01374L16.4151 6.63874C16.5733 6.51374 16.615 6.28874 16.515 6.1054L14.8493 3.22207C14.7493 3.03874 14.5244 2.97207 14.3412 3.03874L12.2673 3.87207C11.8342 3.53874 11.3678 3.26374 10.8597 3.0554L10.5432 0.84707C10.5182 0.64707 10.3433 0.49707 10.1351 0.49707H6.80357C6.59534 0.49707 6.42044 0.64707 6.39545 0.84707L6.07895 3.0554C5.57089 3.26374 5.10448 3.54707 4.67138 3.87207L2.59749 3.03874C2.40592 2.96374 2.18937 3.03874 2.08943 3.22207L0.423651 6.1054C0.315376 6.28874 0.365349 6.51374 0.523598 6.63874L2.28099 8.01374C2.24767 8.2804 2.22269 8.5554 2.22269 8.8304C2.22269 9.1054 2.24767 9.3804 2.28099 9.64707L0.523598 11.0221C0.365349 11.1471 0.323705 11.3721 0.423651 11.5554L2.08943 14.4387C2.18937 14.6221 2.41425 14.6887 2.59749 14.6221L4.67138 13.7887C5.10448 14.1221 5.57089 14.3971 6.07895 14.6054L6.39545 16.8137C6.42044 17.0137 6.59534 17.1637 6.80357 17.1637H10.1351C10.3433 17.1637 10.5182 17.0137 10.5432 16.8137L10.8597 14.6054C11.3678 14.3971 11.8342 14.1137 12.2673 13.7887L14.3412 14.6221C14.5328 14.6971 14.7493 14.6221 14.8493 14.4387L16.515 11.5554C16.615 11.3721 16.5733 11.1471 16.4151 11.0221L14.6577 9.64707ZM8.46934 11.7471C6.86187 11.7471 5.55424 10.4387 5.55424 8.8304C5.55424 7.22207 6.86187 5.91374 8.46934 5.91374C10.0768 5.91374 11.3844 7.22207 11.3844 8.8304C11.3844 10.4387 10.0768 11.7471 8.46934 11.7471Z" fill="white"/>
</svg>
