<svg width="16" height="16" viewBox="0 0 16 16" fill="none" xmlns="http://www.w3.org/2000/svg">
<path d="M13.8952 4.85337L12.6723 3.79143C11.7913 3.02628 11.4459 2.61466 10.9688 2.76018C10.3738 2.94162 10.5697 4.08646 10.5697 4.47297C9.64473 4.47297 8.68308 4.40183 7.77133 4.55006C4.76148 5.03939 3.82031 7.18084 3.82031 9.48798C4.67219 8.96577 5.52323 8.38345 6.5471 8.14142C7.82517 7.83931 9.25255 7.98347 10.5697 7.98347C10.5697 8.36995 10.3738 9.51485 10.9688 9.69626C11.5094 9.86112 11.7913 9.43017 12.6723 8.66501L13.8952 7.60307C14.6453 6.95168 15.0203 6.62599 15.0203 6.22822C15.0203 5.83045 14.6453 5.50476 13.8952 4.85337Z" stroke="white" stroke-linecap="round" stroke-linejoin="round"/>
<path d="M7.01781 1.33105C4.31565 1.33591 2.90066 1.40212 1.99638 2.30457C1.02051 3.27847 1.02051 4.84593 1.02051 7.98086C1.02051 11.1158 1.02051 12.6833 1.99638 13.6572C2.97225 14.6311 4.5429 14.6311 7.68418 14.6311C10.8255 14.6311 12.3961 14.6311 13.372 13.6572C14.0514 12.9791 14.2578 12.0133 14.3205 10.4311" stroke="white" stroke-linecap="round" stroke-linejoin="round"/>
</svg>
