<svg width="11" height="11" viewBox="0 0 11 11" fill="none" xmlns="http://www.w3.org/2000/svg">
<path d="M2.46652 6.69265C4.83042 8.12548 7.62489 5.89492 7.62489 5.89492C5.03438 10.5856 2.46652 6.69265 2.46652 6.69265ZM10.4358 4.51767L8.89799 4.22946C7.84839 4.03286 6.9636 3.33188 6.52893 2.35813L5.8965 0.927355C5.79452 0.702961 5.4814 0.689575 5.36398 0.906764L4.61516 2.27887C4.10221 3.21453 3.16283 3.84037 2.09984 3.9505L0.543475 4.11211C0.300389 4.13681 0.189146 4.43223 0.3591 4.61134L1.43341 5.74567C2.16679 6.52178 2.47168 7.60876 2.24816 8.6525L1.92061 10.1811C1.8691 10.4219 2.11631 10.6165 2.33776 10.5115L3.75097 9.84138C4.71713 9.38333 5.84397 9.42965 6.76996 9.9649L8.12239 10.7482C8.3356 10.8717 8.5962 10.6978 8.56633 10.4549L8.36444 8.90366C8.22745 7.84551 8.61988 6.78735 9.41506 6.07402L10.58 5.03028C10.7613 4.86559 10.6779 4.56399 10.4358 4.51767Z" fill="#66BD46"/>
</svg>
