<svg width="12" height="12" viewBox="0 0 12 12" fill="none" xmlns="http://www.w3.org/2000/svg">
<path d="M5.40765 0.428259C5.56374 0.133289 5.97223 0.133288 6.12832 0.428258L7.57784 3.16755C7.63545 3.27643 7.73596 3.35384 7.85309 3.37954L10.7516 4.01572C11.0598 4.08336 11.1831 4.47067 10.9745 4.71544L8.96367 7.07392C8.88696 7.1639 8.85039 7.28327 8.86294 7.40268L9.19526 10.5637C9.23005 10.8946 8.90235 11.1374 8.61193 10.996L5.94268 9.69587C5.83201 9.64196 5.70396 9.64196 5.59329 9.69587L2.92403 10.996C2.63362 11.1374 2.30592 10.8946 2.3407 10.5637L2.67303 7.40268C2.68558 7.28327 2.64901 7.1639 2.57229 7.07392L0.561506 4.71544C0.352822 4.47067 0.476159 4.08336 0.784325 4.01572L3.68288 3.37954C3.80001 3.35384 3.90051 3.27643 3.95813 3.16755L5.40765 0.428259Z" fill="#00EF49"/>
</svg>
