<svg width="22" height="18" viewBox="0 0 22 18" fill="none" xmlns="http://www.w3.org/2000/svg">
<path d="M17.2753 16.3661H17.7102C18.7303 16.3661 19.5417 15.9018 20.2702 15.2527C22.121 13.6036 17.7704 11.9353 16.2852 11.9353" stroke="white" stroke-linecap="round" stroke-linejoin="round"/>
<path d="M13.8203 2.64949C14.0441 2.60515 14.2766 2.58179 14.515 2.58179C16.309 2.58179 17.7633 3.9042 17.7633 5.53548C17.7633 7.16676 16.309 8.48917 14.515 8.48917C14.2766 8.48917 14.0441 8.46581 13.8203 8.42147" stroke="white" stroke-linecap="round"/>
<path d="M3.7468 12.5369C2.66211 13.159 -0.181885 14.4291 1.5503 16.0186C2.39645 16.795 3.33886 17.3503 4.52368 17.3503H11.2846C12.4694 17.3503 13.4118 16.795 14.258 16.0186C15.9901 14.4291 13.1461 13.159 12.0615 12.5369C9.51787 11.0782 6.29038 11.0782 3.7468 12.5369Z" stroke="white" stroke-linecap="round" stroke-linejoin="round"/>
<path d="M11.8469 4.55105C11.8469 6.72609 10.0816 8.48931 7.90392 8.48931C5.72627 8.48931 3.96094 6.72609 3.96094 4.55105C3.96094 2.37601 5.72627 0.612793 7.90392 0.612793C10.0816 0.612793 11.8469 2.37601 11.8469 4.55105Z" stroke="white"/>
</svg>
