<svg width="250" height="73" viewBox="0 0 250 73" fill="none" xmlns="http://www.w3.org/2000/svg">
<path fill-rule="evenodd" clip-rule="evenodd" d="M9.97978 42.0449V48.5675H16.3185V53.4572H9.93206V63.3855C9.93206 65.5736 11.142 66.6453 12.9162 66.6453C13.8033 66.6453 14.8279 66.3676 15.6645 65.9467L17.2534 70.7916C15.6195 71.4424 14.2693 71.7258 12.5428 71.7707C7.55432 71.9587 4.28948 69.1141 4.28948 63.3855V53.4572H0V48.5675H4.28948V42.6482L9.97978 42.0449Z" fill="#5E2C91"/>
<path fill-rule="evenodd" clip-rule="evenodd" d="M26.2512 42.0146V51.6427C28.3004 48.9887 30.8212 48.1949 33.4349 48.1949C39.9617 48.1949 42.8503 52.6216 42.8503 59.377V71.4935H37.1628V59.4276C37.1628 55.2308 34.9704 53.4605 31.9387 53.4605C28.584 53.4605 26.2512 56.3023 26.2512 59.7502V71.4935H20.5664V42.6318L26.2512 42.0146Z" fill="#5E2C91"/>
<path fill-rule="evenodd" clip-rule="evenodd" d="M52.0867 59.9846C52.0867 64.3637 55.113 66.9727 58.8944 66.9727C67.8467 66.9727 67.8467 53.0413 58.8944 53.0413C55.113 53.0413 52.0867 55.6054 52.0867 59.9846ZM65.7047 48.9679L71.3389 48.5218V71.4923H65.7047L65.7019 68.1398C64.3937 70.8413 60.8062 72.1458 58.2374 72.1936C51.4356 72.2385 46.3965 68.0472 46.3965 59.9846C46.3965 52.0622 51.6657 47.9158 58.3835 47.9608C61.4574 47.9608 64.3937 49.4055 65.7019 51.6891L65.7047 48.9679Z" fill="#5E2C91"/>
<path fill-rule="evenodd" clip-rule="evenodd" d="M81.8301 48.5176V51.1771C83.6042 48.3325 85.982 47.9146 88.3119 47.9146C90.6898 47.9146 92.9777 48.8459 94.2354 50.1027L91.6723 55.0457C90.5045 54.0638 89.4321 53.5505 87.5681 53.5505C84.5812 53.5505 81.8301 55.1355 81.8301 59.3744V71.4909H76.1426V48.9665L81.8301 48.5176Z" fill="#5E2C91"/>
<path fill-rule="evenodd" clip-rule="evenodd" d="M100.811 59.9846C100.811 64.3637 103.842 66.9727 107.618 66.9727C116.571 66.9727 116.571 53.0413 107.618 53.0413C103.842 53.0413 100.811 55.6054 100.811 59.9846ZM114.443 48.9679L120.068 48.5218V71.4923H114.443V68.1398C113.134 70.8413 109.533 72.1458 106.964 72.1936C100.159 72.2385 95.123 68.0472 95.123 59.9846C95.123 52.0622 100.392 47.9158 107.107 47.9608C110.184 47.9608 113.134 49.4055 114.443 51.6891V48.9679Z" fill="#5E2C91"/>
<path fill-rule="evenodd" clip-rule="evenodd" d="M154.016 68.5578C151.355 71.1667 148.559 72.1936 145.157 72.1936C138.487 72.1936 132.939 68.1846 132.939 60.0323C132.939 51.8771 138.487 47.8682 145.157 47.8682C148.419 47.8682 150.937 48.8024 153.452 51.2711L149.864 55.0471C148.511 53.8324 146.835 53.2293 145.249 53.2293C141.429 53.2293 138.63 56.0234 138.63 60.0323C138.63 64.4115 141.611 66.7428 145.157 66.7428C146.973 66.7428 148.795 66.2294 150.193 64.8322L154.016 68.5578Z" fill="#5E2C91"/>
<path fill-rule="evenodd" clip-rule="evenodd" d="M160.964 59.9846C160.964 64.3637 163.99 66.9727 167.769 66.9727C176.727 66.9727 176.727 53.0413 167.769 53.0413C163.99 53.0413 160.964 55.6054 160.964 59.9846ZM174.565 48.9679L180.219 48.5218V71.4923H174.565L174.567 68.1285C173.263 70.8301 169.68 72.1458 167.117 72.1936C160.31 72.2385 155.273 68.0472 155.273 59.9846C155.273 52.0622 160.543 47.9158 167.258 47.9608C170.334 47.9608 173.257 49.4055 174.565 51.6891V48.9679Z" fill="#5E2C91"/>
<path fill-rule="evenodd" clip-rule="evenodd" d="M190.739 48.5176V51.1771C192.513 48.3325 194.861 47.9146 197.193 47.9146C199.573 47.9146 201.859 48.8459 203.117 50.1027L200.551 55.0457C199.382 54.0638 198.313 53.5505 196.447 53.5505C193.462 53.5505 190.714 55.1355 190.714 59.3744V71.4909H185.023V48.9665L190.739 48.5176Z" fill="#5E2C91"/>
<path fill-rule="evenodd" clip-rule="evenodd" d="M214.725 42.0449V48.5675H221.067V53.4572H214.68V63.3855C214.68 65.5736 215.894 66.6453 217.662 66.6453C218.552 66.6453 219.577 66.3676 220.415 65.9467L222.001 70.7916C220.37 71.4424 219.018 71.7258 217.294 71.7707C212.303 71.9587 209.038 69.1141 209.038 63.3855V53.4572H204.752V48.5675H209.038V42.6482L214.725 42.0449Z" fill="#5E2C91"/>
<path d="M221.607 21.3906C229.781 26.3453 239.444 18.632 239.444 18.632C230.487 34.8524 221.607 21.3906 221.607 21.3906ZM249.165 13.8695L243.847 12.8729C240.218 12.193 237.157 9.76908 235.655 6.40188L233.467 1.45429C233.115 0.678332 232.032 0.632045 231.626 1.38308L229.037 6.12778C227.263 9.3633 224.015 11.5274 220.339 11.9083L214.956 12.4671C214.116 12.5525 213.732 13.5741 214.32 14.1934L218.034 18.1159C220.571 20.7998 221.624 24.5585 220.853 28.1677L219.718 33.4534C219.541 34.2864 220.395 34.9591 221.162 34.5961L226.048 32.2788C229.389 30.6949 233.287 30.8551 236.488 32.706L241.165 35.4147C241.902 35.8419 242.802 35.2402 242.699 34.4002L242.002 29.0363C241.527 25.3771 242.885 21.718 245.635 19.2513L249.663 15.6421C250.29 15.0726 250.002 14.0297 249.165 13.8695Z" fill="#00EF49"/>
</svg>
