<svg width="13" height="13" viewBox="0 0 13 13" fill="none" xmlns="http://www.w3.org/2000/svg">
<path d="M12.5367 0.815572C12.4872 0.739418 12.4195 0.676831 12.3396 0.633491C12.2598 0.590151 12.1704 0.567431 12.0796 0.567391H8.80688C8.70551 0.567344 8.60614 0.595542 8.51991 0.648821C8.43368 0.702101 8.36401 0.778355 8.3187 0.869027L6.62506 4.25684L4.93415 0.869027C4.88864 0.777939 4.81854 0.70141 4.73178 0.648101C4.64502 0.594793 4.54507 0.566835 4.44325 0.567391H1.17052C1.07965 0.567379 0.990206 0.590074 0.910328 0.633413C0.830451 0.676753 0.762668 0.739363 0.713137 0.815556C0.663606 0.891749 0.633897 0.97911 0.626709 1.0697C0.619521 1.1603 0.635082 1.25125 0.671978 1.3343L3.20998 7.05229C2.9453 7.57882 2.80727 8.15989 2.80689 8.7492C2.80689 9.76184 3.20916 10.733 3.9252 11.4491C4.64125 12.1651 5.61242 12.5674 6.62506 12.5674C7.63771 12.5674 8.60887 12.1651 9.32492 11.4491C10.041 10.733 10.4432 9.76184 10.4432 8.7492C10.4429 8.15989 10.3048 7.57882 10.0401 7.05229L12.5781 1.3343C12.615 1.25123 12.6305 1.16026 12.6233 1.06967C12.616 0.979084 12.5863 0.891738 12.5367 0.815572ZM2.00943 1.6583H4.10616L5.78997 5.02593C5.09578 5.18246 4.45924 5.53011 3.95234 6.02957L2.00943 1.6583ZM6.62506 11.4765C6.08566 11.4765 5.55837 11.3165 5.10987 11.0168C4.66138 10.7172 4.31181 10.2912 4.10539 9.79288C3.89897 9.29454 3.84496 8.74617 3.9502 8.21714C4.05543 7.6881 4.31518 7.20214 4.69659 6.82073C5.07801 6.43931 5.56396 6.17957 6.093 6.07433C6.62204 5.9691 7.1704 6.02311 7.66874 6.22953C8.16709 6.43595 8.59303 6.78551 8.8927 7.23401C9.19238 7.68251 9.35233 8.2098 9.35233 8.7492C9.35147 9.47225 9.06385 10.1654 8.55258 10.6767C8.0413 11.188 7.34811 11.4756 6.62506 11.4765ZM9.30051 6.02957C8.79286 5.52966 8.15532 5.18198 7.46015 5.02593L9.14397 1.6583H11.2407L9.30051 6.02957ZM8.26142 8.36302L7.35215 9.11302L7.63633 10.3856L6.62506 9.65847L5.61379 10.3856L5.89797 9.11302L4.9887 8.36302L6.07961 8.20375L6.62506 7.11284L7.17052 8.20375L8.26142 8.36302Z" fill="white"/>
</svg>
