<svg width="20" height="20" viewBox="0 0 20 20" fill="none" xmlns="http://www.w3.org/2000/svg">
<path d="M18.6352 5.44196L18.1894 4.66817C17.8523 4.08297 17.6837 3.79037 17.3969 3.6737C17.1101 3.55702 16.7857 3.64909 16.1369 3.83322L15.0349 4.14369C14.6207 4.23922 14.1861 4.18503 13.8079 3.99068L13.5037 3.8151C13.1793 3.60735 12.9299 3.30103 12.7918 2.94098L12.4902 2.04002C12.2919 1.44381 12.1927 1.14571 11.9567 0.975196C11.7206 0.804688 11.4071 0.804688 10.7799 0.804688H9.77312C9.146 0.804688 8.83244 0.804688 8.59638 0.975196C8.36032 1.14571 8.26116 1.44381 8.06285 2.04002L7.76123 2.94098C7.62316 3.30103 7.37371 3.60735 7.0494 3.8151L6.74514 3.99068C6.36694 4.18503 5.93239 4.23922 5.5182 4.14369L4.41613 3.83322C3.76736 3.64909 3.44297 3.55702 3.15615 3.6737C2.86933 3.79037 2.70076 4.08297 2.36362 4.66817L1.91783 5.44196C1.6018 5.9905 1.44379 6.26477 1.47446 6.55674C1.50513 6.84871 1.71666 7.084 2.13973 7.55457L3.07092 8.59584C3.29852 8.88402 3.4601 9.38623 3.4601 9.83774C3.4601 10.2896 3.29857 10.7916 3.07095 11.0799L2.13973 12.1211C1.71666 12.5917 1.50513 12.827 1.47446 13.119C1.44379 13.4109 1.60181 13.6852 1.91783 14.2338L2.3636 15.0075C2.70074 15.5927 2.86933 15.8853 3.15615 16.002C3.44298 16.1187 3.76737 16.0266 4.41615 15.8425L5.51816 15.532C5.93242 15.4364 6.36706 15.4906 6.7453 15.6851L7.04951 15.8607C7.37376 16.0684 7.62315 16.3747 7.76121 16.7347L8.06285 17.6358C8.26116 18.232 8.36032 18.5301 8.59638 18.7006C8.83244 18.8711 9.146 18.8711 9.77312 18.8711H10.7799C11.4071 18.8711 11.7206 18.8711 11.9567 18.7006C12.1927 18.5301 12.2919 18.232 12.4902 17.6358L12.7918 16.7347C12.9299 16.3747 13.1793 16.0684 13.5035 15.8607L13.8077 15.6851C14.186 15.4906 14.6206 15.4364 15.0349 15.532L16.1369 15.8425C16.7857 16.0266 17.1101 16.1187 17.3969 16.002C17.6837 15.8853 17.8523 15.5927 18.1895 15.0075L18.6352 14.2338C18.9512 13.6852 19.1093 13.4109 19.0786 13.119C19.0479 12.827 18.8364 12.5917 18.4133 12.1211L17.4821 11.0799C17.2545 10.7916 17.093 10.2896 17.093 9.83774C17.093 9.38623 17.2545 8.88402 17.4821 8.59584L18.4133 7.55457C18.8364 7.084 19.0479 6.84871 19.0786 6.55674C19.1093 6.26477 18.9513 5.9905 18.6352 5.44196Z" stroke="#35A29F" stroke-width="1.5" stroke-linecap="round"/>
</svg>
