<svg width="18" height="19" viewBox="0 0 18 19" fill="none" xmlns="http://www.w3.org/2000/svg">
<path d="M2.78156 0.837891L3.27578 0.913662L3.36406 0.337891H2.78156V0.837891ZM14.2868 0.837891V0.337891H13.7043L13.7926 0.913662L14.2868 0.837891ZM4.17773 4.83789V4.33789V4.83789ZM4.17773 6.83789V6.33789V6.83789ZM13.5321 6.83789V7.33789V6.83789ZM13.5321 4.83789V4.33789V4.83789ZM2.28733 0.762119C2.27172 0.863929 2.26367 0.967948 2.26367 1.07352H3.26367C3.26367 1.01886 3.26784 0.965496 3.27578 0.913662L2.28733 0.762119ZM2.75738 1.33789H2.78156V0.337891H2.75738V1.33789ZM1.03516 3.06011C1.03516 2.10896 1.80622 1.33789 2.75738 1.33789V0.337891C1.25394 0.337891 0.0351562 1.55667 0.0351562 3.06011H1.03516ZM1.03516 15.6157V3.06011H0.0351562V15.6157H1.03516ZM2.75738 17.3379C1.80622 17.3379 1.03516 16.5668 1.03516 15.6157H0.0351562C0.0351562 17.1191 1.25394 18.3379 2.75738 18.3379V17.3379ZM14.3101 17.3379H2.75738V18.3379H14.3101V17.3379ZM16.0323 15.6157C16.0323 16.5668 15.2612 17.3379 14.3101 17.3379V18.3379C15.8135 18.3379 17.0323 17.1191 17.0323 15.6157H16.0323ZM16.0323 3.06011V15.6157H17.0323V3.06011H16.0323ZM14.3101 1.33789C15.2612 1.33789 16.0323 2.10896 16.0323 3.06011H17.0323C17.0323 1.55667 15.8135 0.337891 14.3101 0.337891V1.33789ZM14.2868 1.33789H14.3101V0.337891H14.2868V1.33789ZM14.8047 1.07352C14.8047 0.967947 14.7966 0.863928 14.781 0.762119L13.7926 0.913662C13.8005 0.965497 13.8047 1.01886 13.8047 1.07352H14.8047ZM12.7625 3.11571C13.8904 3.11571 14.8047 2.20139 14.8047 1.07352H13.8047C13.8047 1.6491 13.3381 2.11571 12.7625 2.11571V3.11571ZM4.30586 3.11571H12.7625V2.11571H4.30586V3.11571ZM2.26367 1.07352C2.26367 2.20139 3.17799 3.11571 4.30586 3.11571V2.11571C3.73028 2.11571 3.26367 1.6491 3.26367 1.07352H2.26367ZM3.67773 5.83789C3.67773 5.56175 3.90159 5.33789 4.17773 5.33789V4.33789C3.34931 4.33789 2.67773 5.00946 2.67773 5.83789H3.67773ZM4.17773 6.33789C3.90159 6.33789 3.67773 6.11403 3.67773 5.83789H2.67773C2.67773 6.66632 3.34931 7.33789 4.17773 7.33789V6.33789ZM13.5321 6.33789L4.17773 6.33789V7.33789L13.5321 7.33789V6.33789ZM14.0321 5.83789C14.0321 6.11403 13.8083 6.33789 13.5321 6.33789V7.33789C14.3606 7.33789 15.0321 6.66632 15.0321 5.83789H14.0321ZM13.5321 5.33789C13.8083 5.33789 14.0321 5.56175 14.0321 5.83789H15.0321C15.0321 5.00946 14.3606 4.33789 13.5321 4.33789V5.33789ZM4.17773 5.33789L13.5321 5.33789V4.33789L4.17773 4.33789V5.33789ZM4.01758 8.33789C3.18915 8.33789 2.51758 9.00946 2.51758 9.83789H3.51758C3.51758 9.56175 3.74144 9.33789 4.01758 9.33789V8.33789ZM10.75 8.33789H4.01758V9.33789H10.75V8.33789ZM12.25 9.83789C12.25 9.00946 11.5784 8.33789 10.75 8.33789V9.33789C11.0261 9.33789 11.25 9.56175 11.25 9.83789H12.25ZM10.75 11.3379C11.5784 11.3379 12.25 10.6663 12.25 9.83789H11.25C11.25 10.114 11.0261 10.3379 10.75 10.3379V11.3379ZM4.01758 11.3379H10.75V10.3379H4.01758V11.3379ZM2.51758 9.83789C2.51758 10.6663 3.18915 11.3379 4.01758 11.3379V10.3379C3.74144 10.3379 3.51758 10.114 3.51758 9.83789H2.51758ZM3.54867 13.8379C3.54867 13.5617 3.77253 13.3379 4.04867 13.3379V12.3379C3.22024 12.3379 2.54867 13.0095 2.54867 13.8379H3.54867ZM4.04867 14.3379C3.77253 14.3379 3.54867 14.114 3.54867 13.8379H2.54867C2.54867 14.6663 3.22024 15.3379 4.04867 15.3379V14.3379ZM6.86898 14.3379H4.04867V15.3379H6.86898V14.3379ZM7.36898 13.8379C7.36898 14.114 7.14512 14.3379 6.86898 14.3379V15.3379C7.69741 15.3379 8.36898 14.6663 8.36898 13.8379H7.36898ZM6.86898 13.3379C7.14512 13.3379 7.36898 13.5617 7.36898 13.8379H8.36898C8.36898 13.0095 7.69741 12.3379 6.86898 12.3379V13.3379ZM4.04867 13.3379H6.86898V12.3379H4.04867V13.3379Z" fill="#6527BE"/>
</svg>
