<svg width="20" height="21" viewBox="0 0 20 21" fill="none" xmlns="http://www.w3.org/2000/svg">
<path d="M11.3499 2.67867L12.9334 5.87249C13.1493 6.31709 13.7252 6.74354 14.211 6.8252L17.0812 7.30609C18.9167 7.61458 19.3486 8.95744 18.0259 10.2822L15.7946 12.5323C15.4167 12.9134 15.2097 13.6484 15.3267 14.1746L15.9655 16.9602C16.4694 19.165 15.3087 20.0179 13.3743 18.8656L10.6841 17.2596C10.1982 16.9692 9.39743 16.9692 8.90257 17.2596L6.21235 18.8656C4.28691 20.0179 3.11724 19.1559 3.6211 16.9602L4.25991 14.1746C4.37688 13.6484 4.16994 12.9134 3.79205 12.5323L1.56069 10.2822C0.247073 8.95744 0.669951 7.61458 2.50542 7.30609L5.37559 6.8252C5.85245 6.74354 6.42829 6.31709 6.64422 5.87249L8.22777 2.67867C9.09152 0.945653 10.4951 0.945653 11.3499 2.67867Z" stroke="url(#paint0_linear_4313_11708)" stroke-width="1.5" stroke-linecap="round" stroke-linejoin="round"/>
<defs>
<linearGradient id="paint0_linear_4313_11708" x1="0.796875" y1="9.03609" x2="18.7937" y2="9.03609" gradientUnits="userSpaceOnUse">
<stop stop-color="#5D1CAA"/>
<stop offset="1" stop-color="#813DCE"/>
</linearGradient>
</defs>
</svg>
