<svg width="13" height="16" viewBox="0 0 13 16" fill="none" xmlns="http://www.w3.org/2000/svg">
<path d="M12.8582 0.794434H8.69667L2.68557 9.58451H6.84705L12.8582 0.794434Z" fill="#BF392C"/>
<path d="M0.37384 0.793945H4.53533L10.5464 9.58402H6.38489L0.37384 0.793945Z" fill="#E2574C"/>
<path d="M6.84718 15.5994C4.0381 15.5994 1.76089 13.321 1.76089 10.5104C1.76089 7.69982 4.0381 5.42139 6.84718 5.42139C9.65626 5.42139 11.9335 7.69982 11.9335 10.5104C11.9335 13.321 9.65626 15.5994 6.84718 15.5994Z" fill="#ED9D5D"/>
<path d="M6.84708 6.80908C4.81258 6.80908 3.14795 8.47456 3.14795 10.5102C3.14795 12.5458 4.81253 14.2113 6.84708 14.2113C8.88163 14.2113 10.5462 12.5458 10.5462 10.5102C10.5462 8.47456 8.88158 6.80908 6.84708 6.80908ZM6.84708 13.286C5.32118 13.286 4.07276 12.0369 4.07276 10.5102C4.07276 8.98353 5.32123 7.73438 6.84708 7.73438C8.37293 7.73438 9.6214 8.98353 9.6214 10.5102C9.6214 12.0369 8.37293 13.286 6.84708 13.286Z" fill="#D58D54"/>
</svg>
