<svg width="22" height="21" viewBox="0 0 22 21" fill="none" xmlns="http://www.w3.org/2000/svg">
<path d="M8.70703 17.8428C8.70641 17.2379 8.90534 16.6496 9.27299 16.1692C9.64064 15.6888 10.1565 15.3431 10.7406 15.1857C11.3246 15.0283 11.9444 15.0679 12.5036 15.2984C13.0629 15.5289 13.5305 15.9375 13.834 16.4608C15.924 15.5388 16.707 14.0918 16.707 11.3418V8.3418C16.707 4.3498 14.456 1.5918 10.957 1.5918C7.45803 1.5918 5.20703 4.3508 5.20703 8.3418V11.8418C5.20677 12.0406 5.12766 12.2312 4.98707 12.3718C4.84647 12.5124 4.65586 12.5915 4.45703 12.5918H3.45703C2.7281 12.591 2.02924 12.3012 1.51372 11.7858C0.998193 11.2705 0.70809 10.5717 0.707031 9.8428L0.707031 8.8428C0.707825 8.1136 0.997779 7.41449 1.5133 6.89878C2.02883 6.38306 2.72784 6.09286 3.45703 6.0918H3.93503C4.69203 2.5208 7.28303 0.0917969 10.957 0.0917969C14.631 0.0917969 17.221 2.5208 17.978 6.0918H18.456C19.1851 6.09285 19.8839 6.38293 20.3994 6.89842C20.9149 7.41392 21.205 8.11278 21.206 8.8418V9.8418C21.2052 10.5709 20.9153 11.2699 20.3997 11.7855C19.8841 12.301 19.1851 12.591 18.456 12.5918H18.147C18.1084 13.7762 17.7111 14.921 17.0075 15.8745C16.3039 16.8281 15.3273 17.5455 14.207 17.9318C14.1952 18.6611 13.8942 19.3559 13.3701 19.8633C12.846 20.3707 12.1419 20.6491 11.4125 20.6373C10.6832 20.6255 9.9884 20.3244 9.48102 19.8004C8.97364 19.2763 8.69523 18.5721 8.70703 17.8428ZM10.207 17.8428C10.207 18.09 10.2803 18.3317 10.4177 18.5373C10.555 18.7428 10.7503 18.903 10.9787 18.9976C11.2071 19.0923 11.4584 19.117 11.7009 19.0688C11.9434 19.0205 12.1661 18.9015 12.3409 18.7267C12.5157 18.5519 12.6348 18.3291 12.683 18.0867C12.7312 17.8442 12.7065 17.5928 12.6119 17.3644C12.5173 17.136 12.3571 16.9408 12.1515 16.8035C11.9459 16.6661 11.7043 16.5928 11.457 16.5928C11.1256 16.5931 10.8078 16.7248 10.5734 16.9592C10.3391 17.1936 10.2073 17.5114 10.207 17.8428ZM18.207 11.0928H18.456C18.7876 11.0928 19.1057 10.9611 19.3403 10.7267C19.5748 10.4923 19.7068 10.1744 19.707 9.8428V8.8428C19.707 8.51118 19.5754 8.19314 19.341 7.95856C19.1066 7.72398 18.7886 7.59206 18.457 7.5918H18.207V11.0928ZM2.20703 8.8428V9.8428C2.20756 10.1741 2.33946 10.4916 2.57379 10.7257C2.80813 10.9599 3.12576 11.0915 3.45703 11.0918H3.70703V7.5918H3.45703C3.12542 7.59206 2.80748 7.72398 2.57309 7.95856C2.3387 8.19314 2.20703 8.51118 2.20703 8.8428Z" fill="url(#paint0_linear_4313_11749)"/>
<defs>
<linearGradient id="paint0_linear_4313_11749" x1="0.707031" y1="8.83199" x2="21.206" y2="8.83199" gradientUnits="userSpaceOnUse">
<stop stop-color="#5D1CAA"/>
<stop offset="1" stop-color="#813DCE"/>
</linearGradient>
</defs>
</svg>
