<svg width="26" height="19" viewBox="0 0 26 19" fill="none" xmlns="http://www.w3.org/2000/svg">
<path d="M12.8812 18.5897C10.3921 18.5897 8.24972 17.6918 6.45414 15.8959C4.65857 14.1 3.76078 11.9573 3.76078 9.46771V8.18493L1.48069 10.4654L0.369141 9.35368L4.61582 5.10625L8.86249 9.35368L7.75095 10.4654L5.47085 8.18493V9.46771C5.47085 11.5012 6.19763 13.2448 7.65119 14.6986C9.10475 16.1524 10.8481 16.8793 12.8812 16.8793C13.4322 16.8793 13.9547 16.8318 14.4487 16.7368C14.9427 16.6418 15.4083 16.4993 15.8453 16.3092L17.0708 17.535C16.3868 17.9151 15.698 18.1859 15.0045 18.3474C14.311 18.5089 13.6032 18.5897 12.8812 18.5897ZM21.118 13.7722L16.8713 9.52472L18.0114 8.38447L20.263 10.6365V9.46771C20.263 7.43426 19.5362 5.69063 18.0826 4.23681C16.6291 2.78299 14.8857 2.05608 12.8527 2.05608C12.3016 2.05608 11.7791 2.10834 11.2851 2.21286C10.7911 2.31739 10.3256 2.44567 9.88854 2.5977L8.66298 1.37193C9.34701 0.991845 10.0358 0.725787 10.7293 0.573753C11.4228 0.42172 12.1306 0.345703 12.8527 0.345703C15.3418 0.345703 17.4841 1.24365 19.2797 3.03955C21.0753 4.83544 21.973 6.97816 21.973 9.46771V10.6935L24.2531 8.41298L25.3647 9.52472L21.118 13.7722Z" fill="url(#paint0_linear_4313_11712)"/>
<defs>
<linearGradient id="paint0_linear_4313_11712" x1="0.369141" y1="8.10669" x2="25.3647" y2="8.10669" gradientUnits="userSpaceOnUse">
<stop stop-color="#5D1CAA"/>
<stop offset="1" stop-color="#813DCE"/>
</linearGradient>
</defs>
</svg>
