<svg width="21" height="21" viewBox="0 0 21 21" fill="none" xmlns="http://www.w3.org/2000/svg">
<path fill-rule="evenodd" clip-rule="evenodd" d="M17.0602 7.91309C16.9975 8.18398 16.8948 8.44645 16.7534 8.69141L11.1485 18.4047L11.5121 19.0348C12.0751 20.0104 13.3222 20.3446 14.2975 19.7812L19.7397 16.6374C20.7151 16.074 21.0494 14.8264 20.4864 13.8507L17.0602 7.91309Z" fill="white"/>
<path fill-rule="evenodd" clip-rule="evenodd" d="M15.8938 6.49268C16.0151 7.00025 15.9374 7.535 15.6767 7.98691L9.99222 17.8379C9.42924 18.8136 8.18217 19.1477 7.20681 18.5843L1.76462 15.4406C0.789251 14.8771 0.454944 13.6295 1.01792 12.6538L6.70237 2.80282C6.96314 2.35091 7.38714 2.0162 7.88715 1.86756L12.2665 0.565617C13.3877 0.232316 14.5589 0.908897 14.831 2.04701L15.8938 6.49268ZM13.1553 4.06146C12.8691 4.55743 12.2351 4.7273 11.7393 4.44087C11.2435 4.15445 11.0735 3.52019 11.3597 3.02422C11.6459 2.52826 12.2799 2.35839 12.7757 2.64481C13.2715 2.93124 13.4415 3.56549 13.1553 4.06146ZM5.0873 10.4788C5.1785 10.8082 5.39042 11.069 5.72307 11.2612C6.05573 11.4533 6.3874 11.5066 6.7181 11.4209C7.0488 11.3352 7.31894 11.1108 7.5285 10.7476C7.66898 10.5042 7.7412 10.2665 7.74517 10.0347C7.74913 9.80287 7.69038 9.59067 7.56891 9.39811C7.45149 9.2079 7.28528 9.05069 7.07028 8.92649C6.85527 8.80229 6.63406 8.7357 6.40666 8.72672C6.18331 8.72009 5.97229 8.77645 5.7736 8.89581C5.57491 9.01517 5.40533 9.19657 5.26485 9.44001C5.05528 9.80319 4.9961 10.1495 5.0873 10.4788ZM9.75764 10.5587C9.61924 10.4787 9.45049 10.4717 9.30595 10.5398L5.0533 12.5439C4.69718 12.7117 4.67645 13.2107 5.01742 13.4077C5.15582 13.4876 5.32457 13.4947 5.46911 13.4266L9.72176 11.4225C10.0779 11.2547 10.0986 10.7556 9.75764 10.5587ZM6.35387 10.6039C6.25913 10.6556 6.17322 10.6592 6.09615 10.6146C6.01907 10.5701 5.97719 10.4927 5.97051 10.3824C5.97019 10.2705 6.023 10.1227 6.12893 9.93916C6.23487 9.75558 6.3352 9.63794 6.42994 9.58624C6.53104 9.5329 6.62013 9.52849 6.69721 9.57301C6.77428 9.61754 6.81298 9.69576 6.8133 9.80769C6.81998 9.91798 6.77035 10.0649 6.66442 10.2485C6.55849 10.4321 6.45497 10.5505 6.35387 10.6039ZM7.06901 14.2576C7.16021 14.587 7.37213 14.8477 7.70478 15.0399C8.03743 15.2321 8.36911 15.2853 8.69981 15.1996C9.03051 15.114 9.30064 14.8895 9.51021 14.5264C9.65069 14.2829 9.72291 14.0453 9.72688 13.8134C9.73084 13.5816 9.67209 13.3694 9.55062 13.1769C9.4332 12.9866 9.26699 12.8294 9.05198 12.7052C8.83698 12.581 8.61577 12.5144 8.38837 12.5055C8.16502 12.4988 7.954 12.5552 7.75531 12.6746C7.55662 12.7939 7.38704 12.9753 7.24656 13.2188C7.03699 13.5819 6.97781 13.9282 7.06901 14.2576ZM8.33558 14.3826C8.24084 14.4343 8.15493 14.4379 8.07785 14.3934C8.00078 14.3489 7.9589 14.2714 7.95222 14.1612C7.9519 14.0492 8.00471 13.9015 8.11064 13.7179C8.21657 13.5343 8.31691 13.4167 8.41165 13.365C8.51275 13.3116 8.60184 13.3072 8.67891 13.3518C8.75599 13.3963 8.79469 13.4745 8.79501 13.5864C8.80169 13.6967 8.75206 13.8436 8.64613 14.0272C8.54019 14.2108 8.43668 14.3293 8.33558 14.3826Z" fill="white"/>
</svg>
