<svg width="22" height="20" viewBox="0 0 22 20" fill="none" xmlns="http://www.w3.org/2000/svg">
<path d="M0.859375 7.10308C0.859375 5.80675 1.91026 4.75586 3.2066 4.75586H12.5097C13.806 4.75586 14.8569 5.80675 14.8569 7.10308V13.9471C14.8569 15.2434 13.806 16.2943 12.5097 16.2943H4.84114C4.53209 16.2943 4.23551 16.4162 4.0158 16.6336L2.85833 17.7785C2.11718 18.5117 0.859375 17.9867 0.859375 16.9441V16.2943V7.10308Z" stroke="#2192FF" stroke-width="1.5"/>
<path d="M18.8684 13.4258L19.3883 12.8852L18.8684 13.4258ZM17.6968 12.2993L18.2167 11.7586L18.2167 11.7586L17.6968 12.2993ZM14.8569 11.9716H14.1069V12.7216H14.8569V11.9716ZM6.85797 4.64453H6.10797V5.39453H6.85797V4.64453ZM21.6055 3.10308C21.6055 1.39253 20.2188 0.00585938 18.5083 0.00585938V1.50586C19.3904 1.50586 20.1055 2.22096 20.1055 3.10308H21.6055ZM21.6055 11.9716V3.10308H20.1055V11.9716H21.6055ZM21.6055 12.5798V11.9716H20.1055V12.5798H21.6055ZM18.3486 13.9664C19.5709 15.1417 21.6055 14.2754 21.6055 12.5798H20.1055C20.1055 12.9532 19.6574 13.144 19.3883 12.8852L18.3486 13.9664ZM17.177 12.8399L18.3486 13.9664L19.3883 12.8852L18.2167 11.7586L17.177 12.8399ZM16.8834 12.7216C16.9929 12.7216 17.0981 12.764 17.177 12.8399L18.2167 11.7586C17.8583 11.4141 17.3805 11.2216 16.8834 11.2216V12.7216ZM14.8569 12.7216H16.8834V11.2216H14.8569V12.7216ZM14.1069 6.99175V11.9716H15.6069V6.99175H14.1069ZM12.5097 5.39453C13.3918 5.39453 14.1069 6.10963 14.1069 6.99175H15.6069C15.6069 5.2812 14.2202 3.89453 12.5097 3.89453V5.39453ZM6.85797 5.39453H12.5097V3.89453H6.85797V5.39453ZM6.10797 3.10308V4.64453H7.60797V3.10308H6.10797ZM9.20519 0.00585938C7.49465 0.00585938 6.10797 1.39253 6.10797 3.10308H7.60797C7.60797 2.22096 8.32307 1.50586 9.20519 1.50586V0.00585938ZM18.5083 0.00585938H9.20519V1.50586H18.5083V0.00585938Z" fill="#2192FF"/>
<path d="M4.85938 11.7559C7.16001 13.1044 8.626 13.0739 10.8583 11.7559" stroke="#2192FF" stroke-width="1.5" stroke-linecap="round"/>
</svg>
