<svg width="13" height="13" viewBox="0 0 13 13" fill="none" xmlns="http://www.w3.org/2000/svg">
<rect x="0.835144" y="0.352051" width="12" height="12" rx="2" fill="black"/>
<path d="M8.38402 3.23203C8.53636 3.07961 8.78334 3.07961 8.93568 3.23203L9.85341 4.15025C10.0057 4.30267 10.0057 4.54978 9.85341 4.7022L9.53246 5.02332C9.45629 5.09953 9.3328 5.09953 9.25663 5.02332L8.06307 3.82913C7.98691 3.75292 7.98691 3.62936 8.06307 3.55315L8.38402 3.23203Z" fill="white"/>
<path d="M7.41186 4.12607C7.56419 3.97366 7.81118 3.97366 7.96351 4.12607L8.88124 5.04429C9.03357 5.19671 9.03357 5.44383 8.88124 5.59624L6.00098 8.47804C5.98575 8.49328 5.96105 8.49328 5.94582 8.47804L4.5316 7.06307C4.51637 7.04782 4.51637 7.02311 4.5316 7.00787L7.41186 4.12607Z" fill="white"/>
<path d="M4.24915 7.35636C4.2537 7.32453 4.29262 7.31155 4.31536 7.33429L5.67453 8.69395C5.69726 8.71668 5.68429 8.75563 5.65246 8.76017L4.53019 8.92055C4.27273 8.95735 4.05205 8.73659 4.08883 8.47903L4.24915 7.35636Z" fill="white"/>
<path fill-rule="evenodd" clip-rule="evenodd" d="M4.32166 9.48413C4.32166 9.33756 4.44043 9.21875 4.58694 9.21875H9.65752C9.80403 9.21875 9.9228 9.33756 9.9228 9.48413C9.9228 9.63069 9.80403 9.7495 9.65752 9.7495H4.58694C4.44043 9.7495 4.32166 9.63069 4.32166 9.48413Z" fill="white"/>
</svg>
