<svg width="23" height="23" viewBox="0 0 23 23" fill="none" xmlns="http://www.w3.org/2000/svg">
<path fill-rule="evenodd" clip-rule="evenodd" d="M11.8066 2.01457C6.66614 2.01457 2.49895 6.18177 2.49895 11.3223C2.49895 16.4627 6.66614 20.63 11.8066 20.63C16.9471 20.63 21.1143 16.4627 21.1143 11.3223C21.1143 6.18177 16.9471 2.01457 11.8066 2.01457ZM0.806641 11.3223C0.806641 5.24713 5.7315 0.322266 11.8066 0.322266C17.8818 0.322266 22.8066 5.24713 22.8066 11.3223C22.8066 17.3974 17.8818 22.3223 11.8066 22.3223C5.7315 22.3223 0.806641 17.3974 0.806641 11.3223ZM11.8066 10.4761C12.2739 10.4761 12.6528 10.855 12.6528 11.3223V15.271C12.6528 15.7383 12.2739 16.1171 11.8066 16.1171C11.3393 16.1171 10.9605 15.7383 10.9605 15.271V11.3223C10.9605 10.855 11.3393 10.4761 11.8066 10.4761ZM11.8066 6.80945C11.1835 6.80945 10.6784 7.31457 10.6784 7.93765C10.6784 8.56074 11.1835 9.06586 11.8066 9.06586H11.8179C12.441 9.06586 12.9461 8.56074 12.9461 7.93765C12.9461 7.31457 12.441 6.80945 11.8179 6.80945H11.8066Z" fill="url(#paint0_linear_4313_11734)"/>
<defs>
<linearGradient id="paint0_linear_4313_11734" x1="0.806641" y1="9.68105" x2="22.8066" y2="9.68105" gradientUnits="userSpaceOnUse">
<stop stop-color="#5D1CAA"/>
<stop offset="1" stop-color="#813DCE"/>
</linearGradient>
</defs>
</svg>
