<svg width="13" height="16" viewBox="0 0 13 16" fill="none" xmlns="http://www.w3.org/2000/svg">
<path d="M12.8103 0.793457H8.64874L2.63752 9.58371H6.79908L12.8103 0.793457Z" fill="#BF392C"/>
<path d="M0.326477 0.793457H4.48805L10.4992 9.58371H6.33765L0.326477 0.793457Z" fill="#E2574C"/>
<path d="M6.79947 15.5991C3.99033 15.5991 1.71308 13.3207 1.71308 10.51C1.71308 7.69937 3.99033 5.4209 6.79947 5.4209C9.60861 5.4209 11.8859 7.69937 11.8859 10.51C11.8859 13.3207 9.60861 15.5991 6.79947 15.5991Z" fill="#EFC75E"/>
<path d="M6.7993 6.80908C4.76476 6.80908 3.1001 8.47459 3.1001 10.5103C3.1001 12.5459 4.76472 14.2115 6.7993 14.2115C8.83389 14.2115 10.4985 12.5459 10.4985 10.5103C10.4985 8.47459 8.83384 6.80908 6.7993 6.80908ZM6.7993 13.2861C5.27337 13.2861 4.02492 12.037 4.02492 10.5103C4.02492 8.98357 5.27342 7.7344 6.7993 7.7344C8.32518 7.7344 9.57368 8.98357 9.57368 10.5103C9.57368 12.037 8.32518 13.2861 6.7993 13.2861Z" fill="#D7B354"/>
</svg>
