<svg width="23" height="23" viewBox="0 0 23 23" fill="none" xmlns="http://www.w3.org/2000/svg">
<path d="M17.5436 8.58365L17.176 8.92252L17.176 8.92252L17.5436 8.58365ZM17.5005 9.64343L17.1616 9.27578L17.1616 9.27578L17.5005 9.64343ZM16.4839 8.54049L16.8227 8.90814L16.8227 8.90814L16.4839 8.54049ZM13.1039 11.656L12.765 11.2883L13.1039 11.656ZM12.789 11.6755L12.4981 12.0822L12.4981 12.0822L12.789 11.6755ZM11.0988 10.4666L10.8079 10.8733L11.0988 10.4666ZM8.83828 10.6577L8.4833 10.3055L8.83828 10.6577ZM5.45969 14.0638L5.1047 13.7117L5.45969 14.0638ZM6.52465 15.1201L6.16966 14.768L6.52465 15.1201ZM9.90324 11.714L9.54826 11.3619L9.90324 11.714ZM10.2262 11.6867L9.9353 12.0934H9.9353L10.2262 11.6867ZM11.9164 12.8956L12.2073 12.4889L11.9164 12.8956ZM14.1205 12.7589L14.4594 13.1266L14.4594 13.1266L14.1205 12.7589ZM2.8255 8.67529C2.8255 5.63773 5.28794 3.17529 8.3255 3.17529V2.17529C4.73565 2.17529 1.8255 5.08544 1.8255 8.67529H2.8255ZM2.8255 15.0086V8.67529H1.8255V15.0086H2.8255ZM8.3255 20.5086C5.28793 20.5086 2.8255 18.0462 2.8255 15.0086H1.8255C1.8255 18.5985 4.73565 21.5086 8.3255 21.5086V20.5086ZM14.6588 20.5086H8.3255V21.5086H14.6588V20.5086ZM20.1588 15.0086C20.1588 18.0462 17.6964 20.5086 14.6588 20.5086V21.5086C18.2487 21.5086 21.1588 18.5985 21.1588 15.0086H20.1588ZM20.1588 8.67529V15.0086H21.1588V8.67529H20.1588ZM14.6588 3.17529C17.6964 3.17529 20.1588 5.63773 20.1588 8.67529H21.1588C21.1588 5.08544 18.2487 2.17529 14.6588 2.17529V3.17529ZM8.3255 3.17529H14.6588V2.17529H8.3255V3.17529ZM17.176 8.92252C17.2696 9.02405 17.2631 9.18221 17.1616 9.27578L17.8394 10.0111C18.347 9.54319 18.3792 8.75239 17.9113 8.24477L17.176 8.92252ZM16.8227 8.90814C16.9243 8.81456 17.0824 8.821 17.176 8.92252L17.9113 8.24477C17.4434 7.73716 16.6526 7.70495 16.145 8.17284L16.8227 8.90814ZM13.4427 12.0236L16.8227 8.90814L16.145 8.17284L12.765 11.2883L13.4427 12.0236ZM12.4981 12.0822C12.7871 12.2889 13.1815 12.2644 13.4427 12.0236L12.765 11.2883C12.8521 11.2081 12.9835 11.1999 13.0799 11.2688L12.4981 12.0822ZM10.8079 10.8733L12.4981 12.0822L13.0799 11.2688L11.3896 10.0599L10.8079 10.8733ZM9.19327 11.0098C9.62514 10.5744 10.3091 10.5166 10.8079 10.8733L11.3896 10.0599C10.4918 9.4178 9.26067 9.52183 8.4833 10.3055L9.19327 11.0098ZM5.81467 14.4159L9.19327 11.0098L8.4833 10.3055L5.1047 13.7117L5.81467 14.4159ZM5.81611 14.7695C5.71808 14.6722 5.71744 14.5139 5.81467 14.4159L5.1047 13.7117C4.61853 14.2018 4.62175 14.9933 5.11188 15.4794L5.81611 14.7695ZM6.16966 14.768C6.07243 14.866 5.91414 14.8667 5.81611 14.7695L5.11188 15.4794C5.60201 15.9656 6.39346 15.9624 6.87963 15.4722L6.16966 14.768ZM9.54826 11.3619L6.16966 14.768L6.87963 15.4722L10.2582 12.0661L9.54826 11.3619ZM10.517 11.28C10.2177 11.066 9.80738 11.1006 9.54826 11.3619L10.2582 12.0661C10.1719 12.1532 10.0351 12.1648 9.9353 12.0934L10.517 11.28ZM12.2073 12.4889L10.517 11.28L9.9353 12.0934L11.6255 13.3023L12.2073 12.4889ZM13.7816 12.3913C13.3462 12.7926 12.6889 12.8334 12.2073 12.4889L11.6255 13.3023C12.4925 13.9223 13.6756 13.849 14.4594 13.1266L13.7816 12.3913ZM17.1616 9.27578L13.7816 12.3913L14.4594 13.1266L17.8394 10.0111L17.1616 9.27578Z" fill="#298E03"/>
</svg>
