<svg width="23" height="20" viewBox="0 0 23 20" fill="none" xmlns="http://www.w3.org/2000/svg">
<path d="M1.29297 6.84375C1.29297 3.53004 3.97926 0.84375 7.29297 0.84375H15.2894C18.6031 0.84375 21.2894 3.53004 21.2894 6.84375V9.65226C21.2894 12.966 18.6031 15.6523 15.2894 15.6523H13.5624C13.3834 15.6523 13.2066 15.6907 13.0437 15.7649L6.60189 18.7025C6.49602 18.7508 6.3874 18.6409 6.43689 18.5356L7.70809 15.8304C7.74704 15.7475 7.68655 15.6523 7.59496 15.6523H7.29297C3.97926 15.6523 1.29297 12.966 1.29297 9.65226V6.84375Z" stroke="#5C5470" stroke-width="1.5"/>
<circle cx="7.29297" cy="8.84375" r="1" fill="#5C5470"/>
<circle cx="11.291" cy="8.84375" r="1" fill="#5C5470"/>
<circle cx="15.291" cy="8.84375" r="1" fill="#5C5470"/>
</svg>
