<svg width="13" height="13" viewBox="0 0 13 13" fill="none" xmlns="http://www.w3.org/2000/svg">
<path d="M6.57168 12.1961C9.88356 12.1961 12.5685 9.50984 12.5685 6.19619C12.5685 2.88254 9.88356 0.196289 6.57168 0.196289C3.2598 0.196289 0.57489 2.88254 0.57489 6.19619C0.57489 9.50984 3.2598 12.1961 6.57168 12.1961Z" fill="white"/>
<path d="M6.25281 7.47475C6.23327 7.39303 6.23335 7.33627 6.23335 7.29363C6.23335 7.05912 6.27242 6.85652 6.33103 6.68597C6.38963 6.55451 6.46773 6.42665 6.58495 6.29518C6.66309 6.19925 6.79987 6.06061 7.01476 5.87585C7.21011 5.69109 7.34686 5.54541 7.40546 5.43527C7.4836 5.32867 7.50314 5.20787 7.50314 5.07995C7.50314 4.84545 7.42492 4.64293 7.22957 4.46527C7.05375 4.28761 6.81945 4.19879 6.56549 4.19879C6.31153 4.19879 6.09668 4.28057 5.92086 4.44046C5.74505 4.60035 5.64733 4.84902 5.58873 5.19012L4.96356 5.11552C5.02217 4.66072 5.19791 4.31253 5.4714 4.07092C5.74489 3.82931 6.09653 3.7085 6.54584 3.7085C7.03422 3.7085 7.40546 3.83644 7.69849 4.09582C7.97198 4.35875 8.1283 4.67139 8.1283 5.04092C8.1283 5.2541 8.06974 5.4495 7.97206 5.6307C7.87438 5.81191 7.67903 6.02869 7.386 6.28807C7.19065 6.46217 7.07344 6.59011 6.9953 6.67183C6.93669 6.75355 6.89751 6.84942 6.87797 6.95601C6.8389 7.06261 6.81941 7.23314 6.81941 7.47475H6.25281ZM6.21389 8.67931V7.99358H6.89762V8.67931H6.21389Z" fill="url(#paint0_linear_4313_11620)"/>
<defs>
<linearGradient id="paint0_linear_4313_11620" x1="4.96356" y1="5.82308" x2="8.1283" y2="5.82308" gradientUnits="userSpaceOnUse">
<stop stop-color="#5D1CAA"/>
<stop offset="1" stop-color="#813DCE"/>
</linearGradient>
</defs>
</svg>
