<svg width="20" height="21" viewBox="0 0 20 21" fill="none" xmlns="http://www.w3.org/2000/svg">
<path d="M11.3518 2.55413L12.9354 5.7491C13.1513 6.19385 13.7271 6.62045 14.213 6.70214L17.0832 7.1832C18.9186 7.49181 19.3505 8.83515 18.0279 10.1603L15.7965 12.4113C15.4186 12.7925 15.2117 13.5278 15.3287 14.0542L15.9675 16.8407C16.4713 19.0463 15.3107 19.8995 13.3762 18.7468L10.686 17.1402C10.2002 16.8498 9.39938 16.8498 8.90452 17.1402L6.2143 18.7468C4.28886 19.8995 3.1192 19.0373 3.62305 16.8407L4.26187 14.0542C4.37883 13.5278 4.17189 12.7925 3.794 12.4113L1.56265 10.1603C0.249026 8.83515 0.671904 7.49181 2.50737 7.1832L5.37754 6.70214C5.85441 6.62045 6.43024 6.19385 6.64618 5.7491L8.22972 2.55413C9.09347 0.820498 10.4971 0.820498 11.3518 2.55413Z" stroke="#FFB000" stroke-width="1.5" stroke-linecap="round" stroke-linejoin="round"/>
</svg>
