<svg width="14" height="16" viewBox="0 0 14 16" fill="none" xmlns="http://www.w3.org/2000/svg">
<path d="M13.3345 0.716797H9.17332L3.16261 9.5063H7.32383L13.3345 0.716797Z" fill="#BF392C"/>
<path d="M0.850403 0.716797H5.01162L11.0223 9.5063H6.86106L0.850403 0.716797Z" fill="#E2574C"/>
<path d="M7.32316 15.5216C4.51426 15.5216 2.2372 13.2433 2.2372 10.4329C2.2372 7.62252 4.51426 5.34424 7.32316 5.34424C10.1321 5.34424 12.4091 7.62252 12.4091 10.4329C12.4091 13.2433 10.1321 15.5216 7.32316 15.5216Z" fill="#E4E7E7"/>
<path d="M7.32352 6.73193C5.28916 6.73193 3.62463 8.3973 3.62463 10.4328C3.62463 12.4683 5.28911 14.1337 7.32352 14.1337C9.35794 14.1337 11.0224 12.4683 11.0224 10.4328C11.0224 8.3973 9.35789 6.73193 7.32352 6.73193ZM7.32352 13.2084C5.79773 13.2084 4.54938 11.9594 4.54938 10.4328C4.54938 8.90624 5.79777 7.65718 7.32352 7.65718C8.84927 7.65718 10.0977 8.90624 10.0977 10.4328C10.0977 11.9594 8.84927 13.2084 7.32352 13.2084Z" fill="#CDCFCF"/>
</svg>
