<svg width="18" height="22" viewBox="0 0 18 22" fill="none" xmlns="http://www.w3.org/2000/svg">
<path d="M8.28837 8.46186L7.81265 8.30794L8.28837 8.46186ZM5.5319 8.96186L5.82661 8.55794L5.5319 8.96186ZM7.58647 10.6312L7.11076 10.4773L7.58647 10.6312ZM7.51407 10.4081L7.21936 10.812L7.51407 10.4081ZM7.13787 13.1933L7.43257 13.5972L7.13787 13.1933ZM6.8297 12.9702L7.30542 13.1241L6.8297 12.9702ZM9.35255 11.7495L9.64726 11.3456L9.35255 11.7495ZM9.11679 11.7495L8.82208 11.3456L9.11679 11.7495ZM11.6396 12.9702L11.1639 13.1241L11.6396 12.9702ZM11.3315 13.1933L11.0368 13.5972L11.3315 13.1933ZM10.9553 10.4081L10.6606 10.0042L10.9553 10.4081ZM10.8829 10.6312L11.3586 10.4773L10.8829 10.6312ZM12.9374 8.96186L13.2321 9.36578L12.9374 8.96186ZM10.181 8.46186L9.70525 8.61578L10.181 8.46186ZM9.42496 6.12525L9.90068 5.97133L9.42496 6.12525ZM9.04438 6.12525L9.5201 6.27917L9.04438 6.12525ZM8.94924 6.27917L9.70525 8.61578L10.6567 8.30794L9.90068 5.97133L8.94924 6.27917ZM10.3713 9.10029H12.8196V8.10029H10.3713V9.10029ZM12.6427 8.55794L10.6606 10.0042L11.25 10.812L13.2321 9.36578L12.6427 8.55794ZM10.4071 10.7851L11.1639 13.1241L12.1154 12.8163L11.3586 10.4773L10.4071 10.7851ZM11.6262 12.7894L9.64726 11.3456L9.05785 12.1534L11.0368 13.5972L11.6262 12.7894ZM8.82208 11.3456L6.84316 12.7894L7.43257 13.5972L9.41149 12.1534L8.82208 11.3456ZM7.30542 13.1241L8.06219 10.7851L7.11076 10.4773L6.35398 12.8163L7.30542 13.1241ZM7.80877 10.0042L5.82661 8.55794L5.2372 9.36578L7.21936 10.812L7.80877 10.0042ZM5.64979 9.10029H8.09808V8.10029H5.64979V9.10029ZM8.76409 8.61578L9.5201 6.27917L8.56866 5.97133L7.81265 8.30794L8.76409 8.61578ZM8.09808 9.10029C8.40166 9.10029 8.67064 8.90462 8.76409 8.61578L7.81265 8.30794C7.8527 8.18416 7.96798 8.10029 8.09808 8.10029V9.10029ZM5.82661 8.55794C6.06113 8.72906 5.9401 9.10029 5.64979 9.10029V8.10029C4.97239 8.10029 4.68998 8.96652 5.2372 9.36578L5.82661 8.55794ZM8.06219 10.7851C8.15529 10.4974 8.05308 10.1824 7.80877 10.0042L7.21936 10.812C7.11466 10.7356 7.07086 10.6006 7.11076 10.4773L8.06219 10.7851ZM6.84316 12.7894C7.07803 12.6181 7.39492 12.8475 7.30542 13.1241L6.35398 12.8163C6.14515 13.4617 6.88456 13.9971 7.43257 13.5972L6.84316 12.7894ZM9.64726 11.3456C9.40144 11.1662 9.0679 11.1662 8.82208 11.3456L9.41149 12.1534C9.30614 12.2303 9.1632 12.2303 9.05785 12.1534L9.64726 11.3456ZM11.1639 13.1241C11.0744 12.8475 11.3913 12.618 11.6262 12.7894L11.0368 13.5972C11.5848 13.9971 12.3242 13.4617 12.1154 12.8163L11.1639 13.1241ZM10.6606 10.0042C10.4163 10.1824 10.3141 10.4974 10.4071 10.7851L11.3586 10.4773C11.3985 10.6006 11.3547 10.7356 11.25 10.812L10.6606 10.0042ZM12.8196 9.10029C12.5292 9.10029 12.4082 8.72905 12.6427 8.55794L13.2321 9.36578C13.7794 8.96652 13.497 8.10029 12.8196 8.10029V9.10029ZM9.70525 8.61578C9.7987 8.90462 10.0677 9.10029 10.3713 9.10029V8.10029C10.5014 8.10029 10.6166 8.18416 10.6567 8.30794L9.70525 8.61578ZM9.90068 5.97133C9.69166 5.32531 8.77768 5.32531 8.56866 5.97133L9.5201 6.27917C9.43052 6.55603 9.03882 6.55603 8.94924 6.27917L9.90068 5.97133Z" fill="#00337C"/>
<path d="M1.23633 17.2367V8.96339C1.23633 5.33002 1.23633 3.51334 2.40769 2.3846C3.57906 1.25586 5.46434 1.25586 9.2349 1.25586C13.0055 1.25586 14.8907 1.25586 16.0621 2.3846C17.2335 3.51334 17.2335 5.33002 17.2335 8.96339V17.2367C17.2335 19.5425 17.2335 20.6954 16.4608 21.1081C14.9644 21.9073 12.1576 19.2411 10.8246 18.4383C10.0515 17.9727 9.66502 17.7399 9.2349 17.7399C8.80478 17.7399 8.41825 17.9727 7.64519 18.4383C6.31222 19.2411 3.50539 21.9073 2.00904 21.1081C1.23633 20.6954 1.23633 19.5425 1.23633 17.2367Z" stroke="#00337C" stroke-width="1.5" stroke-linecap="round" stroke-linejoin="round"/>
</svg>
