<svg width="24" height="25" viewBox="0 0 24 25" fill="none" xmlns="http://www.w3.org/2000/svg">
<path d="M11.7871 23.5918C17.8622 23.5918 22.7871 18.6669 22.7871 12.5918C22.7871 6.51666 17.8622 1.5918 11.7871 1.5918C5.71198 1.5918 0.787109 6.51666 0.787109 12.5918C0.787109 18.6669 5.71198 23.5918 11.7871 23.5918Z" stroke="#904C26" stroke-width="1.5"/>
<path d="M11.7867 16.9914C14.2168 16.9914 16.1867 15.0215 16.1867 12.5914C16.1867 10.1614 14.2168 8.19141 11.7867 8.19141C9.35667 8.19141 7.38672 10.1614 7.38672 12.5914C7.38672 15.0215 9.35667 16.9914 11.7867 16.9914Z" stroke="#904C26" stroke-width="1.5"/>
<path d="M15.0879 9.29258L19.4879 4.89258" stroke="#904C26" stroke-width="1.5"/>
<path d="M4.08789 20.2926L8.48789 15.8926" stroke="#904C26" stroke-width="1.5"/>
<path d="M8.48789 9.29258L4.08789 4.89258" stroke="#904C26" stroke-width="1.5"/>
<path d="M19.4879 20.2926L15.0879 15.8926" stroke="#904C26" stroke-width="1.5"/>
</svg>
