<svg width="18" height="20" viewBox="0 0 18 20" fill="none" xmlns="http://www.w3.org/2000/svg">
<path d="M11.3066 0.839844H11.8066V0.339844H11.3066V0.839844ZM17.4567 6.99089H17.9567V6.49089H17.4567V6.99089ZM12.8066 1.66636L13.1602 1.31284L12.3066 0.459098V1.66636H12.8066ZM16.6305 5.49089V5.99089H17.8374L16.9841 5.13736L16.6305 5.49089ZM4.97909 9.10938L5.47909 9.10938V9.10938H4.97909ZM4.97909 11.4219L5.47909 11.4219V11.4219H4.97909ZM4.97909 13.7363L5.47909 13.7363V13.7363H4.97909ZM6.25391 1.33984H11.3066V0.339844H6.25391V1.33984ZM1.75391 5.83984C1.75391 3.35456 3.76863 1.33984 6.25391 1.33984V0.339844C3.21634 0.339844 0.753906 2.80228 0.753906 5.83984H1.75391ZM1.75391 13.8462V5.83984H0.753906V13.8462H1.75391ZM6.25391 18.3462C3.76863 18.3462 1.75391 16.3315 1.75391 13.8462H0.753906C0.753906 16.8838 3.21634 19.3462 6.25391 19.3462V18.3462ZM12.4567 18.3462H6.25391V19.3462H12.4567V18.3462ZM16.9567 13.8462C16.9567 16.3315 14.942 18.3462 12.4567 18.3462V19.3462C15.4943 19.3462 17.9567 16.8838 17.9567 13.8462H16.9567ZM16.9567 6.99089V13.8462H17.9567V6.99089H16.9567ZM17.4567 6.49089H15.0566V7.49089H17.4567V6.49089ZM15.0566 6.49089C13.2617 6.49089 11.8066 5.03581 11.8066 3.24089H10.8066C10.8066 5.5881 12.7094 7.49089 15.0566 7.49089V6.49089ZM11.8066 3.24089V0.839844H10.8066V3.24089H11.8066ZM12.3066 1.66636V3.24089H13.3066V1.66636H12.3066ZM16.9841 5.13736L13.1602 1.31284L12.4531 2.01988L16.2769 5.84441L16.9841 5.13736ZM15.0566 5.99089H16.6305V4.99089H15.0566V5.99089ZM12.3066 3.24089C12.3066 4.75967 13.5379 5.99089 15.0566 5.99089V4.99089C14.0901 4.99089 13.3066 4.20738 13.3066 3.24089H12.3066ZM3.82227 9.10938C3.82227 9.24745 3.71034 9.35938 3.57227 9.35938V8.35938C3.15805 8.35938 2.82227 8.69516 2.82227 9.10938H3.82227ZM3.57227 8.85938C3.71034 8.85938 3.82227 8.9713 3.82227 9.10938H2.82227C2.82227 9.52359 3.15805 9.85938 3.57227 9.85938V8.85938ZM4.72909 8.85938H3.57227V9.85938H4.72909V8.85938ZM4.47909 9.10937C4.47909 8.9713 4.59102 8.85938 4.72909 8.85938V9.85938C5.14331 9.85938 5.47909 9.52359 5.47909 9.10938L4.47909 9.10937ZM4.72909 9.35938C4.59102 9.35938 4.47909 9.24745 4.47909 9.10938H5.47909C5.47909 8.69516 5.14331 8.35938 4.72909 8.35938V9.35938ZM3.57227 9.35938H4.72909V8.35938H3.57227V9.35938ZM3.57227 10.6719C3.15805 10.6719 2.82227 11.0077 2.82227 11.4219H3.82227C3.82227 11.5599 3.71034 11.6719 3.57227 11.6719V10.6719ZM4.72909 10.6719H3.57227V11.6719H4.72909V10.6719ZM5.47909 11.4219C5.47909 11.0077 5.14331 10.6719 4.72909 10.6719V11.6719C4.59102 11.6719 4.47909 11.5599 4.47909 11.4219H5.47909ZM4.72909 12.1719C5.14331 12.1719 5.47909 11.8361 5.47909 11.4219L4.47909 11.4219C4.47909 11.2838 4.59102 11.1719 4.72909 11.1719V12.1719ZM3.57227 12.1719H4.72909V11.1719H3.57227V12.1719ZM2.82227 11.4219C2.82227 11.8361 3.15805 12.1719 3.57227 12.1719V11.1719C3.71034 11.1719 3.82227 11.2838 3.82227 11.4219H2.82227ZM3.82227 13.7363C3.82227 13.8744 3.71034 13.9863 3.57227 13.9863V12.9863C3.15805 12.9863 2.82227 13.3221 2.82227 13.7363H3.82227ZM3.57227 13.4863C3.71034 13.4863 3.82227 13.5983 3.82227 13.7363H2.82227C2.82227 14.1505 3.15805 14.4863 3.57227 14.4863V13.4863ZM4.72909 13.4863H3.57227V14.4863H4.72909V13.4863ZM4.47909 13.7363C4.47909 13.5983 4.59102 13.4863 4.72909 13.4863V14.4863C5.14331 14.4863 5.47909 14.1505 5.47909 13.7363L4.47909 13.7363ZM4.72909 13.9863C4.59102 13.9863 4.47909 13.8744 4.47909 13.7363H5.47909C5.47909 13.3221 5.14331 12.9863 4.72909 12.9863V13.9863ZM3.57227 13.9863H4.72909V12.9863H3.57227V13.9863ZM7.04297 10.6719C6.62876 10.6719 6.29297 11.0077 6.29297 11.4219H7.29297C7.29297 11.5599 7.18104 11.6719 7.04297 11.6719V10.6719ZM15.1393 10.6719H7.04297V11.6719H15.1393V10.6719ZM15.8893 11.4219C15.8893 11.0077 15.5535 10.6719 15.1393 10.6719V11.6719C15.0013 11.6719 14.8893 11.5599 14.8893 11.4219H15.8893ZM15.1393 12.1719C15.5535 12.1719 15.8893 11.8361 15.8893 11.4219H14.8893C14.8893 11.2838 15.0013 11.1719 15.1393 11.1719V12.1719ZM7.04297 12.1719H15.1393V11.1719H7.04297V12.1719ZM6.29297 11.4219C6.29297 11.8361 6.62876 12.1719 7.04297 12.1719V11.1719C7.18104 11.1719 7.29297 11.2838 7.29297 11.4219H6.29297ZM7.29297 9.10938C7.29297 9.24745 7.18104 9.35938 7.04297 9.35938V8.35938C6.62876 8.35938 6.29297 8.69516 6.29297 9.10938H7.29297ZM7.04297 8.85938C7.18104 8.85938 7.29297 8.9713 7.29297 9.10938H6.29297C6.29297 9.52359 6.62876 9.85938 7.04297 9.85938V8.85938ZM15.1393 8.85938H7.04297V9.85938H15.1393V8.85938ZM14.8893 9.10938C14.8893 8.9713 15.0013 8.85938 15.1393 8.85938V9.85938C15.5535 9.85938 15.8893 9.52359 15.8893 9.10938H14.8893ZM15.1393 9.35938C15.0013 9.35938 14.8893 9.24745 14.8893 9.10938H15.8893C15.8893 8.69516 15.5535 8.35938 15.1393 8.35938V9.35938ZM7.04297 9.35938H15.1393V8.35938H7.04297V9.35938ZM7.04297 12.9863C6.62876 12.9863 6.29297 13.3221 6.29297 13.7363H7.29297C7.29297 13.8744 7.18104 13.9863 7.04297 13.9863V12.9863ZM15.1393 12.9863H7.04297V13.9863H15.1393V12.9863ZM15.8893 13.7363C15.8893 13.3221 15.5535 12.9863 15.1393 12.9863V13.9863C15.0013 13.9863 14.8893 13.8744 14.8893 13.7363H15.8893ZM15.1393 14.4863C15.5535 14.4863 15.8893 14.1505 15.8893 13.7363H14.8893C14.8893 13.5983 15.0013 13.4863 15.1393 13.4863V14.4863ZM7.04297 14.4863H15.1393V13.4863H7.04297V14.4863ZM6.29297 13.7363C6.29297 14.1505 6.62876 14.4863 7.04297 14.4863V13.4863C7.18104 13.4863 7.29297 13.5983 7.29297 13.7363H6.29297Z" fill="#002A51"/>
</svg>
