<svg width="19" height="22" viewBox="0 0 19 22" fill="none" xmlns="http://www.w3.org/2000/svg">
<path d="M13.45 1.71237L3.65344 6.61328H13.8974C14.4497 6.61328 14.8974 6.16557 14.8974 5.61328V2.6067C14.8974 1.86323 14.1149 1.37974 13.45 1.71237Z" fill="white"/>
<path fill-rule="evenodd" clip-rule="evenodd" d="M3.28027 7.73828C1.62342 7.73828 0.280273 9.08143 0.280273 10.7383V18.2383C0.280273 19.8951 1.62342 21.2383 3.28028 21.2383H15.2706C16.9275 21.2383 18.2706 19.8951 18.2706 18.2383V17.1751C17.9873 17.3725 17.6429 17.4883 17.2714 17.4883H13.6494C12.6829 17.4883 11.8994 16.7048 11.8994 15.7383V13.2383C11.8994 12.2718 12.6829 11.4883 13.6494 11.4883H17.2714C17.6429 11.4883 17.9873 11.604 18.2706 11.8014V10.7383C18.2706 9.08143 16.9275 7.73828 15.2706 7.73828H3.28027ZM13.3994 13.2383C13.3994 13.1002 13.5113 12.9883 13.6494 12.9883H17.2714C17.4095 12.9883 17.5214 13.1002 17.5214 13.2383V15.7383C17.5214 15.8764 17.4095 15.9883 17.2714 15.9883H13.6494C13.5113 15.9883 13.3994 15.8764 13.3994 15.7383V13.2383Z" fill="white"/>
</svg>
