<svg width="21" height="20" viewBox="0 0 21 20" fill="none" xmlns="http://www.w3.org/2000/svg">
<path fill-rule="evenodd" clip-rule="evenodd" d="M4.14062 0.614014C1.93149 0.614014 0.140625 2.40488 0.140625 4.61402V16.7179V18.0532C0.140625 19.0942 1.3388 19.6791 2.15959 19.0387L4.79482 16.9824C5.0145 16.811 5.28515 16.7179 5.56379 16.7179H16.1134C18.3225 16.7179 20.1134 14.927 20.1134 12.7179V4.61401C20.1134 2.40487 18.3225 0.614014 16.1134 0.614014H4.14062ZM6.13245 9.61401C6.68398 9.61401 7.13109 9.1663 7.13109 8.61401C7.13109 8.06173 6.68398 7.61401 6.13245 7.61401C5.58092 7.61401 5.13381 8.06173 5.13381 8.61401C5.13381 9.1663 5.58092 9.61401 6.13245 9.61401ZM11.1256 8.61401C11.1256 9.1663 10.6785 9.61401 10.127 9.61401C9.57547 9.61401 9.12836 9.1663 9.12836 8.61401C9.12836 8.06173 9.57547 7.61401 10.127 7.61401C10.6785 7.61401 11.1256 8.06173 11.1256 8.61401ZM14.1216 9.61401C14.6731 9.61401 15.1202 9.1663 15.1202 8.61401C15.1202 8.06173 14.6731 7.61401 14.1216 7.61401C13.57 7.61401 13.1229 8.06173 13.1229 8.61401C13.1229 9.1663 13.57 9.61401 14.1216 9.61401Z" fill="white"/>
</svg>
