<svg width="22" height="22" viewBox="0 0 22 22" fill="none" xmlns="http://www.w3.org/2000/svg">
<path d="M4.73645 12.8233C9.50296 15.7163 15.1376 11.2125 15.1376 11.2125C9.91421 20.6836 4.73645 12.8233 4.73645 12.8233ZM20.8055 8.4317L17.7047 7.84977C15.5883 7.4528 13.8042 6.03744 12.9278 4.07132L11.6526 1.18242C11.4469 0.729339 10.8156 0.702312 10.5788 1.14084L9.06891 3.91128C8.03461 5.8005 6.14047 7.06414 3.9971 7.28653L0.858884 7.61282C0.368734 7.6627 0.144426 8.25919 0.487116 8.62082L2.65333 10.9112C4.13209 12.4783 4.74686 14.673 4.29617 16.7804L3.63569 19.8668C3.53185 20.3531 4.0303 20.7459 4.47684 20.5339L7.32638 19.1809C9.27452 18.2561 11.5467 18.3496 13.4138 19.4303L16.1408 21.012C16.5707 21.2614 17.0962 20.9101 17.0359 20.4196L16.6289 17.2876C16.3526 15.151 17.1439 13.0145 18.7473 11.5742L21.0963 9.46672C21.4618 9.13419 21.2936 8.52523 20.8055 8.4317Z" fill="#00EF49"/>
</svg>
