<svg width="25" height="24" viewBox="0 0 25 24" fill="none" xmlns="http://www.w3.org/2000/svg">
<path d="M3.5 2.25C3.08579 2.25 2.75 2.58579 2.75 3C2.75 3.41421 3.08579 3.75 3.5 3.75L3.5 2.25ZM19.5 16.75C19.9142 16.75 20.25 16.4142 20.25 16C20.25 15.5858 19.9142 15.25 19.5 15.25V16.75ZM19.6894 12.2425L20.417 12.4244L19.6894 12.2425ZM21.1894 6.24254L20.4618 6.06063L21.1894 6.24254ZM3.5 3.75H5.21922V2.25H3.5L3.5 3.75ZM5.46176 3.93937L5.77239 5.1819L7.22761 4.8181L6.91697 3.57556L5.46176 3.93937ZM5.77239 5.1819L7.77239 13.1819L9.22761 12.8181L7.22761 4.8181L5.77239 5.1819ZM8.5 12.25H8V13.75H8.5V12.25ZM8 16.75H19.5V15.25H8V16.75ZM5.75 14.5C5.75 15.7426 6.75736 16.75 8 16.75V15.25C7.58579 15.25 7.25 14.9142 7.25 14.5H5.75ZM8 12.25C6.75736 12.25 5.75 13.2574 5.75 14.5H7.25C7.25 14.0858 7.58579 13.75 8 13.75V12.25ZM6.5 5.75H20.2192V4.25H6.5V5.75ZM20.4618 6.06063L18.9618 12.0606L20.417 12.4244L21.917 6.42444L20.4618 6.06063ZM18.7192 12.25H8.5V13.75H18.7192V12.25ZM18.75 20C18.75 20.1381 18.6381 20.25 18.5 20.25V21.75C19.4665 21.75 20.25 20.9665 20.25 20H18.75ZM18.5 20.25C18.3619 20.25 18.25 20.1381 18.25 20H16.75C16.75 20.9665 17.5335 21.75 18.5 21.75V20.25ZM18.25 20C18.25 19.8619 18.3619 19.75 18.5 19.75V18.25C17.5335 18.25 16.75 19.0335 16.75 20H18.25ZM18.5 19.75C18.6381 19.75 18.75 19.8619 18.75 20H20.25C20.25 19.0335 19.4665 18.25 18.5 18.25V19.75ZM8.75 20C8.75 20.1381 8.63807 20.25 8.5 20.25V21.75C9.4665 21.75 10.25 20.9665 10.25 20H8.75ZM8.5 20.25C8.36193 20.25 8.25 20.1381 8.25 20H6.75C6.75 20.9665 7.5335 21.75 8.5 21.75V20.25ZM8.25 20C8.25 19.8619 8.36193 19.75 8.5 19.75V18.25C7.5335 18.25 6.75 19.0335 6.75 20H8.25ZM8.5 19.75C8.63807 19.75 8.75 19.8619 8.75 20H10.25C10.25 19.0335 9.4665 18.25 8.5 18.25V19.75ZM18.9618 12.0606C18.9339 12.1719 18.8339 12.25 18.7192 12.25V13.75C19.5222 13.75 20.2222 13.2035 20.417 12.4244L18.9618 12.0606ZM20.2192 5.75C20.3819 5.75 20.5012 5.90285 20.4618 6.06063L21.917 6.42444C22.1931 5.31993 21.3577 4.25 20.2192 4.25V5.75ZM5.21922 3.75C5.33394 3.75 5.43394 3.82807 5.46176 3.93937L6.91697 3.57556C6.72221 2.79652 6.02224 2.25 5.21922 2.25V3.75Z" fill="#717171"/>
</svg>
