<svg width="41" height="41" viewBox="0 0 41 41" fill="none" xmlns="http://www.w3.org/2000/svg">
<path d="M20.5234 40.585C31.5691 40.585 40.5234 31.6307 40.5234 20.585C40.5234 9.53927 31.5691 0.584961 20.5234 0.584961C9.47774 0.584961 0.523438 9.53927 0.523438 20.585C0.523438 31.6307 9.47774 40.585 20.5234 40.585Z" fill="#324A5E"/>
<path d="M39.8898 25.595L32.5497 18.2549L11.0502 21.3482L7.41797 22.0007L25.4016 39.9844C32.4837 38.2088 38.068 32.6584 39.8898 25.595Z" fill="#2B3B4E"/>
<path d="M33.9709 20.9304C33.9709 23.9014 27.9499 23.6201 20.5226 23.6201C13.0952 23.6201 7.07422 23.9014 7.07422 20.9304C7.07422 17.9595 13.0952 14.2471 20.5226 14.2471C27.9499 14.2471 33.9709 17.9595 33.9709 20.9304Z" fill="#E2C89A"/>
<path d="M20.5214 14.2471C20.5065 14.2471 20.4915 14.2473 20.4766 14.2475V23.6201C20.4915 23.6201 20.5065 23.6201 20.5214 23.6201C27.9488 23.6201 33.9698 23.9014 33.9698 20.9304C33.9698 17.9595 27.9488 14.2471 20.5214 14.2471Z" fill="#CEB793"/>
<path d="M14.0817 19.6263C14.6669 19.6263 15.1413 17.7288 15.1413 15.388C15.1413 15.2273 15.1388 15.0689 15.1345 14.9128C14.3939 15.1003 13.6871 15.321 13.0234 15.5703C13.0472 17.8266 13.5119 19.6263 14.0817 19.6263Z" fill="#BFA077"/>
<path d="M20.5203 14.2471C20.0664 14.2471 19.6181 14.2614 19.1758 14.288C19.1813 17.24 19.781 19.6263 20.5203 19.6263C21.2596 19.6263 21.8593 17.2399 21.8648 14.288C21.4225 14.2614 20.9742 14.2471 20.5203 14.2471Z" fill="#BFA077"/>
<path d="M20.5253 14.2471C20.5102 14.2471 20.4955 14.2478 20.4805 14.2478V19.6219C20.4954 19.6238 20.5102 19.6265 20.5253 19.6265C21.2646 19.6265 21.8643 17.2401 21.8698 14.2882C21.4275 14.2614 20.9792 14.2471 20.5253 14.2471Z" fill="#AD916F"/>
<path d="M27.2509 19.6268C27.8115 19.6268 28.2699 17.8857 28.3077 15.6821C27.6455 15.4207 26.9397 15.1868 26.1963 14.9873C26.1931 15.1194 26.1914 15.253 26.1914 15.3886C26.1914 17.7293 26.6658 19.6268 27.2509 19.6268Z" fill="#AD916F"/>
</svg>
