<svg width="41" height="41" viewBox="0 0 41 41" fill="none" xmlns="http://www.w3.org/2000/svg">
<path d="M20.3125 40.6719C31.3582 40.6719 40.3125 31.7176 40.3125 20.6719C40.3125 9.62618 31.3582 0.671875 20.3125 0.671875C9.26681 0.671875 0.3125 9.62618 0.3125 20.6719C0.3125 31.7176 9.26681 40.6719 20.3125 40.6719Z" fill="#27AE60"/>
<path d="M28.8314 7.91211L15.1836 31.6387L22.0116 38.4729C31.9897 37.6325 39.8815 29.4677 40.2927 19.3734L28.8314 7.91211Z" fill="#1D8747"/>
<path d="M15.9411 31.8785H24.6849C25.3568 31.8785 25.9195 31.3692 25.9863 30.7007L28.0907 9.65625H12.5352L14.6397 30.7007C14.7065 31.3692 15.269 31.8785 15.9411 31.8785Z" fill="#D0D5D9"/>
<path d="M13.3086 7.52246L24.0728 5.3696C24.6402 5.25606 25.2266 5.4337 25.6357 5.84286L27.3153 7.52246H13.3086Z" fill="#BFF796"/>
<path d="M20.332 9.65625V31.8785H24.6814C25.3533 31.8785 25.916 31.3692 25.9828 30.7007L28.0873 9.65625H20.332Z" fill="#C0C2C4"/>
<path d="M25.6333 5.84281C25.2242 5.43365 24.6376 5.25614 24.0703 5.36954L20.332 6.11715V7.52227H27.3129L25.6333 5.84281Z" fill="#A4D37F"/>
<path d="M27.7671 11.878H12.8624C12.069 11.878 11.4258 11.2348 11.4258 10.4414V8.87009C11.4258 8.07683 12.069 7.43359 12.8624 7.43359H27.7671C28.5605 7.43359 29.2037 8.07683 29.2037 8.87009V10.4414C29.2036 11.2348 28.5603 11.878 27.7671 11.878Z" fill="#345F41"/>
<path d="M27.7619 7.43359H20.332V11.878H27.7619C28.5553 11.878 29.1986 11.2348 29.1986 10.4414V8.87023C29.1984 8.07669 28.5552 7.43359 27.7619 7.43359Z" fill="#2A4F34"/>
<path d="M27.1014 19.5449H13.5234L13.768 21.9915H26.8568L27.1014 19.5449Z" fill="#859E78"/>
<path d="M27.0985 19.5449H20.332V21.9915H26.8539L27.0985 19.5449Z" fill="#76896B"/>
<path d="M20.3145 23.7287C21.9509 23.7287 23.2775 22.4021 23.2775 20.7657C23.2775 19.1293 21.9509 17.8027 20.3145 17.8027C18.6781 17.8027 17.3516 19.1293 17.3516 20.7657C17.3516 22.4021 18.6781 23.7287 20.3145 23.7287Z" fill="#86C867"/>
<path d="M23.2725 20.7671C23.2725 19.1383 21.958 17.8168 20.332 17.8047V23.7295C21.958 23.7174 23.2725 22.3959 23.2725 20.7671Z" fill="#27AE60"/>
</svg>
