<svg width="41" height="41" viewBox="0 0 41 41" fill="none" xmlns="http://www.w3.org/2000/svg">
<rect x="16.9836" y="9.8752" width="1.9" height="0.9" rx="0.45" stroke="#909090" stroke-width="0.1"/>
<path d="M20.3359 40.585C31.3816 40.585 40.3359 31.6307 40.3359 20.585C40.3359 9.53927 31.3816 0.584961 20.3359 0.584961C9.29024 0.584961 0.335938 9.53927 0.335938 20.585C0.335938 31.6307 9.29024 40.585 20.3359 40.585Z" fill="#72B0E0"/>
<path d="M25.51 7.96387L14.2812 32.1849L19.1164 40.5446C19.5206 40.569 19.9276 40.5829 20.3378 40.5829C29.8077 40.5829 37.7397 34.0009 39.8104 25.1622L25.51 7.96387Z" fill="#4A8BC9"/>
<path d="M17.9228 11.778L17.536 7.75488H25.6719L25.2852 11.778H17.9228Z" fill="#FF7956"/>
<path d="M11.4221 16.624C11.9217 15.2073 12.8951 14.2038 14.1632 13.7988C15.0841 13.5046 16.0771 13.5595 17.0347 13.9574C17.1876 14.0209 17.3383 14.0932 17.4865 14.1729V11.7783H21.6055V16.4281H17.4865V16.7809C16.6771 15.8937 15.6497 15.5007 14.7942 15.7739C13.3985 16.2198 12.763 18.2982 13.4066 20.3127C13.7081 21.2567 14.2491 22.0792 14.9298 22.6285C15.3553 22.9717 15.8108 23.188 16.2542 23.2635L15.4444 25.2052C13.6865 24.7098 12.1251 23.1155 11.4314 20.9436C10.9617 19.4733 10.9584 17.9392 11.4221 16.624Z" fill="#46F8FF"/>
<path d="M17.4865 20.3098V16.4287H21.6055V33.4153H16.8027C15.0454 33.4153 13.6158 31.9856 13.6158 30.2283C13.6158 29.8043 13.6982 29.3917 13.861 29.0024L15.4444 25.2058L16.2542 23.2641L17.4865 20.3098Z" fill="#EEBF00"/>
<path d="M25.7231 16.4287V20.3098L29.3486 29.0019C29.5113 29.3917 29.5938 29.8043 29.5938 30.2283C29.5938 31.9856 28.1641 33.4153 26.4068 33.4153H21.6041V16.4287H25.7231Z" fill="#FFCD00"/>
<path d="M21.6071 11.7783H27.2812V13.8518H25.7261V16.4281H21.6071V11.7783Z" fill="#BDFDFF"/>
</svg>
