<svg width="41" height="41" viewBox="0 0 41 41" fill="none" xmlns="http://www.w3.org/2000/svg">
<path d="M40.2131 15.7011C38.003 7.06026 30.1657 0.671875 20.836 0.671875C9.79034 0.671875 0.835938 9.62628 0.835938 20.6719C0.835938 30.0017 7.22432 37.839 15.8652 40.049L40.2131 15.7011Z" fill="#692811"/>
<path d="M40.8374 20.6716C40.8374 18.9556 40.621 17.2901 40.2144 15.7008L33.8808 9.36719L6.05469 30.2369L15.8665 40.0487C17.4558 40.4553 19.1213 40.6717 20.8373 40.6717C31.883 40.6717 40.8374 31.7173 40.8374 20.6716Z" fill="#3A160A"/>
<path d="M33.8804 9.36719H20.8368L19.0977 27.6281H33.8804V9.36719Z" fill="#FFD23E"/>
<path d="M7.79297 9.36719V15.0194C9.23375 15.0194 10.4016 16.1874 10.4016 17.6281C10.4016 19.0688 9.23375 20.2368 7.79297 20.2368V27.6281H20.8365V9.36719H7.79297Z" fill="#FFE376"/>
<path d="M11.2704 22.4121H9.53125V24.1513H11.2704V22.4121Z" fill="#FFD23E"/>
<path d="M32.1454 14.584H30.4062V16.3231H32.1454V14.584Z" fill="#FFC207"/>
<path d="M29.5345 24.149C30.9752 24.149 32.1431 22.9811 32.1431 21.5403C32.1431 20.0996 30.9752 18.9316 29.5345 18.9316C28.0937 18.9316 26.9258 20.0996 26.9258 21.5403C26.9258 22.9811 28.0937 24.149 29.5345 24.149Z" fill="#FFC207"/>
<path d="M25.1868 16.3228C26.6275 16.3228 27.7955 15.1549 27.7955 13.7141C27.7955 12.2734 26.6275 11.1055 25.1868 11.1055C23.7461 11.1055 22.5781 12.2734 22.5781 13.7141C22.5781 15.1549 23.7461 16.3228 25.1868 16.3228Z" fill="#FFC207"/>
<path d="M15.8351 19.5842C17.636 19.5842 19.096 18.1243 19.096 16.3234C19.096 14.5224 17.636 13.0625 15.8351 13.0625C14.0342 13.0625 12.5742 14.5224 12.5742 16.3234C12.5742 18.1243 14.0342 19.5842 15.8351 19.5842Z" fill="#FFD23E"/>
<path d="M24.7499 25.8896C24.7499 23.7285 22.998 21.9766 20.8368 21.9766L19.0977 27.6288H24.3421C24.6027 27.1047 24.7499 26.5145 24.7499 25.8896Z" fill="#FFC207"/>
<path d="M16.9219 25.8896C16.9219 26.5145 17.0691 27.1048 17.3296 27.6288H20.8349V21.9766C18.6738 21.9766 16.9219 23.7285 16.9219 25.8896Z" fill="#FFD23E"/>
<path d="M20.8368 25.8887L19.0977 28.9321L35.6194 28.4974V25.8887H20.8368Z" fill="#B78456"/>
<path d="M6.05078 25.8906V27.6297L20.8334 28.9341V25.8906H6.05078Z" fill="#C9A06C"/>
<path d="M20.8344 28.0645L19.9648 28.934L20.8344 30.2384H35.617V28.4992C26.2692 28.4992 24.6388 28.2818 20.8344 28.0645Z" fill="#C9A06C"/>
<path d="M6.05469 30.2376H20.8373V28.0637C17.0329 27.8463 12.7938 27.6289 6.05469 27.6289V30.2376Z" fill="#DBBC82"/>
</svg>
