<svg width="41" height="41" viewBox="0 0 41 41" fill="none" xmlns="http://www.w3.org/2000/svg">
<path d="M20.3359 40.6719C31.3816 40.6719 40.3359 31.7176 40.3359 20.6719C40.3359 9.62618 31.3816 0.671875 20.3359 0.671875C9.29024 0.671875 0.335938 9.62618 0.335938 20.6719C0.335938 31.7176 9.29024 40.6719 20.3359 40.6719Z" fill="#AE9676"/>
<path d="M27.9521 8.36133L12.2266 33.1126L19.7781 40.6637C19.9637 40.6688 20.1498 40.6719 20.3366 40.6719C31.3579 40.6719 40.2962 31.757 40.3357 20.7449L27.9521 8.36133Z" fill="#897256"/>
<path d="M14.3 34.0054H26.3762C27.9506 34.0054 29.227 32.7291 29.227 31.1546V14.634C29.227 13.0596 27.9506 11.7832 26.3762 11.7832H14.3C12.7256 11.7832 11.4492 13.0596 11.4492 14.634V31.1546C11.4492 32.7291 12.7256 34.0054 14.3 34.0054Z" fill="#5E4534"/>
<path d="M26.374 11.783H20.2461V34.0052H26.374C27.9485 34.0052 29.2248 32.7288 29.2248 31.1544V14.6337C29.2248 13.0593 27.9485 11.783 26.374 11.783Z" fill="#503B2C"/>
<path d="M13.3322 11.9838H27.3376C27.7843 11.9838 28.1463 11.6217 28.1463 11.1751V8.88688C28.1463 8.44015 27.7842 8.07812 27.3376 8.07812H13.3322C12.8855 8.07812 12.5234 8.44028 12.5234 8.88688V11.1751C12.5234 11.6217 12.8856 11.9838 13.3322 11.9838Z" fill="#ECF0F1"/>
<path d="M26.04 27.3382H14.637C14.1039 27.3382 13.6719 26.9061 13.6719 26.373V19.4145C13.6719 18.8814 14.1041 18.4492 14.637 18.4492H26.04C26.573 18.4492 27.0052 18.8814 27.0052 19.4145V26.373C27.0052 26.9061 26.573 27.3382 26.04 27.3382Z" fill="#ECF0F1"/>
<path d="M27.3385 8.07812H20.2461V11.9838H27.3385C27.7852 11.9838 28.1472 11.6217 28.1472 11.1751V8.88688C28.1472 8.44028 27.7851 8.07812 27.3385 8.07812Z" fill="#D6D8D8"/>
<path d="M26.0373 18.4492H20.2461V27.3381H26.0373C26.5704 27.3381 27.0026 26.9061 27.0026 26.3729V19.4143C27.0026 18.8813 26.5704 18.4492 26.0373 18.4492Z" fill="#D6D8D8"/>
<path d="M16.8557 25.1165H23.8143C24.3473 25.1165 24.7795 24.6843 24.7795 24.1512V21.6371C24.7795 21.1041 24.3473 20.6719 23.8143 20.6719H16.8557C16.3227 20.6719 15.8906 21.1041 15.8906 21.6371V24.1512C15.8906 24.6843 16.3228 25.1165 16.8557 25.1165Z" fill="#C63C22"/>
<path d="M23.8151 20.6719H20.2461V25.1163H23.8151C24.3482 25.1163 24.7804 24.6843 24.7804 24.1511V21.637C24.7804 21.1039 24.3482 20.6719 23.8151 20.6719Z" fill="#AF3120"/>
</svg>
