<svg width="41" height="41" viewBox="0 0 41 41" fill="none" xmlns="http://www.w3.org/2000/svg">
<path d="M20.3359 40.585C31.3816 40.585 40.3359 31.6307 40.3359 20.585C40.3359 9.53927 31.3816 0.584961 20.3359 0.584961C9.29024 0.584961 0.335938 9.53927 0.335938 20.585C0.335938 31.6307 9.29024 40.585 20.3359 40.585Z" fill="#FF9D00"/>
<path d="M29.5182 14.1455L12.3516 30.2314L19.1148 40.5441C19.519 40.5685 19.926 40.5824 20.3362 40.5824C29.8061 40.5824 37.7381 34.0004 39.8088 25.1617L29.5182 14.1455Z" fill="#0D1A12" fill-opacity="0.19"/>
<path d="M14.2463 14.8094C14.0872 14.3263 14.0711 13.7626 14.2206 13.2804C14.2925 13.0368 14.4148 12.8083 14.5731 12.6196C14.7236 12.4232 14.9197 12.2796 15.1118 12.1516L15.2902 12.3826C15.1532 12.5342 15.0251 12.6876 14.9504 12.8643C14.709 13.3585 14.8212 14.0364 15.0818 14.4159L14.2463 14.8094Z" fill="#CC9F71"/>
<path d="M10.8867 20.0691L12.1469 29.6651C12.2361 30.3445 12.8151 30.8524 13.5003 30.8524H27.1747C27.8599 30.8524 28.4389 30.3445 28.5281 29.6651L29.7883 20.0691H10.8867Z" fill="#EF4C4A"/>
<path d="M15.4511 22.0486C14.9409 22.0486 14.5273 22.4622 14.5273 22.9724V27.949C14.5273 28.4592 14.9409 28.8727 15.4511 28.8727C15.9613 28.8727 16.3749 28.4592 16.3749 27.949V22.9724C16.3749 22.4622 15.9613 22.0486 15.4511 22.0486ZM20.3392 22.0486C19.829 22.0486 19.4154 22.4622 19.4154 22.9724V27.949C19.4154 28.4592 19.829 28.8727 20.3392 28.8727C20.8494 28.8727 21.263 28.4592 21.263 27.949V22.9724C21.263 22.4622 20.8494 22.0486 20.3392 22.0486ZM25.2272 22.0486C24.717 22.0486 24.3034 22.4622 24.3034 22.9724V27.949C24.3034 28.4592 24.717 28.8727 25.2272 28.8727C25.7374 28.8727 26.1511 28.4592 26.1511 27.949V22.9724C26.1511 22.4622 25.7374 22.0486 25.2272 22.0486Z" fill="white"/>
<path d="M30.2385 17.2041H10.4331C10.2802 17.2041 10.1562 17.328 10.1562 17.4809V19.7922C10.1562 19.9451 10.2802 20.0691 10.4331 20.0691H30.2385C30.3914 20.0691 30.5154 19.9451 30.5154 19.7922V17.4809C30.5153 17.328 30.3914 17.2041 30.2385 17.2041Z" fill="#F16768"/>
<path d="M14.6375 14.3635C16.2064 14.3635 17.4782 15.6354 17.4782 17.2042H11.7969C11.7969 15.6354 13.0687 14.3635 14.6375 14.3635Z" fill="#FDD97C"/>
<path d="M29.3679 13.9863H24.8241C24.5351 13.9863 24.3008 14.2206 24.3008 14.5096V17.204H29.8912V14.5096C29.8912 14.2206 29.6569 13.9863 29.3679 13.9863Z" fill="#CC9F71"/>
<path d="M23.1272 12.3141V17.2049H17.4531V12.3141C17.4531 12.0986 17.6278 11.9238 17.8434 11.9238H22.7369C22.9524 11.9238 23.1272 12.0985 23.1272 12.3141Z" fill="#4A8BC9"/>
<path d="M21.7898 10.5378V11.9237H18.793V10.5378C18.793 10.4161 18.8916 10.3174 19.0134 10.3174H21.5693C21.6911 10.3174 21.7898 10.4161 21.7898 10.5378Z" fill="#72B0E0"/>
<path d="M26.6412 12.3221C26.2567 11.9376 25.6333 11.9376 25.2488 12.3221L19.7617 17.8092L21.1541 19.2016L26.6412 13.7144C27.0257 13.33 27.0257 12.7066 26.6412 12.3221Z" fill="#EEEAE8"/>
<path d="M20.3374 19.6733C20.9099 19.6733 21.374 19.2092 21.374 18.6367C21.374 18.0642 20.9099 17.6001 20.3374 17.6001C19.7649 17.6001 19.3008 18.0642 19.3008 18.6367C19.3008 19.2092 19.7649 19.6733 20.3374 19.6733Z" fill="#FDD97C"/>
<path d="M14.5955 13.3975C13.6928 13.851 12.5976 13.4873 12.1484 12.5847C12.5976 12.3622 13.0982 12.3408 13.5388 12.4863C13.9838 12.636 14.3688 12.9525 14.5955 13.3975Z" fill="#439F47"/>
</svg>
