<svg width="22" height="22" viewBox="0 0 22 22" fill="none" xmlns="http://www.w3.org/2000/svg">
<path d="M13.578 11.541H20.7756C21.1132 11.541 21.4196 11.6786 21.6412 11.9009C21.8629 12.1228 22.0006 12.4298 22.0006 12.768V19.9465C22.0006 20.2843 21.8629 20.5916 21.6412 20.8132C21.4196 21.0354 21.1132 21.1735 20.7756 21.1735H13.578C13.2406 21.1735 12.9341 21.0354 12.7124 20.8132C12.4909 20.5916 12.3531 20.2843 12.3531 19.9465V12.7681C12.3531 12.43 12.4909 12.123 12.7124 11.9011C12.9341 11.6786 13.2406 11.541 13.578 11.541ZM1.8766 0.0913086H9.07404C9.41145 0.0913086 9.71811 0.229149 9.9398 0.4514C10.1615 0.673651 10.2991 0.980486 10.2991 1.31865V8.49698C10.2991 8.83515 10.1615 9.14216 9.9398 9.36406C9.71811 9.58613 9.41145 9.72415 9.07404 9.72415H1.8766C1.54058 9.72415 1.23514 9.58613 1.01327 9.36406L1.01206 9.36301L1.01084 9.36406C0.788971 9.14198 0.651367 8.83497 0.651367 8.49681V1.31865C0.651367 0.980486 0.788971 0.673477 1.01084 0.4514C1.027 0.435214 1.04402 0.419899 1.06123 0.405801C1.27806 0.210527 1.56438 0.0913086 1.8766 0.0913086ZM9.01375 1.37869H1.93654V8.43659H9.01358L9.01375 1.37869ZM13.578 0.0913086H20.7756C21.1132 0.0913086 21.4196 0.229149 21.6412 0.4514C21.8629 0.673477 22.0006 0.980486 22.0006 1.31865V8.49698C22.0006 8.83515 21.8629 9.14216 21.6412 9.36406C21.4196 9.58613 21.1132 9.72415 20.7756 9.72415H13.578C13.2406 9.72415 12.9341 9.58613 12.7124 9.36406C12.4909 9.14216 12.3531 8.83497 12.3531 8.49698V1.31865C12.3531 0.980486 12.4909 0.673477 12.7124 0.4514C12.9341 0.229149 13.2406 0.0913086 13.578 0.0913086ZM20.7155 1.37869H13.6383V8.43659H20.7155V1.37869ZM1.8766 11.541H9.07404C9.41145 11.541 9.71811 11.6786 9.9398 11.9009C10.1615 12.1228 10.2991 12.4298 10.2991 12.768V19.9465C10.2991 20.2843 10.1615 20.5916 9.9398 20.8132C9.71811 21.0354 9.41145 21.1735 9.07404 21.1735H1.8766C1.54058 21.1735 1.23514 21.0354 1.01327 20.8132L1.01206 20.8122L1.01084 20.8132C0.788971 20.5918 0.651367 20.2845 0.651367 19.9466V12.7681C0.651367 12.43 0.788971 12.123 1.01084 11.9011C1.027 11.8847 1.04402 11.8694 1.0614 11.8551C1.27806 11.66 1.56438 11.541 1.8766 11.541ZM9.01375 12.8284H1.93654V19.8863H9.01358L9.01375 12.8284ZM20.7155 12.8284H13.6383V19.8863H20.7155V12.8284Z" fill="#601AB9"/>
</svg>
