<svg width="105" height="30" viewBox="0 0 105 30" fill="none" xmlns="http://www.w3.org/2000/svg">
<path fill-rule="evenodd" clip-rule="evenodd" d="M4.23056 17.3462V20.0843H6.88787V22.1369H4.21055V26.3047C4.21055 27.2233 4.71777 27.6731 5.46154 27.6731C5.83342 27.6731 6.26297 27.5566 6.61367 27.3799L7.27979 29.4137C6.59483 29.6869 6.02878 29.8059 5.30502 29.8247C3.21377 29.9036 1.84509 28.7095 1.84509 26.3047V22.1369H0.046875V20.0843H1.84509V17.5994L4.23056 17.3462Z" fill="white"/>
<path fill-rule="evenodd" clip-rule="evenodd" d="M11.0521 17.3398V21.3816C11.9112 20.2675 12.9679 19.9342 14.0636 19.9342C16.7998 19.9342 18.0107 21.7925 18.0107 24.6284V29.7147H15.6264V24.6496C15.6264 22.8878 14.7073 22.1447 13.4364 22.1447C12.03 22.1447 11.0521 23.3376 11.0521 24.785V29.7147H8.66895V17.5989L11.0521 17.3398Z" fill="white"/>
<path fill-rule="evenodd" clip-rule="evenodd" d="M21.8815 24.8791C21.8815 26.7174 23.1502 27.8127 24.7354 27.8127C28.4884 27.8127 28.4884 21.9644 24.7354 21.9644C23.1502 21.9644 21.8815 23.0408 21.8815 24.8791ZM27.5904 20.2545L29.9523 20.0672V29.7099H27.5904L27.5892 28.3026C27.0408 29.4366 25.5369 29.9843 24.46 30.0043C21.6086 30.0232 19.4961 28.2637 19.4961 24.8791C19.4961 21.5534 21.705 19.8128 24.5212 19.8317C25.8098 19.8317 27.0408 20.4381 27.5892 21.3968L27.5904 20.2545Z" fill="white"/>
<path fill-rule="evenodd" clip-rule="evenodd" d="M34.3501 20.0661V21.1826C35.0938 19.9884 36.0907 19.813 37.0674 19.813C38.0642 19.813 39.0234 20.2039 39.5506 20.7315L38.4761 22.8065C37.9866 22.3944 37.537 22.1789 36.7556 22.1789C35.5034 22.1789 34.3501 22.8443 34.3501 24.6237V29.71H31.9658V20.2546L34.3501 20.0661Z" fill="white"/>
<path fill-rule="evenodd" clip-rule="evenodd" d="M42.3071 24.8791C42.3071 26.7174 43.5781 27.8127 45.161 27.8127C48.914 27.8127 48.914 21.9644 45.161 21.9644C43.5781 21.9644 42.3071 23.0408 42.3071 24.8791ZM48.0219 20.2545L50.3803 20.0672V29.7099H48.0219V28.3026C47.4735 29.4366 45.9636 29.9843 44.8867 30.0043C42.0341 30.0232 39.9229 28.2637 39.9229 24.8791C39.9229 21.5534 42.1318 19.8128 44.9468 19.8317C46.2366 19.8317 47.4735 20.4381 48.0219 21.3968V20.2545Z" fill="white"/>
<path fill-rule="evenodd" clip-rule="evenodd" d="M64.6131 28.4797C63.4974 29.5749 62.3253 30.006 60.899 30.006C58.1028 30.006 55.7773 28.323 55.7773 24.9008C55.7773 21.4773 58.1028 19.7944 60.899 19.7944C62.2665 19.7944 63.3221 20.1866 64.3765 21.223L62.8725 22.808C62.3053 22.2981 61.6027 22.045 60.9378 22.045C59.3361 22.045 58.1628 23.2179 58.1628 24.9008C58.1628 26.7391 59.4126 27.7178 60.899 27.7178C61.6604 27.7178 62.4242 27.5023 63.0103 26.9157L64.6131 28.4797Z" fill="white"/>
<path fill-rule="evenodd" clip-rule="evenodd" d="M67.5252 24.8791C67.5252 26.7174 68.7938 27.8127 70.3778 27.8127C74.1334 27.8127 74.1334 21.9644 70.3778 21.9644C68.7938 21.9644 67.5252 23.0408 67.5252 24.8791ZM73.2271 20.2545L75.5974 20.0672V29.7099H73.2271L73.2278 28.2978C72.681 29.4319 71.1793 29.9843 70.1048 30.0043C67.251 30.0232 65.1396 28.2637 65.1396 24.8791C65.1396 21.5534 67.3486 19.8128 70.1636 19.8317C71.4534 19.8317 72.6788 20.4381 73.2271 21.3968V20.2545Z" fill="white"/>
<path fill-rule="evenodd" clip-rule="evenodd" d="M80.0086 20.0661V21.1826C80.7521 19.9884 81.7362 19.813 82.7139 19.813C83.7117 19.813 84.6699 20.2039 85.1973 20.7315L84.1217 22.8065C83.6317 22.3944 83.1836 22.1789 82.4012 22.1789C81.1498 22.1789 79.9977 22.8443 79.9977 24.6237V29.71H77.6123V20.2546L80.0086 20.0661Z" fill="white"/>
<path fill-rule="evenodd" clip-rule="evenodd" d="M90.0627 17.3462V20.0843H92.7212V22.1369H90.0439V26.3047C90.0439 27.2233 90.5526 27.6731 91.2939 27.6731C91.6671 27.6731 92.0965 27.5566 92.4481 27.3799L93.1131 29.4137C92.4294 29.6869 91.8624 29.8059 91.1398 29.8247C89.0475 29.9036 87.6787 28.7095 87.6787 26.3047V22.1369H85.8818V20.0843H87.6787V17.5994L90.0627 17.3462Z" fill="white"/>
<path d="M92.9469 8.67842C96.3734 10.7583 100.425 7.52036 100.425 7.52036C96.6695 14.3295 92.9469 8.67842 92.9469 8.67842ZM104.499 5.52116L102.27 5.10279C100.749 4.81739 99.4656 3.79984 98.8359 2.38633L97.9188 0.309391C97.7711 -0.0163446 97.3172 -0.0357752 97.1472 0.2795L96.0614 2.27127C95.3179 3.6295 93.9562 4.53798 92.4152 4.69786L90.1587 4.93244C89.8064 4.9683 89.6457 5.39714 89.8921 5.65713L91.449 7.30372C92.5124 8.43039 92.9541 10.0083 92.6306 11.5234L92.1551 13.7422C92.0809 14.0919 92.439 14.3743 92.7603 14.2219L94.8085 13.2491C96.2091 12.5842 97.8431 12.6515 99.1853 13.4285L101.146 14.5655C101.455 14.7449 101.832 14.4923 101.789 14.1397L101.497 11.888C101.298 10.3519 101.867 8.81586 103.02 7.78037L104.708 6.26528C104.971 6.02621 104.85 5.5884 104.499 5.52116Z" fill="#00EF49"/>
</svg>
