<svg width="32" height="31" viewBox="0 0 32 31" fill="none" xmlns="http://www.w3.org/2000/svg">
<path d="M6.53371 18.2572C13.5885 22.5395 21.9292 15.8729 21.9292 15.8729C14.1981 29.892 6.53371 18.2572 6.53371 18.2572ZM30.319 11.7568L25.7295 10.8954C22.5967 10.3078 19.9549 8.2128 18.6585 5.30257L16.7702 1.02641C16.4661 0.355765 15.5316 0.315759 15.1816 0.964872L12.9462 5.06567C11.4154 7.86209 8.61186 9.73253 5.439 10.0617L0.793199 10.5447C0.0678484 10.6185 -0.262928 11.5014 0.244373 12.0367L3.44985 15.4268C5.63926 17.7465 6.54855 20.9951 5.88253 24.1145L4.90353 28.6829C4.75074 29.4029 5.48796 29.9842 6.14952 29.6705L10.3667 27.6677C13.2503 26.2988 16.6145 26.4372 19.3779 28.0369L23.4141 30.378C24.0504 30.7473 24.8277 30.2272 24.7387 29.5012L24.1365 24.8653C23.7271 21.7026 24.8989 18.5401 27.2722 16.4082L30.7492 13.2888C31.2906 12.7966 31.0414 11.8952 30.319 11.7568Z" fill="white"/>
</svg>
