<svg width="10" height="14" viewBox="0 0 10 14" fill="none" xmlns="http://www.w3.org/2000/svg">
<path fill-rule="evenodd" clip-rule="evenodd" d="M5.91734 12.8982C7.228 11.3746 9.69455 8.13184 9.69455 5.3043C9.69455 2.75235 7.64656 0.683594 5.12022 0.683594C2.59389 0.683594 0.545898 2.75235 0.545898 5.3043C0.545898 8.13184 3.01245 11.3746 4.32311 12.8982C4.74987 13.3943 5.49058 13.3943 5.91734 12.8982ZM5.11995 7.23034C6.20266 7.23034 7.08037 6.35111 7.08037 5.26653C7.08037 4.18196 6.20266 3.30273 5.11995 3.30273C4.03723 3.30273 3.15952 4.18196 3.15952 5.26653C3.15952 6.35111 4.03723 7.23034 5.11995 7.23034Z" fill="black"/>
</svg>
