<svg width="45" height="45" viewBox="0 0 45 45" fill="none" xmlns="http://www.w3.org/2000/svg">
<path d="M22.8225 44.3047C34.9519 44.3047 44.7847 34.455 44.7847 22.3047C44.7847 10.1544 34.9519 0.304688 22.8225 0.304688C10.6932 0.304688 0.860352 10.1544 0.860352 22.3047C0.860352 34.455 10.6932 44.3047 22.8225 44.3047Z" fill="#ED2B2A"/>
<path d="M25.2417 19.0739L20.4039 25.5355M26.048 24.7278C26.048 25.1738 25.687 25.5355 25.2417 25.5355C24.7964 25.5355 24.4354 25.1738 24.4354 24.7278C24.4354 24.2817 24.7964 23.9201 25.2417 23.9201C25.687 23.9201 26.048 24.2817 26.048 24.7278ZM21.2102 19.8816C21.2102 20.3277 20.8492 20.6893 20.4039 20.6893C19.9586 20.6893 19.5976 20.3277 19.5976 19.8816C19.5976 19.4355 19.9586 19.0739 20.4039 19.0739C20.8492 19.0739 21.2102 19.4355 21.2102 19.8816ZM33.3047 22.3047C33.3047 23.597 31.5309 24.5662 31.0471 25.697C30.5633 26.9085 31.1277 28.847 30.2408 29.7355C29.3538 30.6239 27.4187 30.0585 26.2093 30.5431C25.0804 31.0278 24.1129 32.8047 22.8228 32.8047C21.5327 32.8047 20.5651 31.0278 19.4363 30.5431C18.2268 30.0585 16.2917 30.6239 15.4048 29.7355C14.5178 28.847 15.0823 26.9085 14.5985 25.697C14.1147 24.5662 12.3408 23.597 12.3408 22.3047C12.3408 21.0124 14.1147 20.0431 14.5985 18.9124C15.0823 17.7008 14.5178 15.7624 15.4048 14.8739C16.2917 13.9855 18.2268 14.5508 19.4363 14.0662C20.5651 13.5816 21.5327 11.8047 22.8228 11.8047C24.1129 11.8047 25.0804 13.5816 26.2093 14.0662C27.4187 14.5508 29.3538 13.9855 30.2408 14.8739C31.1277 15.7624 30.5633 17.7008 31.0471 18.9124C31.5309 20.0431 33.3047 21.0124 33.3047 22.3047Z" stroke="white" stroke-linecap="round" stroke-linejoin="round"/>
</svg>
