<svg width="45" height="46" viewBox="0 0 45 46" fill="none" xmlns="http://www.w3.org/2000/svg">
<path d="M22.7861 45.3477C34.9022 45.3477 44.7242 35.4979 44.7242 23.3477C44.7242 11.1974 34.9022 1.34766 22.7861 1.34766C10.6699 1.34766 0.8479 11.1974 0.8479 23.3477C0.8479 35.4979 10.6699 45.3477 22.7861 45.3477Z" fill="#1F0046"/>
<path d="M25.0348 24.2563H32.2245C32.5617 24.2563 32.8679 24.394 33.0891 24.6162C33.3106 24.8381 33.4482 25.1451 33.4482 25.4833V32.6618C33.4482 32.9996 33.3106 33.307 33.0891 33.5285C32.8679 33.7508 32.5617 33.8888 32.2245 33.8888H25.0348C24.6977 33.8888 24.3916 33.7508 24.1701 33.5285C23.9488 33.307 23.8112 32.9996 23.8112 32.6618V25.4835C23.8112 25.1453 23.9488 24.8383 24.1701 24.6164C24.3916 24.394 24.6977 24.2563 25.0348 24.2563ZM13.3462 12.8066H20.5358C20.8728 12.8066 21.1791 12.9445 21.4006 13.1667C21.622 13.389 21.7595 13.6958 21.7595 14.034V21.2123C21.7595 21.5505 21.622 21.8575 21.4006 22.0794C21.1791 22.3015 20.8728 22.4395 20.5358 22.4395H13.3462C13.0106 22.4395 12.7054 22.3015 12.4838 22.0794L12.4826 22.0783L12.4814 22.0794C12.2598 21.8573 12.1223 21.5503 12.1223 21.2121V14.034C12.1223 13.6958 12.2598 13.3888 12.4814 13.1667C12.4975 13.1505 12.5145 13.1352 12.5317 13.1211C12.7483 12.9259 13.0343 12.8066 13.3462 12.8066ZM20.4756 14.094H13.4061V21.1519H20.4754L20.4756 14.094ZM25.0348 12.8066H32.2245C32.5617 12.8066 32.8679 12.9445 33.0891 13.1667C33.3106 13.3888 33.4482 13.6958 33.4482 14.034V21.2123C33.4482 21.5505 33.3106 21.8575 33.0891 22.0794C32.8679 22.3015 32.5617 22.4395 32.2245 22.4395H25.0348C24.6977 22.4395 24.3916 22.3015 24.1701 22.0794C23.9488 21.8575 23.8112 21.5503 23.8112 21.2123V14.034C23.8112 13.6958 23.9488 13.3888 24.1701 13.1667C24.3916 12.9445 24.6977 12.8066 25.0348 12.8066ZM32.1645 14.094H25.095V21.1519H32.1645V14.094ZM13.3462 24.2563H20.5358C20.8728 24.2563 21.1791 24.394 21.4006 24.6162C21.622 24.8381 21.7595 25.1451 21.7595 25.4833V32.6618C21.7595 32.9996 21.622 33.307 21.4006 33.5285C21.1791 33.7508 20.8728 33.8888 20.5358 33.8888H13.3462C13.0106 33.8888 12.7054 33.7508 12.4838 33.5285L12.4826 33.5275L12.4814 33.5285C12.2598 33.3071 12.1223 32.9998 12.1223 32.662V25.4835C12.1223 25.1453 12.2598 24.8383 12.4814 24.6164C12.4975 24.6 12.5145 24.5847 12.5319 24.5704C12.7483 24.3753 13.0343 24.2563 13.3462 24.2563ZM20.4756 25.5437H13.4061V32.6016H20.4754L20.4756 25.5437ZM32.1645 25.5437H25.095V32.6016H32.1645V25.5437Z" fill="white"/>
</svg>
