<svg width="44" height="45" viewBox="0 0 44 45" fill="none" xmlns="http://www.w3.org/2000/svg">
<path d="M22.0619 44.9375C34.178 44.9375 44.0001 35.0878 44.0001 22.9375C44.0001 10.7872 34.178 0.9375 22.0619 0.9375C9.94583 0.9375 0.123779 10.7872 0.123779 22.9375C0.123779 35.0878 9.94583 44.9375 22.0619 44.9375Z" fill="#28AF35"/>
<path d="M24.4783 19.7067L19.6458 26.1683M25.2837 25.3606C25.2837 25.8066 24.9231 26.1683 24.4783 26.1683C24.0335 26.1683 23.6729 25.8066 23.6729 25.3606C23.6729 24.9145 24.0335 24.5529 24.4783 24.5529C24.9231 24.5529 25.2837 24.9145 25.2837 25.3606ZM20.4512 20.5144C20.4512 20.9605 20.0906 21.3221 19.6458 21.3221C19.201 21.3221 18.8403 20.9605 18.8403 20.5144C18.8403 20.0684 19.201 19.7067 19.6458 19.7067C20.0906 19.7067 20.4512 20.0684 20.4512 20.5144ZM32.5325 22.9375C32.5325 24.2298 30.7606 25.199 30.2773 26.3298C29.7941 27.5413 30.3579 29.4798 29.4719 30.3683C28.5859 31.2567 26.6529 30.6913 25.4448 31.176C24.3172 31.6606 23.3507 33.4375 22.062 33.4375C20.7734 33.4375 19.8069 31.6606 18.6793 31.176C17.4711 30.6913 15.5381 31.2567 14.6522 30.3683C13.7662 29.4798 14.33 27.5413 13.8467 26.3298C13.3635 25.199 11.5916 24.2298 11.5916 22.9375C11.5916 21.6452 13.3635 20.676 13.8467 19.5452C14.33 18.3337 13.7662 16.3952 14.6522 15.5067C15.5381 14.6183 17.4711 15.1837 18.6793 14.699C19.8069 14.2144 20.7734 12.4375 22.062 12.4375C23.3507 12.4375 24.3172 14.2144 25.4448 14.699C26.6529 15.1837 28.5859 14.6183 29.4719 15.5067C30.3579 16.3952 29.7941 18.3337 30.2773 19.5452C30.7606 20.676 32.5325 21.6452 32.5325 22.9375Z" stroke="white" stroke-linecap="round" stroke-linejoin="round"/>
</svg>
