<svg width="44" height="45" viewBox="0 0 44 45" fill="none" xmlns="http://www.w3.org/2000/svg">
<path d="M21.9999 44.9375C34.116 44.9375 43.9381 35.0878 43.9381 22.9375C43.9381 10.7872 34.116 0.9375 21.9999 0.9375C9.88381 0.9375 0.0617676 10.7872 0.0617676 22.9375C0.0617676 35.0878 9.88381 44.9375 21.9999 44.9375Z" fill="#444AEC"/>
<path d="M11.6387 20.6722C11.6387 20.6722 11.6385 20.6717 11.6384 20.6711L11.6096 20.5957L11.6387 20.6722Z" fill="white"/>
<path d="M11.8123 18.977L12.2905 18.6647C12.2908 18.6647 12.291 18.6644 12.2913 18.6641L11.8123 18.977Z" fill="white"/>
<path d="M31.5727 23.1288C31.5493 23.0673 31.5376 23.0025 31.5376 22.9377C31.5376 22.8726 31.5493 22.8075 31.5729 22.7455L32.2926 20.8511L32.3603 20.6726C32.4345 20.4773 32.4704 20.2737 32.4704 20.0733C32.4707 19.5177 32.1949 18.9816 31.7095 18.6634L31.4706 18.507L29.8561 17.4498C29.7465 17.3778 29.6664 17.2669 29.6321 17.1397L29.0541 14.9984C28.8546 14.2612 28.1888 13.7544 27.4337 13.7544C27.4052 13.7544 27.3767 13.755 27.3482 13.7566L25.1473 13.867L25.1143 13.8676C24.9907 13.8676 24.8716 13.8256 24.7758 13.7483L23.1645 12.4467L23.0536 12.3573C22.747 12.109 22.3723 11.9841 22.0001 11.9844C21.628 11.9838 21.2533 12.109 20.9464 12.3573L19.4021 13.6047L19.2246 13.748C19.1284 13.8257 19.0089 13.8676 18.8859 13.8676L18.8571 13.867L16.6575 13.7569L16.6561 13.7566C16.6219 13.7547 16.592 13.7544 16.5664 13.7544C15.8112 13.7544 15.1455 14.2612 14.946 14.9984L14.3679 17.1397C14.3336 17.2674 14.253 17.3786 14.1428 17.4509L13.9835 17.5552L12.2899 18.664C11.8048 18.9825 11.5293 19.5182 11.5295 20.0736C11.5295 20.2736 11.5653 20.4764 11.6393 20.6715L12.4271 22.7454C12.4505 22.8069 12.4625 22.8726 12.4625 22.9376C12.4625 23.0028 12.4508 23.0678 12.4273 23.1293L11.6396 25.2027C11.5654 25.398 11.5295 25.6012 11.5295 25.8015C11.5293 26.3571 11.8048 26.8935 12.2906 27.2119L13.6652 28.1121L14.1431 28.425C14.2533 28.497 14.3336 28.6077 14.3679 28.7356L14.946 30.8767C15.1453 31.6139 15.8113 32.1207 16.5664 32.1209C16.592 32.1207 16.6199 32.1204 16.6497 32.1187L16.5864 32.1221L18.8665 32.0078H18.8654L18.8867 32.0075C19.009 32.0075 19.1281 32.0495 19.2242 32.1271L20.9467 33.5186C21.2532 33.7664 21.6279 33.8913 22.0001 33.891C22.3721 33.8913 22.7468 33.7664 23.0536 33.5183L24.9241 32.0072L24.7762 32.1268C24.8723 32.0492 24.9911 32.0075 25.1135 32.0075L25.1391 32.0081L27.3658 32.1195L27.3546 32.119C27.3789 32.1201 27.4052 32.1207 27.4338 32.1209C28.1886 32.1207 28.8548 31.6142 29.0542 30.8767L29.6322 28.7356C29.6666 28.6077 29.7467 28.4973 29.8567 28.4252L31.7105 27.2114C32.1954 26.8929 32.4708 26.3571 32.4705 25.8017C32.4705 25.6014 32.4346 25.3977 32.3602 25.2022L31.5727 23.1288ZM30.5068 22.3382C30.4334 22.5312 30.3966 22.7346 30.3966 22.9377C30.3966 23.1411 30.4334 23.3444 30.5068 23.5375L31.2939 25.6101C31.318 25.6735 31.3294 25.738 31.3294 25.8018C31.3291 25.98 31.2414 26.1521 31.0855 26.254L29.2334 27.4668C28.8884 27.6925 28.6383 28.0378 28.5306 28.4367L27.9526 30.5778C27.8892 30.8141 27.6747 30.9767 27.4338 30.9764L27.4017 30.9756L27.3937 30.9753L25.1975 30.8655H25.199C25.172 30.8638 25.1434 30.8633 25.1135 30.863C24.7309 30.863 24.359 30.9943 24.0599 31.236L23.9119 31.3558L22.3376 32.6275C22.2385 32.7076 22.1206 32.7467 22.0001 32.7467C21.8798 32.7467 21.7618 32.7076 21.6625 32.6275L19.9402 31.236C19.6413 30.9946 19.2695 30.8633 18.8867 30.8633C18.8611 30.8633 18.8312 30.8636 18.7969 30.8655L16.5936 30.9762L16.5665 30.9765C16.3258 30.9767 16.111 30.8141 16.0476 30.5778L15.4696 28.4368C15.3619 28.0378 15.1117 27.6926 14.7667 27.4668L13.3923 26.567L12.9147 26.2541C12.759 26.1524 12.671 25.98 12.6707 25.8015C12.6708 25.7375 12.682 25.6733 12.7059 25.6104L13.4936 23.5372C13.567 23.3439 13.6036 23.1411 13.6036 22.9377C13.6036 22.7344 13.567 22.531 13.4935 22.3379L12.735 20.3418L12.706 20.2658C12.6819 20.2021 12.6708 20.1376 12.6706 20.0736C12.6709 19.8951 12.7588 19.7233 12.9145 19.6217L14.7668 18.409C15.1116 18.1827 15.3618 17.8374 15.4695 17.4387L16.0476 15.2974C16.1108 15.0613 16.3259 14.8984 16.5664 14.8987L16.5879 14.899L18.8027 15.0099L18.8051 15.0102C18.832 15.0113 18.859 15.0119 18.8859 15.0122C19.2685 15.0122 19.6406 14.8811 19.9398 14.6397L21.6629 13.2479C21.7619 13.1678 21.8796 13.1289 22.0001 13.1287C22.1205 13.1287 22.2383 13.1678 22.3375 13.2479L22.2265 13.1583L24.0602 14.6394C24.3598 14.8814 24.7323 15.0119 25.1144 15.0119C25.1428 15.0119 25.1683 15.011 25.1908 15.0104H25.1849L27.4067 14.8992H27.4082L27.4338 14.8987C27.6745 14.8984 27.8894 15.0613 27.9526 15.2973L28.5307 17.4386C28.6384 17.8373 28.8882 18.1823 29.2331 18.4086L31.3245 19.778L31.0855 19.6216C31.2414 19.7233 31.3291 19.8951 31.3294 20.0733C31.3294 20.1374 31.3181 20.2016 31.2939 20.2655L30.4051 22.6052L30.5068 22.3382Z" fill="white"/>
<path d="M19.4462 21.6673L18.8581 21.7832C18.8272 21.7896 18.8102 21.8142 18.8163 21.8458L19.2538 24.0782L19.2283 24.0835L17.5418 22.0972C17.514 22.0648 17.48 22.055 17.4435 22.0623L16.819 22.1855C16.7881 22.1917 16.7711 22.2162 16.7778 22.2478L17.4527 25.6898C17.4586 25.7214 17.4836 25.7384 17.5145 25.7323L18.1026 25.6163C18.1335 25.6099 18.1505 25.5851 18.1445 25.5535L17.7076 23.3264L17.7336 23.3214L19.4237 25.3015C19.4516 25.3339 19.4808 25.3442 19.5226 25.3364L20.1417 25.2141C20.1725 25.2079 20.1895 25.183 20.1829 25.1515L19.5081 21.7091C19.502 21.6776 19.4771 21.6612 19.4462 21.6673Z" fill="white"/>
<path d="M23.0607 23.9495L21.5362 24.2501C21.5156 24.2546 21.5029 24.2462 21.4993 24.2253L21.3549 23.4897C21.3505 23.469 21.3591 23.4567 21.3797 23.4523L22.6493 23.202C22.6802 23.1958 22.6972 23.1712 22.6912 23.14L22.5826 22.5871C22.5764 22.5561 22.5515 22.5391 22.5206 22.5449L21.2511 22.7955C21.2305 22.7994 21.2177 22.7908 21.2135 22.7701L21.0756 22.0661C21.0714 22.0451 21.0799 22.0326 21.1005 22.0287L22.625 21.728C22.656 21.7219 22.673 21.697 22.6663 21.6658L22.557 21.1079C22.5509 21.0763 22.5261 21.0596 22.495 21.0657L20.2273 21.513C20.1956 21.5192 20.1792 21.544 20.1854 21.5756L20.8602 25.0179C20.8669 25.0492 20.8911 25.0659 20.9227 25.0598L23.1905 24.6125C23.2216 24.6064 23.2385 24.5815 23.2319 24.5502L23.1225 23.992C23.1166 23.9607 23.0916 23.9434 23.0607 23.9495Z" fill="white"/>
<path d="M27.171 20.1442L26.5051 20.2754C26.4688 20.2824 26.4511 20.3025 26.4529 20.3402L26.4008 22.6632L26.3898 22.6651L25.3297 20.5617C25.3127 20.5318 25.2878 20.5154 25.2568 20.5215L24.8041 20.6107C24.7683 20.6179 24.7514 20.6425 24.7471 20.6766L24.5802 23.0221L24.5699 23.0244L23.6231 20.8978C23.6122 20.8671 23.5873 20.8509 23.551 20.8582L22.8797 20.99C22.8434 20.9973 22.8372 21.0202 22.8488 21.0507L24.4388 24.3123C24.4558 24.3416 24.4806 24.3587 24.5117 24.3525L25.0318 24.2497C25.0681 24.2427 25.0851 24.2175 25.0893 24.1843L25.2756 21.8561L25.286 21.8542L26.3322 23.939C26.3486 23.9684 26.3736 23.9854 26.4099 23.9782L26.93 23.8753C26.9664 23.8686 26.9883 23.8424 26.9877 23.8097L27.2225 20.188C27.2213 20.1553 27.2073 20.1369 27.171 20.1442Z" fill="white"/>
</svg>
