
<svg width="43" height="45" viewBox="0 0 43 45" fill="none" xmlns="http://www.w3.org/2000/svg">
<path d="M22.8761 44.9375C34.9922 44.9375 44.8143 35.0878 44.8143 22.9375C44.8143 10.7872 34.9922 0.9375 22.8761 0.9375C10.76 0.9375 0.937988 10.7872 0.937988 22.9375C0.937988 35.0878 10.76 44.9375 22.8761 44.9375Z" fill="#411080"/>
<path d="M18.2104 24.6887C18.294 24.5335 18.5125 24.5335 18.596 24.6887L19.3716 26.1299C19.4024 26.1872 19.4561 26.228 19.5188 26.2415L21.0696 26.5762C21.2345 26.6118 21.3005 26.8156 21.1888 26.9444L20.113 28.1853C20.072 28.2326 20.0524 28.2954 20.0591 28.3582L20.2369 30.0214C20.2555 30.1955 20.0802 30.3233 19.9248 30.2489L18.4967 29.5648C18.4375 29.5364 18.369 29.5364 18.3098 29.5648L16.8816 30.2489C16.7263 30.3233 16.5509 30.1955 16.5695 30.0214L16.7473 28.3582C16.7541 28.2954 16.7345 28.2326 16.6935 28.1853L15.6176 26.9444C15.506 26.8156 15.572 26.6118 15.7368 26.5762L17.2876 26.2415C17.3503 26.228 17.4041 26.1872 17.4349 26.1299L18.2104 24.6887Z" fill="#00EF49"/>
<path d="M18.1838 18.2316H27.5691M18.1838 22.9375H27.5691M22.8764 27.6434H27.5691M12.9045 22.9375C12.9045 15.2904 15.2509 12.9375 22.8764 12.9375C30.502 12.9375 32.8483 15.2904 32.8483 22.9375C32.8483 30.5846 30.502 32.9375 22.8764 32.9375C15.2509 32.9375 12.9045 30.5846 12.9045 22.9375Z" stroke="white" stroke-linecap="round" stroke-linejoin="round"/>
</svg>
