<svg width="11" height="11" viewBox="0 0 11 11" fill="none" xmlns="http://www.w3.org/2000/svg">
<path d="M5.34532 0.683218C5.49292 0.389073 5.91277 0.389073 6.06036 0.683218L7.30907 3.17184C7.36245 3.27822 7.46044 3.35531 7.57639 3.38215L10.1268 3.97247C10.4146 4.03908 10.5334 4.38393 10.3477 4.61364L8.54138 6.8479C8.47522 6.92974 8.44398 7.03435 8.45442 7.13906L8.74894 10.0935C8.78038 10.4089 8.45006 10.6338 8.16815 10.489L5.88561 9.31658C5.77089 9.25766 5.6348 9.25766 5.52008 9.31658L3.23753 10.489C2.95562 10.6338 2.6253 10.4089 2.65674 10.0935L2.95127 7.13906C2.96171 7.03435 2.93046 6.92974 2.8643 6.8479L1.05803 4.61365C0.872318 4.38393 0.991107 4.03908 1.27889 3.97247L3.82929 3.38215C3.94525 3.35531 4.04323 3.27823 4.09661 3.17184L5.34532 0.683218Z" fill="#00EF49"/>
</svg>
