<svg width="12" height="11" viewBox="0 0 12 11" fill="none" xmlns="http://www.w3.org/2000/svg">
<path d="M11.5474 2.53843L11.5317 2.19763L11.1649 2.16278C9.756 2.02893 8.54475 1.54254 7.77671 1.15808C6.93551 0.736994 6.4256 0.341945 6.42092 0.338299L6.14555 0.123047L5.86999 0.337988C5.86492 0.341933 5.35501 0.736994 4.51383 1.15807C3.74579 1.54253 2.53455 2.02891 1.1256 2.16277L0.758787 2.19762L0.743126 2.53842C0.740322 2.59943 0.681398 4.05294 1.28661 5.81301C1.64373 6.85164 2.15946 7.78223 2.81949 8.57907C3.64828 9.57962 4.7054 10.3683 5.9615 10.9232L6.14526 11.0044L6.32902 10.9232C7.58512 10.3683 8.64225 9.57966 9.47104 8.57907C10.1311 7.78226 10.6468 6.85163 11.0039 5.81302C11.6091 4.05297 11.5502 2.59946 11.5474 2.53843ZM6.14526 10.1275C5.09736 9.63494 4.21046 8.95742 3.5067 8.11158C2.90721 7.39107 2.43661 6.54566 2.10793 5.59888C1.70622 4.44166 1.61613 3.40961 1.59789 2.90284C2.16303 2.82522 2.73436 2.6946 3.30142 2.51319C3.85577 2.33584 4.4075 2.10972 4.94129 1.84113C5.48291 1.56861 5.89505 1.30831 6.14525 1.1381C6.39544 1.3083 6.8076 1.56861 7.34922 1.84113C7.883 2.10973 8.43474 2.33584 8.98909 2.51319C9.55631 2.69466 10.1278 2.82528 10.6931 2.9029C10.6755 3.4047 10.5872 4.42221 10.1912 5.5739C9.86404 6.52535 9.39398 7.375 8.79407 8.09924C8.08863 8.95086 7.19825 9.63254 6.14526 10.1275Z" fill="white"/>
</svg>
