<svg width="26" height="27" viewBox="0 0 26 27" fill="none" xmlns="http://www.w3.org/2000/svg">
<path d="M25.2333 13.5923C25.2333 12.7117 25.1624 11.831 25.0208 10.9683H12.9922V15.9467H19.8834C19.5999 17.5464 18.6787 18.9842 17.3323 19.8828V23.1179H21.4423C23.8515 20.8713 25.2333 17.5464 25.2333 13.5923Z" fill="#4285F4"/>
<path d="M12.9945 26.2469C16.4312 26.2469 19.3365 25.0966 21.4446 23.1196L17.3347 19.8845C16.1833 20.6753 14.7129 21.1246 12.9945 21.1246C9.66407 21.1246 6.84731 18.842 5.83757 15.7866H1.60352V19.1296C3.76489 23.497 8.1759 26.2469 12.9945 26.2469Z" fill="#34A853"/>
<path d="M5.83765 15.7869C5.30619 14.1873 5.30619 12.4441 5.83765 10.8264V7.50146H1.60315C-0.221882 11.15 -0.221882 15.4635 1.60315 19.1118L5.83765 15.7869Z" fill="#FBBC04"/>
<path d="M12.9945 5.48768C14.8192 5.45171 16.573 6.15273 17.8839 7.42873L21.5333 3.7263C19.2125 1.53364 16.1656 0.329564 12.9945 0.365529C8.1759 0.365529 3.76489 3.13333 1.60352 7.50066L5.83757 10.8436C6.84731 7.77025 9.66407 5.48768 12.9945 5.48768Z" fill="#EA4335"/>
</svg>
