<svg width="360" height="231" viewBox="0 0 360 231" fill="none" xmlns="http://www.w3.org/2000/svg">
<path d="M0 0.5H360V230.5H0V0.5Z" fill="url(#paint0_linear_4308_5939)"/>
<path d="M257.606 70.938C280.305 84.6976 307.142 63.277 307.142 63.277C282.267 108.322 257.606 70.938 257.606 70.938ZM334.136 50.0514L319.369 47.2837C309.289 45.3956 300.789 38.6641 296.618 29.3131L290.542 15.5733C289.564 13.4184 286.557 13.2898 285.431 15.3755L278.238 28.5519C273.313 37.5372 264.293 43.5472 254.084 44.6049L239.136 46.1567C236.802 46.394 235.738 49.2309 237.37 50.9509L247.684 61.8438C254.728 69.2972 257.654 79.7355 255.511 89.7585L252.361 104.437C251.87 106.751 254.242 108.619 256.37 107.611L269.939 101.175C279.217 96.7767 290.041 97.2215 298.933 102.362L311.919 109.884C313.967 111.07 316.467 109.399 316.181 107.067L314.243 92.1707C312.926 82.0087 316.697 71.8472 324.333 64.997L335.52 54.974C337.262 53.3925 336.46 50.4962 334.136 50.0514Z" fill="#AEA6B8" fill-opacity="0.2"/>
<path d="M150.896 96.8623C160.661 102.782 172.207 93.5664 172.207 93.5664C161.505 112.946 150.896 96.8623 150.896 96.8623ZM183.821 87.8764L177.468 86.6857C173.131 85.8734 169.474 82.9773 167.68 78.9543L165.066 73.0431C164.645 72.116 163.351 72.0607 162.867 72.9581L159.772 78.6268C157.653 82.4925 153.773 85.0782 149.381 85.5332L142.95 86.2008C141.945 86.3029 141.488 87.5234 142.19 88.2634L146.627 92.9498C149.658 96.1564 150.916 100.647 149.994 104.959L148.639 111.275C148.428 112.27 149.448 113.073 150.364 112.64L156.202 109.871C160.193 107.979 164.85 108.17 168.675 110.382L174.263 113.618C175.143 114.128 176.219 113.409 176.096 112.406L175.262 105.997C174.696 101.625 176.318 97.2535 179.603 94.3064L184.416 89.9943C185.166 89.3138 184.821 88.0678 183.821 87.8764Z" fill="#AEA6B8" fill-opacity="0.2"/>
<path d="M37.5459 63.1788C52.6698 72.3467 70.5507 58.0744 70.5507 58.0744C53.9768 88.0874 37.5459 63.1788 37.5459 63.1788ZM88.5365 49.2623L78.6977 47.4183C71.9817 46.1603 66.3182 41.6752 63.5389 35.4447L59.4908 26.2901C58.8389 24.8543 56.8356 24.7687 56.0851 26.1583L51.2929 34.9376C48.0112 40.9243 42.001 44.9287 35.1991 45.6334L25.2395 46.6674C23.6845 46.8255 22.9754 48.7157 24.0629 49.8617L30.9348 57.1194C35.6284 62.0856 37.5778 69.0405 36.15 75.7187L34.0512 85.499C33.7236 87.0403 35.3041 88.2849 36.7223 87.6133L45.763 83.3255C51.9448 80.3948 59.1569 80.6912 65.0812 84.116L73.7339 89.1279C75.0981 89.9185 76.7643 88.8052 76.5735 87.2508L75.2825 77.3258C74.4048 70.5551 76.917 63.7846 82.0049 59.2204L89.4587 52.5422C90.6194 51.4885 90.0852 49.5587 88.5365 49.2623Z" fill="#AEA6B8" fill-opacity="0.2"/>
<path d="M115.36 191.726C109.717 188.601 100.584 188.635 94.9642 191.797C92.6225 193.122 91.1316 194.013 90.7608 195.73V197.507C90.8155 198.958 91.4493 200.335 92.5288 201.345L67.2969 213.76V215.534L70.1342 217.104L78.0414 217.077L81.1403 215.33V213.654L83.6108 212.307L87.057 212.002L88.4269 211.247L88.5518 208.269L91.0965 206.839L94.8315 207.643L99.6788 204.915C104.913 206.107 111.157 205.507 115.4 203.118C118.217 201.53 119.618 199.458 119.603 197.394V195.635C119.337 193.782 117.897 193.13 115.36 191.726ZM111.848 196.828C110.038 197.725 107.889 197.733 106.072 196.85C104.472 195.964 104.468 194.518 106.072 193.624C107.882 192.726 110.032 192.719 111.848 193.605C113.448 194.488 113.452 195.933 111.86 196.828H111.848Z" fill="#601AB9"/>
<path d="M115.36 191.726C109.717 188.601 100.584 188.635 94.9642 191.797C92.6225 193.122 91.1316 194.013 90.7608 195.73V197.507C90.8155 198.958 91.4493 200.335 92.5288 201.345L67.2969 213.76V215.534L70.1342 217.104L78.0414 217.077L81.1403 215.33V213.654L83.6108 212.307L87.057 212.002L88.4269 211.247L88.5518 208.269L91.0965 206.839L94.8315 207.643L99.6788 204.915C104.913 206.107 111.157 205.507 115.4 203.118C118.217 201.53 119.618 199.458 119.603 197.394V195.635C119.337 193.782 117.897 193.13 115.36 191.726ZM111.848 196.828C110.038 197.725 107.889 197.733 106.072 196.85C104.472 195.964 104.468 194.518 106.072 193.624C107.882 192.726 110.032 192.719 111.848 193.605C113.448 194.488 113.452 195.933 111.86 196.828H111.848Z" fill="black" fill-opacity="0.2"/>
<path d="M115.353 189.955C109.709 186.83 100.576 186.86 94.9564 190.026C90.3393 192.626 89.5353 196.528 92.5249 199.574L67.2969 213.763L70.1381 215.333L78.0414 215.306L81.1442 213.559L80.9256 211.997L83.6069 210.536L87.0531 210.231L88.423 209.476L88.5518 206.498L91.0925 205.068L94.8276 205.868L99.6749 203.14C104.928 204.329 111.173 203.729 115.396 201.34C121.016 198.177 120.996 193.079 115.353 189.955ZM111.84 195.057C110.028 195.954 107.878 195.962 106.06 195.076C104.464 194.192 104.456 192.747 106.06 191.853C107.871 190.955 110.021 190.947 111.84 191.83C113.44 192.717 113.448 194.159 111.856 195.057H111.84Z" fill="#601AB9"/>
<path d="M115.353 189.955C109.709 186.83 100.576 186.86 94.9564 190.026C90.3393 192.626 89.5353 196.528 92.5249 199.574L67.2969 213.763L70.1381 215.333L78.0414 215.306L81.1442 213.559L80.9256 211.997L83.6069 210.536L87.0531 210.231L88.423 209.476L88.5518 206.498L91.0925 205.068L94.8276 205.868L99.6749 203.14C104.928 204.329 111.173 203.729 115.396 201.34C121.016 198.177 120.996 193.079 115.353 189.955ZM111.84 195.057C110.028 195.954 107.878 195.962 106.06 195.076C104.464 194.192 104.456 192.747 106.06 191.853C107.871 190.955 110.021 190.947 111.84 191.83C113.44 192.717 113.448 194.159 111.856 195.057H111.84Z" fill="white"/>
<path d="M90.8038 196.25L105.026 194.08C104.636 193.325 104.987 192.457 106.064 191.853C107.875 190.956 110.025 190.948 111.844 191.831C112.305 192.063 112.679 192.428 112.913 192.876L118.104 192.084C117.32 191.227 116.389 190.507 115.353 189.955C115.189 189.865 115.013 189.786 114.845 189.699L91.4283 193.269C90.9018 194.174 90.6832 195.217 90.8038 196.25Z" fill="white"/>
<path d="M118.796 198.289C119.85 196.701 119.866 194.659 118.838 193.055L112.93 193.953C112.706 194.42 112.328 194.803 111.856 195.04C110.045 195.938 107.894 195.945 106.076 195.059L105.998 195.014L91.0541 197.278C91.3725 198.125 91.874 198.897 92.5254 199.542L85.8438 203.316L118.796 198.289Z" fill="white"/>
<path d="M105.2 202.133C104.357 202.133 103.527 202.091 102.719 202.008C100.107 201.742 97.7196 201.057 95.833 200.02C93.6708 198.823 92.4297 197.261 92.4219 195.729C92.4141 194.197 93.6474 192.623 95.8018 191.412C98.2723 190.02 101.598 189.25 105.169 189.235C108.74 189.219 112.065 189.989 114.535 191.348C116.698 192.544 117.943 194.11 117.947 195.638C117.95 197.167 116.721 198.744 114.567 199.956C112.088 201.348 108.763 202.118 105.2 202.133ZM105.153 189.736C101.676 189.736 98.444 190.491 96.0516 191.846C94.0611 192.978 92.9293 194.378 92.9293 195.725C92.9293 197.072 94.0806 198.48 96.0789 199.586C98.483 200.918 101.722 201.642 105.196 201.631C108.669 201.62 111.905 200.876 114.297 199.522C116.288 198.389 117.42 196.989 117.42 195.642C117.42 194.295 116.268 192.887 114.27 191.782C111.866 190.45 108.627 189.725 105.153 189.736Z" fill="#601AB9"/>
<path d="M110.391 203.176V204.95C106.859 205.704 103.197 205.693 99.6699 204.916V203.142C103.197 203.919 106.859 203.931 110.391 203.176Z" fill="black" fill-opacity="0.1"/>
<path d="M94.8268 205.862L94.8346 207.639L91.0996 206.836L91.0918 205.062L94.8268 205.862Z" fill="black" fill-opacity="0.1"/>
<path d="M88.5507 206.491L88.5546 208.265L88.4297 211.242L88.4219 209.469L88.5507 206.491Z" fill="black" fill-opacity="0.1"/>
<path d="M87.0517 210.236L87.0595 212.01L83.6133 212.316L83.6055 210.542L87.0517 210.236Z" fill="black" fill-opacity="0.1"/>
<path d="M78.0458 215.307L70.1426 215.335L70.1493 217.109L78.0525 217.081L78.0458 215.307Z" fill="black" fill-opacity="0.1"/>
<path d="M67.2969 213.774L67.3047 215.548L70.142 217.118L70.1381 215.344L68.8931 214.654L68.897 215.42L68.2101 215.042L68.2062 214.265L67.2969 213.774Z" fill="black" fill-opacity="0.15"/>
<path d="M68.2051 214.262L68.892 214.651L68.8959 215.417L68.209 215.04L68.2051 214.262Z" fill="white"/>
<path d="M68.2051 214.263L68.209 215.04L94.0771 200.474L93.3902 200.085L68.2051 214.263Z" fill="#601AB9"/>
<path d="M93.3906 200.085L93.3945 200.859L94.0775 200.474L93.3906 200.085Z" fill="black" fill-opacity="0.15"/>
<path d="M71.3436 179.91L72.5482 176.269C73.2021 173.334 60.8052 180.263 60.1582 183.191L64.1574 193.587C64.2999 193.901 64.5408 194.164 64.8457 194.339C65.7268 194.865 68.9757 196.622 69.2373 196.788C69.5099 196.951 69.8244 197.038 70.1452 197.038C70.8948 197.038 71.5625 196.567 71.791 195.876L76.9397 178.719C77.2564 177.268 74.3998 178.219 71.3436 179.91Z" fill="#601AB9"/>
<path d="M71.3436 179.91L72.5482 176.269C73.2021 173.334 60.8052 180.263 60.1582 183.191L64.1574 193.587C64.2999 193.901 64.5408 194.164 64.8457 194.339C65.7268 194.865 68.9757 196.622 69.2373 196.788C69.5099 196.951 69.8244 197.038 70.1452 197.038C70.8948 197.038 71.5625 196.567 71.791 195.876L76.9397 178.719C77.2564 177.268 74.3998 178.219 71.3436 179.91Z" fill="#601AB9" fill-opacity="0.2"/>
<path d="M87.1186 110.633L39.9885 136.916C39.0544 137.51 38.4638 138.498 38.3984 139.578V193.567C38.4501 194.654 39.0503 195.65 40.0023 196.229L42.9139 197.82C43.9175 198.308 45.1042 198.308 46.1078 197.82L93.2379 171.537C94.174 170.944 94.7646 169.955 94.8279 168.875V114.866C94.7763 113.779 94.1761 112.784 93.2241 112.204L90.3124 110.613C89.3054 110.131 88.1194 110.139 87.1186 110.633Z" fill="#BEBAC6"/>
<path d="M93.2377 113.972L46.1076 140.261C45.1687 140.85 44.5768 141.841 44.5176 142.923V196.919C44.5176 197.897 45.2059 198.296 46.1076 197.804L65.2157 187.155L68.5335 196.02C68.8074 196.629 69.4311 197.024 70.118 197.024C70.8656 197.024 71.5319 196.555 71.7618 195.867L76.2497 180.999L93.2446 171.522C94.1807 170.929 94.7713 169.94 94.8346 168.859V114.864C94.8346 113.879 94.1463 113.493 93.2377 113.972Z" fill="white"/>
<path d="M94.8353 114.589C94.7114 113.81 94.0575 113.537 93.259 113.976L46.1151 140.266C45.6388 140.559 45.2499 140.967 44.9863 141.45L38.8945 138.049C39.1623 137.601 39.5402 137.223 39.9959 136.951L87.1191 110.635C88.1227 110.147 89.3094 110.147 90.3129 110.635L93.2246 112.226C94.0926 112.748 94.6818 113.612 94.8353 114.589Z" fill="white" fill-opacity="0.7"/>
<path d="M78.0116 145.049L76.4628 145.908V139.405C76.4628 134.58 73.4204 132.351 69.6759 134.44C65.9313 136.53 62.882 142.161 62.882 146.986V153.495L61.3402 154.354C59.9635 155.112 58.8828 157.142 58.8828 158.879V176.809C58.8828 178.28 59.6744 179.112 60.7895 178.806C66.6334 177.288 72.7114 173.894 78.5622 168.882C79.1535 168.361 79.6223 167.723 79.9389 167.012C80.2741 166.302 80.4545 165.531 80.4689 164.749V146.84C80.4551 145.096 79.3607 144.291 78.0116 145.049ZM71.8166 167.245L67.4801 169.668L68.2372 163.012C67.4732 162.826 66.957 162.027 66.957 160.783C66.957 158.866 68.1615 156.643 69.6414 155.811C71.1214 154.979 72.3397 155.864 72.3397 157.808C72.2943 159.102 71.8586 160.356 71.0869 161.415L71.8166 167.245ZM73.6751 147.439L65.6698 151.911V145.442C65.6698 142.6 67.4663 139.279 69.6759 138.048C71.8854 136.816 73.6751 138.128 73.6751 140.976V147.439Z" fill="url(#paint1_linear_4308_5939)"/>
<path fill-rule="evenodd" clip-rule="evenodd" d="M173.187 163.707V168.144H177.499V171.47H173.155V178.224C173.155 179.712 173.978 180.441 175.185 180.441C175.788 180.441 176.485 180.252 177.054 179.966L178.135 183.262C177.024 183.704 176.105 183.897 174.931 183.928C171.537 184.055 169.316 182.12 169.316 178.224V171.47H166.398V168.144H169.316V164.117L173.187 163.707Z" fill="white"/>
<path fill-rule="evenodd" clip-rule="evenodd" d="M184.256 163.686V170.236C185.65 168.43 187.365 167.89 189.142 167.89C193.582 167.89 195.547 170.901 195.547 175.497V183.739H191.678V175.531C191.678 172.676 190.187 171.472 188.125 171.472C185.843 171.472 184.256 173.405 184.256 175.751V183.739H180.389V164.106L184.256 163.686Z" fill="white"/>
<path fill-rule="evenodd" clip-rule="evenodd" d="M201.83 175.909C201.83 178.888 203.888 180.663 206.461 180.663C212.551 180.663 212.551 171.186 206.461 171.186C203.888 171.186 201.83 172.93 201.83 175.909ZM211.093 168.415L214.926 168.111V183.737H211.093L211.092 181.457C210.202 183.294 207.761 184.182 206.014 184.214C201.387 184.245 197.959 181.394 197.959 175.909C197.959 170.52 201.543 167.699 206.113 167.73C208.204 167.73 210.202 168.712 211.092 170.266L211.093 168.415Z" fill="white"/>
<path fill-rule="evenodd" clip-rule="evenodd" d="M222.062 168.11V169.92C223.269 167.985 224.887 167.7 226.472 167.7C228.089 167.7 229.645 168.334 230.501 169.189L228.757 172.551C227.963 171.883 227.234 171.534 225.966 171.534C223.934 171.534 222.062 172.612 222.062 175.496V183.738H218.193V168.416L222.062 168.11Z" fill="white"/>
<path fill-rule="evenodd" clip-rule="evenodd" d="M234.974 175.909C234.974 178.888 237.037 180.663 239.605 180.663C245.695 180.663 245.695 171.186 239.605 171.186C237.037 171.186 234.974 172.93 234.974 175.909ZM244.248 168.415L248.074 168.111V183.737H244.248V181.457C243.358 183.294 240.908 184.182 239.16 184.214C234.531 184.245 231.105 181.394 231.105 175.909C231.105 170.52 234.69 167.699 239.258 167.73C241.351 167.73 243.358 168.712 244.248 170.266V168.415Z" fill="white"/>
<path fill-rule="evenodd" clip-rule="evenodd" d="M271.168 181.742C269.357 183.517 267.455 184.215 265.141 184.215C260.603 184.215 256.83 181.488 256.83 175.943C256.83 170.395 260.603 167.668 265.141 167.668C267.36 167.668 269.073 168.303 270.784 169.983L268.343 172.551C267.423 171.725 266.283 171.315 265.204 171.315C262.605 171.315 260.701 173.216 260.701 175.943C260.701 178.922 262.729 180.507 265.141 180.507C266.376 180.507 267.616 180.158 268.567 179.208L271.168 181.742Z" fill="white"/>
<path fill-rule="evenodd" clip-rule="evenodd" d="M275.894 175.909C275.894 178.888 277.953 180.663 280.523 180.663C286.617 180.663 286.617 171.186 280.523 171.186C277.953 171.186 275.894 172.93 275.894 175.909ZM285.147 168.415L288.993 168.111V183.737H285.147L285.148 181.449C284.261 183.287 281.824 184.182 280.08 184.214C275.449 184.245 272.023 181.394 272.023 175.909C272.023 170.52 275.608 167.699 280.176 167.73C282.269 167.73 284.257 168.712 285.147 170.266V168.415Z" fill="white"/>
<path fill-rule="evenodd" clip-rule="evenodd" d="M296.15 168.11V169.92C297.357 167.985 298.953 167.7 300.54 167.7C302.159 167.7 303.714 168.334 304.57 169.189L302.824 172.551C302.029 171.883 301.302 171.534 300.033 171.534C298.002 171.534 296.133 172.612 296.133 175.496V183.738H292.262V168.416L296.15 168.11Z" fill="white"/>
<path fill-rule="evenodd" clip-rule="evenodd" d="M312.466 163.707V168.144H316.78V171.47H312.435V178.224C312.435 179.712 313.261 180.441 314.464 180.441C315.069 180.441 315.766 180.252 316.337 179.966L317.416 183.262C316.306 183.704 315.386 183.897 314.214 183.928C310.819 184.055 308.597 182.12 308.597 178.224V171.47H305.682V168.144H308.597V164.117L312.466 163.707Z" fill="white"/>
<path d="M317.146 149.657C322.706 153.027 329.279 147.78 329.279 147.78C323.186 158.814 317.146 149.657 317.146 149.657ZM335.892 144.54L332.275 143.863C329.805 143.4 327.723 141.751 326.702 139.461L325.213 136.095C324.974 135.567 324.237 135.536 323.961 136.047L322.199 139.274C320.993 141.475 318.783 142.947 316.283 143.206L312.621 143.586C312.05 143.645 311.789 144.339 312.189 144.761L314.715 147.429C316.441 149.255 317.157 151.812 316.632 154.267L315.861 157.862C315.74 158.429 316.321 158.887 316.843 158.64L320.166 157.063C322.439 155.986 325.091 156.095 327.269 157.354L330.45 159.197C330.951 159.487 331.564 159.078 331.494 158.506L331.019 154.858C330.696 152.368 331.62 149.879 333.49 148.201L336.231 145.746C336.657 145.359 336.461 144.649 335.892 144.54Z" fill="#00EF49"/>
<path d="M167.438 200.613H166.398L169.406 192.424H170.429L173.436 200.613H172.397L169.949 193.72H169.885L167.438 200.613ZM167.822 197.414H172.013V198.294H167.822V197.414Z" fill="white"/>
<path d="M177.879 200.613V192.424H180.742C181.312 192.424 181.783 192.523 182.154 192.72C182.524 192.914 182.8 193.177 182.981 193.508C183.163 193.836 183.253 194.199 183.253 194.599C183.253 194.951 183.191 195.242 183.065 195.471C182.943 195.7 182.78 195.882 182.577 196.015C182.377 196.148 182.16 196.247 181.926 196.311V196.391C182.176 196.407 182.428 196.495 182.681 196.655C182.935 196.815 183.147 197.044 183.317 197.342C183.488 197.641 183.573 198.006 183.573 198.438C183.573 198.849 183.48 199.218 183.293 199.546C183.107 199.874 182.812 200.134 182.409 200.326C182.007 200.517 181.483 200.613 180.838 200.613H177.879ZM178.871 199.734H180.838C181.486 199.734 181.946 199.608 182.218 199.358C182.492 199.105 182.629 198.798 182.629 198.438C182.629 198.161 182.559 197.905 182.417 197.67C182.276 197.433 182.075 197.244 181.814 197.103C181.552 196.959 181.243 196.887 180.886 196.887H178.871V199.734ZM178.871 196.023H180.71C181.009 196.023 181.278 195.964 181.518 195.847C181.76 195.73 181.952 195.564 182.094 195.351C182.238 195.138 182.309 194.887 182.309 194.599C182.309 194.239 182.184 193.934 181.934 193.684C181.683 193.43 181.286 193.304 180.742 193.304H178.871V196.023Z" fill="white"/>
<path d="M185.059 200.613V199.894L187.762 196.935C188.079 196.588 188.34 196.287 188.546 196.031C188.751 195.772 188.903 195.53 189.001 195.303C189.103 195.074 189.153 194.834 189.153 194.583C189.153 194.295 189.084 194.046 188.945 193.836C188.809 193.625 188.623 193.462 188.386 193.348C188.148 193.233 187.882 193.176 187.586 193.176C187.271 193.176 186.997 193.241 186.762 193.372C186.53 193.5 186.35 193.68 186.222 193.912C186.097 194.143 186.034 194.415 186.034 194.727H185.091C185.091 194.247 185.201 193.826 185.423 193.464C185.644 193.101 185.945 192.819 186.326 192.616C186.71 192.413 187.141 192.312 187.618 192.312C188.098 192.312 188.523 192.413 188.893 192.616C189.264 192.819 189.555 193.092 189.765 193.436C189.976 193.78 190.081 194.162 190.081 194.583C190.081 194.885 190.026 195.179 189.917 195.467C189.81 195.752 189.624 196.071 189.357 196.423C189.093 196.772 188.727 197.198 188.258 197.702L186.418 199.67V199.734H190.225V200.613H185.059Z" fill="white"/>
<path d="M192.02 200.613V192.424H194.884C195.454 192.424 195.925 192.523 196.295 192.72C196.666 192.914 196.942 193.177 197.123 193.508C197.304 193.836 197.395 194.199 197.395 194.599C197.395 194.951 197.332 195.242 197.207 195.471C197.084 195.7 196.922 195.882 196.719 196.015C196.519 196.148 196.302 196.247 196.067 196.311V196.391C196.318 196.407 196.57 196.495 196.823 196.655C197.076 196.815 197.288 197.044 197.459 197.342C197.629 197.641 197.715 198.006 197.715 198.438C197.715 198.849 197.621 199.218 197.435 199.546C197.248 199.874 196.954 200.134 196.551 200.326C196.149 200.517 195.625 200.613 194.98 200.613H192.02ZM193.012 199.734H194.98C195.627 199.734 196.087 199.608 196.359 199.358C196.634 199.105 196.771 198.798 196.771 198.438C196.771 198.161 196.7 197.905 196.559 197.67C196.418 197.433 196.217 197.244 195.955 197.103C195.694 196.959 195.385 196.887 195.028 196.887H193.012V199.734ZM193.012 196.023H194.852C195.15 196.023 195.419 195.964 195.659 195.847C195.902 195.73 196.094 195.564 196.235 195.351C196.379 195.138 196.451 194.887 196.451 194.599C196.451 194.239 196.326 193.934 196.075 193.684C195.825 193.43 195.427 193.304 194.884 193.304H193.012V196.023Z" fill="white"/>
<path d="M204.703 200.725C204.164 200.725 203.7 200.627 203.311 200.429C202.922 200.232 202.622 199.962 202.411 199.618C202.201 199.274 202.095 198.881 202.095 198.438C202.095 198.097 202.167 197.794 202.311 197.53C202.458 197.264 202.659 197.017 202.915 196.791C203.174 196.561 203.471 196.332 203.807 196.103L204.99 195.223C205.222 195.071 205.408 194.909 205.546 194.735C205.688 194.562 205.758 194.335 205.758 194.055C205.758 193.848 205.666 193.646 205.482 193.452C205.301 193.257 205.062 193.16 204.767 193.16C204.559 193.16 204.375 193.213 204.215 193.32C204.057 193.424 203.933 193.557 203.843 193.72C203.755 193.88 203.711 194.045 203.711 194.215C203.711 194.407 203.763 194.602 203.867 194.799C203.973 194.994 204.108 195.194 204.271 195.399C204.436 195.602 204.607 195.81 204.783 196.023L208.541 200.613H207.406L204.303 196.871C204.015 196.524 203.754 196.209 203.519 195.927C203.284 195.644 203.098 195.366 202.959 195.091C202.82 194.817 202.751 194.519 202.751 194.199C202.751 193.832 202.832 193.509 202.995 193.232C203.16 192.952 203.391 192.735 203.687 192.58C203.985 192.423 204.335 192.344 204.735 192.344C205.145 192.344 205.498 192.424 205.794 192.584C206.09 192.741 206.318 192.95 206.478 193.212C206.638 193.47 206.718 193.752 206.718 194.055C206.718 194.447 206.621 194.787 206.426 195.075C206.231 195.363 205.966 195.631 205.63 195.879L203.999 197.095C203.631 197.366 203.382 197.63 203.251 197.886C203.12 198.142 203.055 198.326 203.055 198.438C203.055 198.694 203.122 198.933 203.255 199.154C203.388 199.375 203.576 199.554 203.819 199.69C204.061 199.826 204.345 199.894 204.671 199.894C204.98 199.894 205.281 199.828 205.574 199.698C205.868 199.564 206.133 199.372 206.37 199.122C206.61 198.871 206.799 198.57 206.938 198.218C207.079 197.866 207.15 197.47 207.15 197.031H208.061C208.061 197.574 207.999 198.018 207.874 198.362C207.748 198.706 207.607 198.975 207.45 199.17C207.292 199.364 207.166 199.51 207.07 199.606C207.038 199.646 207.008 199.686 206.982 199.726C206.955 199.766 206.926 199.806 206.894 199.846C206.63 200.142 206.297 200.363 205.894 200.509C205.492 200.653 205.094 200.725 204.703 200.725Z" fill="white"/>
<path d="M212.881 200.613V192.424H215.744C216.315 192.424 216.785 192.523 217.156 192.72C217.526 192.914 217.802 193.177 217.983 193.508C218.165 193.836 218.255 194.199 218.255 194.599C218.255 194.951 218.193 195.242 218.067 195.471C217.945 195.7 217.782 195.882 217.58 196.015C217.38 196.148 217.162 196.247 216.928 196.311V196.391C217.178 196.407 217.43 196.495 217.684 196.655C217.937 196.815 218.149 197.044 218.319 197.342C218.49 197.641 218.575 198.006 218.575 198.438C218.575 198.849 218.482 199.218 218.295 199.546C218.109 199.874 217.814 200.134 217.412 200.326C217.009 200.517 216.485 200.613 215.84 200.613H212.881ZM213.873 199.734H215.84C216.488 199.734 216.948 199.608 217.22 199.358C217.494 199.105 217.632 198.798 217.632 198.438C217.632 198.161 217.561 197.905 217.42 197.67C217.278 197.433 217.077 197.244 216.816 197.103C216.555 196.959 216.245 196.887 215.888 196.887H213.873V199.734ZM213.873 196.023H215.712C216.011 196.023 216.28 195.964 216.52 195.847C216.762 195.73 216.954 195.564 217.096 195.351C217.24 195.138 217.312 194.887 217.312 194.599C217.312 194.239 217.186 193.934 216.936 193.684C216.685 193.43 216.288 193.304 215.744 193.304H213.873V196.023Z" fill="white"/>
<path d="M220.061 200.613V199.894L222.764 196.935C223.081 196.588 223.342 196.287 223.548 196.031C223.753 195.772 223.905 195.53 224.004 195.303C224.105 195.074 224.155 194.834 224.155 194.583C224.155 194.295 224.086 194.046 223.948 193.836C223.812 193.625 223.625 193.462 223.388 193.348C223.15 193.233 222.884 193.176 222.588 193.176C222.273 193.176 221.999 193.241 221.764 193.372C221.532 193.5 221.352 193.68 221.224 193.912C221.099 194.143 221.036 194.415 221.036 194.727H220.093C220.093 194.247 220.203 193.826 220.425 193.464C220.646 193.101 220.947 192.819 221.328 192.616C221.712 192.413 222.143 192.312 222.62 192.312C223.1 192.312 223.525 192.413 223.896 192.616C224.266 192.819 224.557 193.092 224.767 193.436C224.978 193.78 225.083 194.162 225.083 194.583C225.083 194.885 225.029 195.179 224.919 195.467C224.813 195.752 224.626 196.071 224.359 196.423C224.096 196.772 223.729 197.198 223.26 197.702L221.42 199.67V199.734H225.227V200.613H220.061Z" fill="white"/>
<path d="M233.613 194.983H232.621C232.562 194.698 232.46 194.447 232.313 194.231C232.169 194.015 231.993 193.834 231.785 193.688C231.58 193.538 231.352 193.426 231.101 193.352C230.851 193.277 230.589 193.24 230.318 193.24C229.822 193.24 229.373 193.365 228.97 193.616C228.57 193.866 228.252 194.235 228.014 194.723C227.78 195.211 227.662 195.81 227.662 196.519C227.662 197.228 227.78 197.826 228.014 198.314C228.252 198.802 228.57 199.171 228.97 199.422C229.373 199.672 229.822 199.798 230.318 199.798C230.589 199.798 230.851 199.76 231.101 199.686C231.352 199.611 231.58 199.5 231.785 199.354C231.993 199.205 232.169 199.022 232.313 198.806C232.46 198.587 232.562 198.337 232.621 198.054H233.613C233.538 198.473 233.402 198.847 233.205 199.178C233.007 199.508 232.762 199.79 232.469 200.022C232.176 200.251 231.846 200.425 231.481 200.545C231.119 200.665 230.731 200.725 230.318 200.725C229.619 200.725 228.998 200.555 228.454 200.214C227.91 199.872 227.482 199.387 227.171 198.758C226.859 198.129 226.703 197.382 226.703 196.519C226.703 195.655 226.859 194.909 227.171 194.279C227.482 193.65 227.91 193.165 228.454 192.824C228.998 192.483 229.619 192.312 230.318 192.312C230.731 192.312 231.119 192.372 231.481 192.492C231.846 192.612 232.176 192.788 232.469 193.02C232.762 193.249 233.007 193.529 233.205 193.86C233.402 194.187 233.538 194.562 233.613 194.983Z" fill="white"/>
<path d="M238.382 192.424H239.566L242.349 199.222H242.445L245.228 192.424H246.412V200.613H245.484V194.391H245.404L242.845 200.613H241.949L239.39 194.391H239.31V200.613H238.382V192.424Z" fill="white"/>
<path d="M248.736 200.613H247.696L250.703 192.424H251.727L254.734 200.613H253.694L251.247 193.72H251.183L248.736 200.613ZM249.12 197.414H253.31V198.294H249.12V197.414Z" fill="white"/>
<path d="M256.01 200.613V192.424H258.777C259.417 192.424 259.942 192.533 260.352 192.752C260.763 192.968 261.067 193.265 261.264 193.644C261.461 194.022 261.56 194.453 261.56 194.935C261.56 195.418 261.461 195.846 261.264 196.219C261.067 196.592 260.764 196.885 260.356 197.099C259.948 197.309 259.427 197.414 258.793 197.414H256.553V196.519H258.761C259.198 196.519 259.55 196.455 259.816 196.327C260.086 196.199 260.28 196.018 260.4 195.783C260.523 195.546 260.584 195.263 260.584 194.935C260.584 194.607 260.523 194.321 260.4 194.075C260.278 193.83 260.082 193.641 259.812 193.508C259.543 193.372 259.187 193.304 258.745 193.304H257.001V200.613H256.01ZM259.864 196.935L261.88 200.613H260.728L258.745 196.935H259.864Z" fill="white"/>
<path d="M263.212 200.613V192.424H264.204V196.487H264.3L267.979 192.424H269.274L265.836 196.119L269.274 200.613H268.075L265.228 196.807L264.204 197.958V200.613H263.212Z" fill="white"/>
<path d="M270.558 200.613V192.424H275.501V193.304H271.55V196.071H275.245V196.951H271.55V199.734H275.565V200.613H270.558Z" fill="white"/>
<path d="M276.84 193.304V192.424H282.982V193.304H280.407V200.613H279.415V193.304H276.84Z" fill="white"/>
<path d="M284.513 200.613V192.424H287.28C287.922 192.424 288.448 192.54 288.855 192.772C289.266 193.001 289.57 193.312 289.767 193.704C289.964 194.095 290.063 194.533 290.063 195.015C290.063 195.498 289.964 195.936 289.767 196.331C289.572 196.725 289.271 197.04 288.863 197.274C288.456 197.506 287.933 197.622 287.296 197.622H285.312V196.743H287.264C287.704 196.743 288.057 196.667 288.324 196.515C288.59 196.363 288.783 196.157 288.903 195.899C289.026 195.638 289.087 195.343 289.087 195.015C289.087 194.687 289.026 194.394 288.903 194.135C288.783 193.877 288.589 193.674 288.32 193.528C288.05 193.378 287.693 193.304 287.248 193.304H285.504V200.613H284.513Z" fill="white"/>
<path d="M291.661 200.613V192.424H292.652V199.734H296.459V200.613H291.661Z" fill="white"/>
<path d="M298.847 200.613H297.808L300.815 192.424H301.838L304.845 200.613H303.806L301.358 193.72H301.295L298.847 200.613ZM299.231 197.414H303.422V198.294H299.231V197.414Z" fill="white"/>
<path d="M312.326 194.983H311.334C311.276 194.698 311.173 194.447 311.027 194.231C310.883 194.015 310.707 193.834 310.499 193.688C310.293 193.538 310.065 193.426 309.815 193.352C309.564 193.277 309.303 193.24 309.031 193.24C308.535 193.24 308.086 193.365 307.684 193.616C307.284 193.866 306.965 194.235 306.728 194.723C306.493 195.211 306.376 195.81 306.376 196.519C306.376 197.228 306.493 197.826 306.728 198.314C306.965 198.802 307.284 199.171 307.684 199.422C308.086 199.672 308.535 199.798 309.031 199.798C309.303 199.798 309.564 199.76 309.815 199.686C310.065 199.611 310.293 199.5 310.499 199.354C310.707 199.205 310.883 199.022 311.027 198.806C311.173 198.587 311.276 198.337 311.334 198.054H312.326C312.251 198.473 312.116 198.847 311.918 199.178C311.721 199.508 311.476 199.79 311.182 200.022C310.889 200.251 310.56 200.425 310.195 200.545C309.832 200.665 309.444 200.725 309.031 200.725C308.333 200.725 307.712 200.555 307.168 200.214C306.624 199.872 306.196 199.387 305.884 198.758C305.572 198.129 305.416 197.382 305.416 196.519C305.416 195.655 305.572 194.909 305.884 194.279C306.196 193.65 306.624 193.165 307.168 192.824C307.712 192.483 308.333 192.312 309.031 192.312C309.444 192.312 309.832 192.372 310.195 192.492C310.56 192.612 310.889 192.788 311.182 193.02C311.476 193.249 311.721 193.529 311.918 193.86C312.116 194.187 312.251 194.562 312.326 194.983Z" fill="white"/>
<path d="M313.929 200.613V192.424H318.871V193.304H314.92V196.071H318.615V196.951H314.92V199.734H318.935V200.613H313.929Z" fill="white"/>
<defs>
<linearGradient id="paint0_linear_4308_5939" x1="1.2065e-07" y1="98.3418" x2="360" y2="98.3418" gradientUnits="userSpaceOnUse">
<stop stop-color="#5D1CAA"/>
<stop offset="1" stop-color="#813DCE"/>
</linearGradient>
<linearGradient id="paint1_linear_4308_5939" x1="58.8828" y1="152.889" x2="80.4689" y2="152.889" gradientUnits="userSpaceOnUse">
<stop stop-color="#5D1CAA"/>
<stop offset="1" stop-color="#813DCE"/>
</linearGradient>
</defs>
</svg>
