<svg width="12" height="11" viewBox="0 0 12 11" fill="none" xmlns="http://www.w3.org/2000/svg">
<path d="M10.9344 7.2886C11.2218 6.65243 11.3813 5.94863 11.3813 5.20834C11.3813 2.36421 9.02592 0.0585938 6.12036 0.0585938C3.2148 0.0585938 0.859375 2.36421 0.859375 5.20834C0.859375 8.05246 3.2148 10.3581 6.12036 10.3581C7.05583 10.3581 7.93427 10.1191 8.69544 9.70007L11.3823 10.3576L10.9344 7.2886Z" fill="#66BD46"/>
<path d="M6.25103 3.23057L4.62537 7.61156H3.96094L5.83281 2.80469H6.26115L6.25103 3.23057ZM7.61362 7.61156L5.98458 3.23057L5.97446 2.80469H6.4028L8.28142 7.61156H7.61362ZM7.5293 5.83209V6.35372H4.7704V5.83209H7.5293Z" fill="white"/>
</svg>
