<svg width="10" height="10" viewBox="0 0 10 10" fill="none" xmlns="http://www.w3.org/2000/svg">
<path d="M8.08281 5.08008C8.08281 6.84739 6.65012 8.28008 4.88281 8.28008M8.08281 5.08008C8.08281 3.31277 6.65012 1.88008 4.88281 1.88008M8.08281 5.08008H8.88281M4.88281 8.28008C3.1155 8.28008 1.68281 6.84739 1.68281 5.08008M4.88281 8.28008V9.08008M1.68281 5.08008C1.68281 3.31277 3.1155 1.88008 4.88281 1.88008M1.68281 5.08008H0.882812M4.88281 1.88008V1.08008M6.08281 5.08008C6.08281 5.74282 5.54555 6.28008 4.88281 6.28008C4.22007 6.28008 3.68281 5.74282 3.68281 5.08008C3.68281 4.41734 4.22007 3.88008 4.88281 3.88008C5.54555 3.88008 6.08281 4.41734 6.08281 5.08008Z" stroke="#601AB9" stroke-width="0.7" stroke-linecap="round" stroke-linejoin="round"/>
</svg>
