<svg width="12" height="12" viewBox="0 0 12 12" fill="none" xmlns="http://www.w3.org/2000/svg">
<path d="M1.30774 8.04836C1.02042 7.4122 0.860843 6.70839 0.860843 5.9681C0.860843 3.12398 3.21627 0.818359 6.12183 0.818359C9.02739 0.818359 11.3828 3.12398 11.3828 5.9681C11.3828 8.81223 9.02739 11.1178 6.12183 11.1178C5.18636 11.1178 4.30791 10.8789 3.54674 10.4598L0.859845 11.1174L1.30774 8.04836Z" fill="#530CAD"/>
<path d="M6.82248 7.37611L8.01057 8.29705L7.59313 8.67423L6.42431 7.76586L6.82248 7.37611ZM7.99452 5.46821V5.75738C7.99452 6.10103 7.95063 6.40906 7.86286 6.68147C7.77509 6.95388 7.64879 7.18542 7.48396 7.37611C7.31912 7.56679 7.12111 7.71242 6.88991 7.81301C6.66086 7.91359 6.40397 7.96388 6.11926 7.96388C5.84311 7.96388 5.58944 7.91359 5.35824 7.81301C5.12919 7.71242 4.9301 7.56679 4.76099 7.37611C4.59401 7.18542 4.4645 6.95388 4.37245 6.68147C4.2804 6.40906 4.23438 6.10103 4.23438 5.75738V5.46821C4.23438 5.12456 4.27933 4.81758 4.36924 4.54727C4.46129 4.27486 4.5908 4.04332 4.75778 3.85263C4.92475 3.65985 5.12277 3.51317 5.35182 3.41259C5.58302 3.31201 5.83669 3.26172 6.11284 3.26172C6.39755 3.26172 6.65551 3.31201 6.8867 3.41259C7.1179 3.51317 7.31591 3.65985 7.48075 3.85263C7.64558 4.04332 7.77188 4.27486 7.85965 4.54727C7.94956 4.81758 7.99452 5.12456 7.99452 5.46821ZM7.3812 5.75738V5.46193C7.3812 5.18952 7.35231 4.94854 7.29451 4.739C7.23885 4.52946 7.15643 4.35344 7.04726 4.21095C6.93808 4.06846 6.80536 3.96055 6.64909 3.88721C6.49281 3.81387 6.31407 3.7772 6.11284 3.7772C5.92232 3.7772 5.74892 3.81387 5.59265 3.88721C5.43852 3.96055 5.3058 4.06846 5.19448 4.21095C5.08316 4.35344 4.99753 4.52946 4.9376 4.739C4.87766 4.94854 4.84769 5.18952 4.84769 5.46193V5.75738C4.84769 6.03189 4.87766 6.27496 4.9376 6.48659C4.99753 6.69614 5.08316 6.8732 5.19448 7.01779C5.30794 7.16028 5.4428 7.26819 5.59907 7.34153C5.75534 7.41487 5.92874 7.45154 6.11926 7.45154C6.32049 7.45154 6.49924 7.41487 6.65551 7.34153C6.81178 7.26819 6.94343 7.16028 7.05047 7.01779C7.15964 6.8732 7.24206 6.69614 7.29772 6.48659C7.35338 6.27496 7.3812 6.03189 7.3812 5.75738Z" fill="white"/>
</svg>
