<svg width="15" height="16" viewBox="0 0 15 16" fill="none" xmlns="http://www.w3.org/2000/svg">
<path d="M11.513 5.10872C12.7096 5.10872 13.6797 4.13867 13.6797 2.94206C13.6797 1.74544 12.7096 0.775391 11.513 0.775391C10.3164 0.775391 9.34635 1.74544 9.34635 2.94206C9.34635 4.13867 10.3164 5.10872 11.513 5.10872Z" fill="#601AB9"/>
<path d="M2.84635 10.1643C4.04297 10.1643 5.01302 9.19423 5.01302 7.99761C5.01302 6.801 4.04297 5.83095 2.84635 5.83095C1.64974 5.83095 0.679688 6.801 0.679688 7.99761C0.679688 9.19423 1.64974 10.1643 2.84635 10.1643Z" fill="#601AB9"/>
<path d="M11.513 15.2198C12.7096 15.2198 13.6797 14.2498 13.6797 13.0532C13.6797 11.8566 12.7096 10.8865 11.513 10.8865C10.3164 10.8865 9.34635 11.8566 9.34635 13.0532C9.34635 14.2498 10.3164 15.2198 11.513 15.2198Z" fill="#601AB9"/>
<path d="M4.71691 9.08817L9.64969 11.9626M9.64247 4.03261L4.71691 6.90706M13.6797 2.94206C13.6797 4.13867 12.7096 5.10872 11.513 5.10872C10.3164 5.10872 9.34635 4.13867 9.34635 2.94206C9.34635 1.74544 10.3164 0.775391 11.513 0.775391C12.7096 0.775391 13.6797 1.74544 13.6797 2.94206ZM5.01302 7.99761C5.01302 9.19423 4.04297 10.1643 2.84635 10.1643C1.64974 10.1643 0.679688 9.19423 0.679688 7.99761C0.679688 6.801 1.64974 5.83095 2.84635 5.83095C4.04297 5.83095 5.01302 6.801 5.01302 7.99761ZM13.6797 13.0532C13.6797 14.2498 12.7096 15.2198 11.513 15.2198C10.3164 15.2198 9.34635 14.2498 9.34635 13.0532C9.34635 11.8566 10.3164 10.8865 11.513 10.8865C12.7096 10.8865 13.6797 11.8566 13.6797 13.0532Z" stroke="white" stroke-linecap="round" stroke-linejoin="round"/>
</svg>
