<svg width="37" height="38" viewBox="0 0 37 38" fill="none" xmlns="http://www.w3.org/2000/svg">
<path d="M25.1192 20.7089H5.16732C4.78935 20.7089 4.42686 20.859 4.1596 21.1263C3.89234 21.3935 3.74219 21.756 3.74219 22.134V34.9602C3.74219 35.7161 4.04248 36.4411 4.57701 36.9756C5.11154 37.5101 5.83651 37.8104 6.59245 37.8104H23.694C24.45 37.8104 25.1749 37.5101 25.7095 36.9756C26.244 36.4411 26.5443 35.7161 26.5443 34.9602V22.134C26.5443 21.756 26.3941 21.3935 26.1269 21.1263C25.8596 20.859 25.4971 20.7089 25.1192 20.7089Z" fill="white"/>
<path d="M28.5561 19.4212L28.556 19.4212L28.5579 19.4274C28.785 20.1892 28.898 20.9805 28.8933 21.7755L28.8933 21.78C28.895 22.3229 28.7893 22.8607 28.5823 23.3626C28.3754 23.8644 28.0712 24.3204 27.6874 24.7042C27.3035 25.0881 26.8475 25.3922 26.3457 25.5992C25.8438 25.8062 25.306 25.9119 24.7632 25.9102L24.7606 25.9102C23.6939 25.9124 22.6686 25.4977 21.9034 24.7546L21.5562 24.4174L21.2079 24.7535C20.4403 25.4943 19.4152 25.9083 18.3485 25.9083C17.2818 25.9083 16.2567 25.4943 15.4892 24.7535L15.14 24.4165L14.7927 24.7555C14.0311 25.4989 13.008 25.9135 11.9438 25.9102C10.894 25.8784 9.89604 25.4466 9.15407 24.7031L8.81209 24.3604L8.45855 24.6912C7.67198 25.4271 6.63511 25.8365 5.55797 25.8365C4.48187 25.8365 3.44596 25.4278 2.65966 24.6933C2.26569 24.3149 1.95068 23.862 1.73285 23.361C1.51497 22.8599 1.39866 22.3206 1.39065 21.7742C1.38851 20.9793 1.50164 20.1884 1.72652 19.426L1.72654 19.426L1.72778 19.4216L3.97948 11.5264L3.97949 11.5264L3.98009 11.5243C4.11821 11.0317 4.41326 10.5977 4.82047 10.288C5.22749 9.97852 5.72434 9.81021 6.23566 9.80859H24.0491C24.5576 9.80859 25.0524 9.97353 25.4592 10.2786C25.8656 10.5834 26.1623 11.0117 26.3048 11.4992C26.305 11.4997 26.3052 11.5003 26.3053 11.5008L28.5561 19.4212Z" fill="#7021D5" stroke="white"/>
<circle cx="27.4688" cy="9.86914" r="9.25" fill="#66BD46" stroke="white" stroke-width="0.5"/>
<path d="M32.124 7.04249L32.1105 6.72454L31.7939 6.69203C30.5779 6.56715 29.5325 6.11337 28.8696 5.75469C28.1436 5.36184 27.7036 4.99328 27.6995 4.98988L27.4619 4.78906L27.224 4.98959C27.2197 4.99327 26.7796 5.36184 26.0536 5.75468C25.3907 6.11336 24.3454 6.56714 23.1294 6.69202L22.8128 6.72453L22.7993 7.04248C22.7968 7.0994 22.746 8.45545 23.2683 10.0975C23.5765 11.0665 24.0216 11.9347 24.5913 12.6781C25.3066 13.6116 26.2189 14.3474 27.303 14.8651L27.4616 14.9408L27.6202 14.8651C28.7043 14.3474 29.6167 13.6116 30.3319 12.6781C30.9016 11.9347 31.3467 11.0665 31.6549 10.0975C32.1772 8.45548 32.1264 7.09943 32.124 7.04249ZM27.4616 14.1227C26.5572 13.6632 25.7918 13.0311 25.1844 12.242C24.667 11.5698 24.2608 10.781 23.9772 9.89773C23.6305 8.8181 23.5527 7.85526 23.537 7.38247C24.0247 7.31005 24.5178 7.18819 25.0072 7.01894C25.4856 6.85348 25.9618 6.64253 26.4225 6.39195C26.89 6.1377 27.2457 5.89486 27.4616 5.73606C27.6775 5.89484 28.0332 6.1377 28.5007 6.39195C28.9614 6.64254 29.4376 6.85348 29.916 7.01894C30.4055 7.18824 30.8988 7.3101 31.3866 7.38253C31.3715 7.85068 31.2953 8.79996 30.9535 9.87443C30.6711 10.7621 30.2654 11.5548 29.7477 12.2304C29.1388 13.025 28.3704 13.6609 27.4616 14.1227Z" fill="white"/>
<path d="M29.4636 8.19055L28.9501 8.70405L27.0363 10.6178L26.0664 9.6479L25.9345 9.51601L25.6743 9.77624V9.77625L25.4141 10.0365L27.0363 11.6587L29.984 8.71103L29.4636 8.19055Z" fill="white"/>
<path d="M9.8369 34.2986C9.8369 34.1746 9.81746 34.0653 9.77858 33.9705C9.74212 33.8733 9.67651 33.7858 9.58174 33.7081C9.4894 33.6303 9.3606 33.5562 9.19535 33.4857C9.03254 33.4152 8.82598 33.3436 8.57568 33.2706C8.31323 33.1929 8.0763 33.1066 7.86488 33.0118C7.65346 32.9146 7.47242 32.8041 7.32175 32.6801C7.17109 32.5562 7.05566 32.414 6.97547 32.2537C6.89527 32.0933 6.85518 31.9098 6.85518 31.7032C6.85518 31.4967 6.8977 31.3059 6.98276 31.131C7.06781 30.956 7.18931 30.8041 7.34727 30.6753C7.50766 30.5441 7.69842 30.442 7.91956 30.3691C8.14069 30.2962 8.38735 30.2598 8.65952 30.2598C9.05805 30.2598 9.39584 30.3363 9.67287 30.4894C9.95233 30.6401 10.165 30.8381 10.3108 31.0836C10.4566 31.3266 10.5295 31.5866 10.5295 31.8636H9.82961C9.82961 31.6644 9.78708 31.4882 9.70203 31.3351C9.61698 31.1796 9.48818 31.0581 9.31564 30.9706C9.14311 30.8807 8.9244 30.8357 8.65952 30.8357C8.40922 30.8357 8.20266 30.8734 8.03985 30.9487C7.87703 31.024 7.75553 31.1261 7.67533 31.2549C7.59757 31.3837 7.55869 31.5307 7.55869 31.6959C7.55869 31.8077 7.58177 31.9098 7.62795 32.0021C7.67655 32.0921 7.75066 32.1759 7.8503 32.2537C7.95236 32.3314 8.08116 32.4031 8.23668 32.4687C8.39464 32.5343 8.58297 32.5975 8.80168 32.6583C9.10301 32.7433 9.36303 32.8381 9.58174 32.9426C9.80045 33.0471 9.98027 33.1649 10.1212 33.2962C10.2646 33.425 10.3703 33.572 10.4383 33.7372C10.5088 33.9 10.5441 34.0847 10.5441 34.2913C10.5441 34.5076 10.5003 34.7032 10.4128 34.8782C10.3253 35.0531 10.2002 35.2026 10.0374 35.3265C9.87456 35.4504 9.67894 35.5464 9.45051 35.6145C9.22452 35.6801 8.97179 35.7129 8.69233 35.7129C8.44689 35.7129 8.20509 35.6789 7.96694 35.6108C7.73122 35.5428 7.51616 35.4407 7.32175 35.3046C7.12978 35.1686 6.97547 35.0009 6.85882 34.8016C6.74461 34.5999 6.6875 34.3666 6.6875 34.1017H7.38737C7.38737 34.284 7.4226 34.4407 7.49308 34.572C7.56355 34.7008 7.65954 34.8077 7.78104 34.8927C7.90498 34.9778 8.04471 35.041 8.20023 35.0823C8.35819 35.1212 8.52222 35.1406 8.69233 35.1406C8.93776 35.1406 9.14554 35.1066 9.31564 35.0385C9.48575 34.9705 9.61454 34.8733 9.70203 34.7469C9.79194 34.6206 9.8369 34.4711 9.8369 34.2986Z" fill="#601AB9"/>
<path d="M12.9899 31.6959V32.2136H10.8575V31.6959H12.9899ZM11.5793 30.7373H12.2536V34.6631C12.2536 34.7967 12.2743 34.8976 12.3156 34.9656C12.3569 35.0337 12.4104 35.0786 12.476 35.1005C12.5416 35.1224 12.6121 35.1333 12.6874 35.1333C12.7433 35.1333 12.8016 35.1285 12.8624 35.1187C12.9255 35.1066 12.9729 35.0969 13.0045 35.0896L13.0082 35.64C12.9547 35.657 12.8842 35.6728 12.7967 35.6874C12.7117 35.7044 12.6084 35.7129 12.4869 35.7129C12.3217 35.7129 12.1698 35.6801 12.0313 35.6145C11.8928 35.5489 11.7822 35.4395 11.6996 35.2864C11.6194 35.1309 11.5793 34.9219 11.5793 34.6594V30.7373Z" fill="#601AB9"/>
<path d="M13.5294 33.7117V33.6279C13.5294 33.3436 13.5707 33.0799 13.6534 32.8369C13.736 32.5914 13.8551 32.3788 14.0106 32.199C14.1661 32.0167 14.3544 31.8758 14.5756 31.7761C14.7967 31.6741 15.0446 31.623 15.3192 31.623C15.5962 31.623 15.8453 31.6741 16.0664 31.7761C16.29 31.8758 16.4796 32.0167 16.6351 32.199C16.793 32.3788 16.9133 32.5914 16.9959 32.8369C17.0786 33.0799 17.1199 33.3436 17.1199 33.6279V33.7117C17.1199 33.996 17.0786 34.2597 16.9959 34.5027C16.9133 34.7457 16.793 34.9583 16.6351 35.1406C16.4796 35.3204 16.2912 35.4614 16.0701 35.5634C15.8514 35.6631 15.6035 35.7129 15.3265 35.7129C15.0494 35.7129 14.8004 35.6631 14.5792 35.5634C14.3581 35.4614 14.1685 35.3204 14.0106 35.1406C13.8551 34.9583 13.736 34.7457 13.6534 34.5027C13.5707 34.2597 13.5294 33.996 13.5294 33.7117ZM14.2038 33.6279V33.7117C14.2038 33.9085 14.2269 34.0944 14.273 34.2694C14.3192 34.442 14.3885 34.595 14.4808 34.7287C14.5756 34.8624 14.6934 34.9681 14.8344 35.0458C14.9753 35.1212 15.1394 35.1588 15.3265 35.1588C15.5112 35.1588 15.6728 35.1212 15.8113 35.0458C15.9522 34.9681 16.0689 34.8624 16.1612 34.7287C16.2536 34.595 16.3228 34.442 16.369 34.2694C16.4176 34.0944 16.4419 33.9085 16.4419 33.7117V33.6279C16.4419 33.4335 16.4176 33.25 16.369 33.0775C16.3228 32.9025 16.2523 32.7482 16.1576 32.6145C16.0652 32.4784 15.9486 32.3715 15.8076 32.2938C15.6691 32.216 15.5063 32.1771 15.3192 32.1771C15.1345 32.1771 14.9717 32.216 14.8307 32.2938C14.6922 32.3715 14.5756 32.4784 14.4808 32.6145C14.3885 32.7482 14.3192 32.9025 14.273 33.0775C14.2269 33.25 14.2038 33.4335 14.2038 33.6279Z" fill="#601AB9"/>
<path d="M18.6399 32.3156V35.64H17.9656V31.6959H18.6217L18.6399 32.3156ZM19.872 31.6741L19.8683 32.301C19.8124 32.2889 19.759 32.2816 19.7079 32.2792C19.6593 32.2743 19.6034 32.2719 19.5403 32.2719C19.3847 32.2719 19.2474 32.2962 19.1284 32.3448C19.0093 32.3934 18.9084 32.4614 18.8258 32.5489C18.7432 32.6364 18.6776 32.7409 18.629 32.8624C18.5828 32.9815 18.5524 33.1127 18.5378 33.2561L18.3483 33.3654C18.3483 33.1273 18.3714 32.9037 18.4176 32.6947C18.4662 32.4857 18.5403 32.301 18.6399 32.1407C18.7395 31.9778 18.8659 31.8515 19.019 31.7616C19.1745 31.6692 19.3592 31.623 19.5731 31.623C19.6217 31.623 19.6776 31.6291 19.7407 31.6413C19.8039 31.651 19.8477 31.6619 19.872 31.6741Z" fill="#601AB9"/>
<path d="M22.059 35.7129C21.7844 35.7129 21.5354 35.6667 21.3118 35.5744C21.0907 35.4796 20.8999 35.3472 20.7395 35.1771C20.5815 35.0069 20.46 34.8053 20.375 34.572C20.2899 34.3387 20.2474 34.0835 20.2474 33.8065V33.6534C20.2474 33.3326 20.2948 33.0471 20.3896 32.7968C20.4843 32.5441 20.6131 32.3302 20.776 32.1552C20.9388 31.9803 21.1235 31.8478 21.33 31.7579C21.5366 31.668 21.7504 31.623 21.9716 31.623C22.2534 31.623 22.4965 31.6716 22.7006 31.7689C22.9071 31.8661 23.076 32.0021 23.2073 32.1771C23.3385 32.3496 23.4357 32.5538 23.4989 32.7895C23.5621 33.0228 23.5936 33.2779 23.5936 33.555V33.8575H20.6484V33.3071H22.9193V33.2561C22.9096 33.0811 22.8731 32.911 22.8099 32.7457C22.7492 32.5805 22.652 32.4444 22.5183 32.3375C22.3847 32.2306 22.2024 32.1771 21.9716 32.1771C21.8185 32.1771 21.6775 32.2099 21.5487 32.2755C21.4199 32.3387 21.3094 32.4335 21.217 32.5598C21.1247 32.6862 21.053 32.8405 21.002 33.0228C20.9509 33.205 20.9254 33.4152 20.9254 33.6534V33.8065C20.9254 33.9936 20.9509 34.1698 21.002 34.335C21.0554 34.4978 21.132 34.6412 21.2316 34.7652C21.3337 34.8891 21.4564 34.9863 21.5998 35.0568C21.7456 35.1272 21.9108 35.1625 22.0955 35.1625C22.3336 35.1625 22.5353 35.1139 22.7006 35.0167C22.8658 34.9195 23.0104 34.7895 23.1344 34.6266L23.5426 34.9511C23.4576 35.0799 23.3494 35.2026 23.2182 35.3192C23.087 35.4359 22.9254 35.5306 22.7334 35.6035C22.5438 35.6764 22.3191 35.7129 22.059 35.7129Z" fill="#601AB9"/>
</svg>
