<svg width="10" height="8" viewBox="0 0 10 8" fill="none" xmlns="http://www.w3.org/2000/svg">
<path d="M5.68281 2.08086H6.61772C6.71555 2.08086 6.76447 2.08086 6.81051 2.09191C6.85132 2.10171 6.89034 2.11787 6.92613 2.1398C6.96649 2.16454 7.00108 2.19913 7.07026 2.26831L8.69536 3.89341C8.76454 3.96259 8.79913 3.99718 8.82387 4.03755C8.8458 4.07333 8.86196 4.11235 8.87176 4.15317C8.88281 4.1992 8.88281 4.24812 8.88281 4.34596V5.48086C8.88281 5.66724 8.88281 5.76042 8.85236 5.83393C8.81177 5.93194 8.7339 6.00981 8.63589 6.05041C8.56238 6.08086 8.46919 6.08086 8.28281 6.08086M6.28281 6.08086H5.68281M5.68281 6.08086V2.16086C5.68281 1.71282 5.68281 1.4888 5.59562 1.31767C5.51892 1.16714 5.39653 1.04475 5.246 0.968054C5.07488 0.880859 4.85085 0.880859 4.40281 0.880859H2.16281C1.71477 0.880859 1.49075 0.880859 1.31962 0.968054C1.16909 1.04475 1.04671 1.16714 0.970007 1.31767C0.882812 1.4888 0.882812 1.71282 0.882812 2.16086V5.28086C0.882812 5.72269 1.24098 6.08086 1.68281 6.08086M5.68281 6.08086H4.08281M4.08281 6.08086C4.08281 6.7436 3.54555 7.28086 2.88281 7.28086C2.22007 7.28086 1.68281 6.7436 1.68281 6.08086M4.08281 6.08086C4.08281 5.41812 3.54555 4.88086 2.88281 4.88086C2.22007 4.88086 1.68281 5.41812 1.68281 6.08086M8.28281 6.28086C8.28281 6.83314 7.8351 7.28086 7.28281 7.28086C6.73053 7.28086 6.28281 6.83314 6.28281 6.28086C6.28281 5.72857 6.73053 5.28086 7.28281 5.28086C7.8351 5.28086 8.28281 5.72857 8.28281 6.28086Z" stroke="#601AB9" stroke-width="0.7" stroke-linecap="round" stroke-linejoin="round"/>
</svg>
