<svg width="11" height="11" viewBox="0 0 11 11" fill="none" xmlns="http://www.w3.org/2000/svg">
<path d="M10.3698 0.556434C10.3285 0.492972 10.2721 0.440816 10.2056 0.4047C10.139 0.368583 10.0646 0.349649 9.98886 0.349616H7.26159C7.17712 0.349577 7.09431 0.373075 7.02245 0.417475C6.9506 0.461875 6.89253 0.525419 6.85477 0.600979L5.44341 3.42416L4.03432 0.600979C3.99639 0.525073 3.93797 0.461298 3.86567 0.416875C3.79338 0.372452 3.71009 0.349153 3.62523 0.349616H0.897962C0.822231 0.349607 0.747697 0.368519 0.681133 0.404635C0.614568 0.440751 0.558082 0.492926 0.516807 0.55642C0.475531 0.619915 0.450773 0.692716 0.444783 0.76821C0.438794 0.843703 0.451761 0.919498 0.482508 0.988706L2.59751 5.7537C2.37695 6.19247 2.26192 6.6767 2.2616 7.16779C2.2616 8.01166 2.59682 8.82097 3.19353 9.41767C3.79023 10.0144 4.59954 10.3496 5.44341 10.3496C6.28728 10.3496 7.09659 10.0144 7.69329 9.41767C8.29 8.82097 8.62523 8.01166 8.62523 7.16779C8.6249 6.6767 8.50988 6.19247 8.28932 5.7537L10.4043 0.988706C10.435 0.919479 10.4479 0.843677 10.4419 0.768185C10.4359 0.692693 10.4111 0.619905 10.3698 0.556434ZM1.59705 1.25871H3.34432L4.7475 4.06507C4.16901 4.1955 3.63856 4.48521 3.21614 4.90143L1.59705 1.25871ZM5.44341 9.44051C4.99391 9.44051 4.5545 9.30722 4.18075 9.05749C3.80701 8.80776 3.5157 8.45281 3.34369 8.03752C3.17167 7.62224 3.12666 7.16527 3.21436 6.7244C3.30205 6.28354 3.51851 5.87858 3.83635 5.56073C4.1542 5.24289 4.55916 5.02643 5.00002 4.93874C5.44089 4.85104 5.89786 4.89605 6.31314 5.06807C6.72843 5.24008 7.08338 5.53138 7.33311 5.90513C7.58284 6.27888 7.71614 6.71829 7.71614 7.16779C7.71541 7.77033 7.47573 8.34799 7.04967 8.77405C6.62361 9.20012 6.04595 9.43979 5.44341 9.44051ZM7.67295 4.90143C7.24991 4.48484 6.71863 4.19511 6.13932 4.06507L7.5425 1.25871H9.28977L7.67295 4.90143ZM6.80705 6.84597L6.04932 7.47097L6.28614 8.53143L5.44341 7.92552L4.60068 8.53143L4.8375 7.47097L4.07978 6.84597L4.98887 6.71325L5.44341 5.80416L5.89796 6.71325L6.80705 6.84597Z" fill="white"/>
</svg>
