<svg width="11" height="13" viewBox="0 0 11 13" fill="none" xmlns="http://www.w3.org/2000/svg">
<path d="M5.69128 2.50024C5.75065 2.39022 5.90603 2.39022 5.9654 2.50024L6.51675 3.52193C6.53866 3.56254 6.57689 3.59141 6.62145 3.601L7.72396 3.83828C7.84118 3.86351 7.88809 4.00797 7.80872 4.09926L7.04388 4.97893C7.0147 5.01249 7.00079 5.05701 7.00556 5.10155L7.13197 6.28055C7.1452 6.40396 7.02055 6.49453 6.91009 6.44177L5.89479 5.95686C5.85269 5.93675 5.80398 5.93675 5.76189 5.95686L4.74659 6.44177C4.63613 6.49453 4.51148 6.40396 4.52471 6.28055L4.65112 5.10155C4.65589 5.05701 4.64198 5.01249 4.6128 4.97893L3.84796 4.09926C3.76858 4.00797 3.8155 3.86351 3.93271 3.83828L5.03523 3.601C5.07978 3.59141 5.11801 3.56254 5.13993 3.52193L5.69128 2.50024Z" fill="white"/>
<path d="M0.907271 10.8386C0.996146 10.9452 1.14127 10.9872 1.27263 10.9438L2.71706 10.476L3.13221 11.9366C3.17011 12.0698 3.28515 12.1667 3.42297 12.1814C3.43503 12.1828 3.44727 12.1835 3.45933 12.1835C3.58356 12.1835 3.69945 12.1152 3.7591 12.0035L5.51026 8.72279C5.63075 8.73366 5.75259 8.74029 5.87562 8.74029C5.9679 8.74029 6.05898 8.73604 6.14972 8.72976L7.89715 12.0035C7.9568 12.115 8.07252 12.1835 8.19692 12.1835C8.20898 12.1835 8.22122 12.1828 8.23328 12.1814C8.37127 12.1667 8.48614 12.0698 8.52404 11.9366L8.93902 10.476L10.3836 10.9438C10.5152 10.9872 10.6601 10.9452 10.749 10.8386C10.8379 10.7324 10.8533 10.5827 10.7881 10.4605L9.04013 7.18574C9.56641 6.50787 9.88062 5.65804 9.88062 4.73547C9.88062 2.52701 8.08408 0.730469 5.87579 0.730469C3.6675 0.730469 1.87079 2.52701 1.87079 4.73564C1.87079 5.62507 2.16274 6.44755 2.65521 7.11301L0.868186 10.4605C0.802932 10.5827 0.818396 10.7324 0.907271 10.8386ZM8.87699 9.74137C8.78879 9.71265 8.69346 9.72115 8.61206 9.76499L8.53016 9.80884C8.44876 9.85234 8.3886 9.92694 8.36345 10.0156L8.10056 10.9408L6.86056 8.6176C7.49866 8.45565 8.07592 8.14009 8.55089 7.71287L9.79225 10.0379L8.87699 9.74137ZM5.87579 1.4102C7.70921 1.4102 9.20088 2.90188 9.20088 4.73547C9.20088 6.56888 7.70921 8.06039 5.87579 8.06039C4.04238 8.06039 2.5507 6.56888 2.5507 4.73547C2.55053 2.90188 4.04238 1.4102 5.87579 1.4102ZM3.13714 7.65357C3.60361 8.09166 4.17442 8.41912 4.80827 8.59466L3.55603 10.9406L3.29297 10.0155C3.26782 9.92694 3.20766 9.85234 3.1266 9.80884L3.04487 9.76499C2.96347 9.72132 2.8678 9.71265 2.7796 9.7412L1.86434 10.0376L3.13714 7.65357Z" fill="white"/>
</svg>
