<svg width="12" height="12" viewBox="0 0 12 12" fill="none" xmlns="http://www.w3.org/2000/svg">
<path d="M9.40598 1.03174C10.0196 1.03174 10.5171 1.51903 10.5171 2.12012L10.5171 3.97805C10.5171 4.57915 10.0196 5.06644 9.40598 5.06644H7.73932C7.12567 5.06644 6.6282 4.57915 6.6282 3.97805L6.6282 2.12012C6.6282 1.51902 7.12566 1.03174 7.73931 1.03174L9.40598 1.03174Z" stroke="white" stroke-linecap="round" stroke-linejoin="round"/>
<path d="M1.6282 1.03174C1.01455 1.03174 0.517089 1.51903 0.517089 2.12012L0.517095 3.97805C0.517095 4.57915 1.01456 5.06644 1.62821 5.06644H3.29487C3.90852 5.06644 4.40598 4.57915 4.40598 3.97805L4.40598 2.12012C4.40598 1.51902 3.90852 1.03174 3.29487 1.03174L1.6282 1.03174Z" stroke="white" stroke-linecap="round" stroke-linejoin="round"/>
<path d="M9.40598 6.9286C10.0196 6.9286 10.5171 7.41588 10.5171 8.01698V9.87489C10.5171 10.476 10.0196 10.9633 9.40598 10.9633H7.73932C7.12567 10.9633 6.62821 10.476 6.62821 9.87489L6.62821 8.01698C6.62821 7.41588 7.12567 6.9286 7.73932 6.9286H9.40598Z" stroke="white" stroke-linecap="round" stroke-linejoin="round"/>
<path d="M1.6282 6.9286C1.01456 6.9286 0.517094 7.41588 0.517094 8.01698L0.517096 9.87489C0.517096 10.476 1.01456 10.9633 1.62821 10.9633H3.29487C3.90852 10.9633 4.40598 10.476 4.40598 9.87489L4.40598 8.01698C4.40598 7.41588 3.90852 6.9286 3.29487 6.9286H1.6282Z" stroke="white" stroke-linecap="round" stroke-linejoin="round"/>
</svg>
